<svg id="Group_14086" data-name="Group 14086" xmlns="http://www.w3.org/2000/svg" xmlns:xlink="http://www.w3.org/1999/xlink" width="150.802" height="117.542" viewBox="0 0 150.802 117.542">
  <defs>
    <clipPath id="clip-path">
      <rect id="Rectangle_6018" data-name="Rectangle 6018" width="150.802" height="117.542" fill="none"/>
    </clipPath>
    <clipPath id="clip-path-3">
      <rect id="Rectangle_6009" data-name="Rectangle 6009" width="88.749" height="32.384" fill="none"/>
    </clipPath>
    <clipPath id="clip-path-4">
      <rect id="Rectangle_6010" data-name="Rectangle 6010" width="41.111" height="26.959" fill="none"/>
    </clipPath>
    <clipPath id="clip-path-5">
      <rect id="Rectangle_6011" data-name="Rectangle 6011" width="39.591" height="19.164" fill="none"/>
    </clipPath>
    <clipPath id="clip-path-6">
      <rect id="Rectangle_6012" data-name="Rectangle 6012" width="5.63" height="7.36" fill="none"/>
    </clipPath>
    <clipPath id="clip-path-7">
      <rect id="Rectangle_6013" data-name="Rectangle 6013" width="1.407" height="1.538" fill="none"/>
    </clipPath>
    <clipPath id="clip-path-8">
      <rect id="Rectangle_6014" data-name="Rectangle 6014" width="1.525" height="1.453" fill="none"/>
    </clipPath>
    <clipPath id="clip-path-9">
      <rect id="Rectangle_6015" data-name="Rectangle 6015" width="41.204" height="25.117" fill="none"/>
    </clipPath>
    <clipPath id="clip-path-10">
      <rect id="Rectangle_6016" data-name="Rectangle 6016" width="21.235" height="21.234" fill="none"/>
    </clipPath>
  </defs>
  <g id="Group_14085" data-name="Group 14085" transform="translate(0)" clip-path="url(#clip-path)">
    <g id="Group_14084" data-name="Group 14084">
      <g id="Group_14083" data-name="Group 14083" clip-path="url(#clip-path)">
        <path id="Path_17076" data-name="Path 17076" d="M50.914,22.118a37.269,37.269,0,0,1,4.919-7.839C71.776-5.224,103.1-3.581,121.474,12.14c20.373,17.436,18.489,46.781,18.073,51.795-1.449,17.442-10.5,45.835-31.334,51.619-9.677,2.687-18.91-.335-26.965-5.939a16.879,16.879,0,0,0-20.822,1.176,28.821,28.821,0,0,1-7.7,4.8,27.582,27.582,0,0,1-14.65,1.607C18.725,114.543-.176,92.514,0,71.916c.2-23.636,25.5-41.766,50.912-49.8" transform="translate(0 0)" fill="#ecf3fe"/>
        <path id="Path_17077" data-name="Path 17077" d="M867.5,1155.087v46.47c0,.056,0,.113-.005.172,0,.027,0,.054-.005.081s0,.051-.005.078c0,.011,0,.022,0,.032s-.005.035-.008.051c0,.04-.011.081-.016.121s-.013.078-.021.116a.432.432,0,0,1-.014.057.122.122,0,0,1-.008.043.418.418,0,0,1-.013.057c-.008.035-.019.07-.027.1a.048.048,0,0,1-.005.019c-.019.059-.035.119-.057.175a.01.01,0,0,1,0,.008c-.011.03-.021.059-.032.086s-.022.051-.03.075a.108.108,0,0,0-.008.022c-.032.073-.065.148-.1.218-.011.021-.024.048-.038.073l-.04.07c-.013.021-.024.046-.04.067-.027.046-.057.092-.086.135s-.038.054-.054.081c-.046.059-.089.118-.137.175s-.07.083-.105.121-.073.078-.11.116c-.016.019-.035.035-.054.054a.414.414,0,0,1-.051.046c-.019.019-.04.038-.062.057l-.019.016c-.051.046-.1.089-.159.129a.077.077,0,0,0-.016.013c-.043.03-.086.062-.132.092-.016.011-.03.022-.043.03s-.048.032-.073.046a.41.41,0,0,1-.059.035c-.022.014-.043.027-.065.038a3.019,3.019,0,0,1-.474.218c-.011,0-.019.008-.03.011l-.035.011c-.038.014-.075.027-.116.038-.067.021-.135.038-.2.054l-.1.024a.535.535,0,0,1-.067.011l-.083.016c-.005,0-.008,0-.011,0l-.067.008-.032,0-.059.008c-.011,0-.022,0-.035,0l-.124.008c-.059,0-.118.005-.178.005h-82.1c-.059,0-.119,0-.178-.005l-.124-.008a1.2,1.2,0,0,1-.137-.016.686.686,0,0,1-.078-.011c-.065-.008-.129-.022-.191-.035a.391.391,0,0,1-.054-.013c-.067-.016-.135-.032-.2-.054-.04-.014-.078-.024-.116-.038a3.633,3.633,0,0,1-.522-.229l-.121-.073c-.046-.027-.091-.057-.135-.086a3.352,3.352,0,0,1-.708-.643q-.073-.085-.137-.178a3.181,3.181,0,0,1-.369-.662c-.021-.054-.043-.113-.065-.17s-.038-.116-.057-.175-.032-.118-.046-.178-.024-.11-.035-.167c0-.008,0-.019-.005-.027-.008-.054-.016-.11-.022-.164a.02.02,0,0,1,0-.014c-.005-.043-.008-.083-.011-.126-.008-.083-.011-.167-.011-.253v-46.47a3.312,3.312,0,0,1,1.211-2.566.19.19,0,0,1,.022-.016l.172-.132a3.3,3.3,0,0,1,1.919-.611h82.1a2.263,2.263,0,0,1,.237.011.116.116,0,0,1,.043,0c.075.005.154.014.226.024l.051.008c.065.011.129.024.191.04a.277.277,0,0,1,.049.011c.078.019.153.04.229.064s.143.048.21.075a2.7,2.7,0,0,1,.283.132,1.686,1.686,0,0,1,.151.081,2.2,2.2,0,0,1,.248.162s0,0,0,0l.172.132a.176.176,0,0,1,.021.016c.046.035.086.073.127.11s.062.057.091.086a2.91,2.91,0,0,1,.258.286q.056.069.1.137a3.127,3.127,0,0,1,.353.619c.027.059.051.121.075.183,0,0,0,.005,0,.008a3.084,3.084,0,0,1,.094.3c.013.051.024.1.035.151s.016.078.022.119.013.081.019.121a1.369,1.369,0,0,1,.016.145.961.961,0,0,1,.008.124c0,.057.005.116.005.172" transform="translate(-744.958 -1101.782)" fill="#dfe5ea"/>
        <path id="Path_17078" data-name="Path 17078" d="M871.691,467.33h-88.35a3.324,3.324,0,0,1,1.012-1.43.168.168,0,0,1,.022-.016l.172-.132,40.933-31.072a3.364,3.364,0,0,1,4.073,0l40.93,31.072s0,0,0,0l.172.132a.152.152,0,0,1,.022.016c.046.035.086.073.127.11s.062.057.091.086a2.934,2.934,0,0,1,.258.285q.056.069.1.137a3.12,3.12,0,0,1,.353.619c.027.059.051.121.075.183,0,0,0,.005,0,.008" transform="translate(-749.349 -415.162)" fill="#5b97ef"/>
        <path id="Path_17079" data-name="Path 17079" d="M977.443,646.759h-77.1V576.8a5.951,5.951,0,0,1,5.951-5.951h65.2a5.951,5.951,0,0,1,5.951,5.951Z" transform="translate(-861.273 -546.078)" fill="#fff"/>
        <path id="Path_17080" data-name="Path 17080" d="M1160.782,880.775h-56.653a1.447,1.447,0,0,1-1.443-1.443v-.614a1.447,1.447,0,0,1,1.443-1.443h56.653a1.447,1.447,0,0,1,1.443,1.443v.614a1.447,1.447,0,0,1-1.443,1.443" transform="translate(-1054.836 -839.206)" fill="#e4ecf9"/>
        <path id="Path_17081" data-name="Path 17081" d="M1160.782,1053.066h-56.653a1.447,1.447,0,0,1-1.443-1.443v-.614a1.447,1.447,0,0,1,1.443-1.443h56.653a1.447,1.447,0,0,1,1.443,1.443v.614a1.447,1.447,0,0,1-1.443,1.443" transform="translate(-1054.836 -1004.021)" fill="#e4ecf9"/>
        <path id="Path_17082" data-name="Path 17082" d="M1160.782,1225.359h-56.653a1.447,1.447,0,0,1-1.443-1.443v-.614a1.447,1.447,0,0,1,1.443-1.443h56.653a1.447,1.447,0,0,1,1.443,1.443v.614a1.447,1.447,0,0,1-1.443,1.443" transform="translate(-1054.836 -1168.837)" fill="#e4ecf9"/>
        <path id="Path_17083" data-name="Path 17083" d="M1160.782,1397.65h-56.653a1.447,1.447,0,0,1-1.443-1.443v-.613a1.447,1.447,0,0,1,1.443-1.443h56.653a1.447,1.447,0,0,1,1.443,1.443v.613a1.447,1.447,0,0,1-1.443,1.443" transform="translate(-1054.836 -1333.652)" fill="#e4ecf9"/>
        <path id="Path_17084" data-name="Path 17084" d="M1160.782,1569.941h-56.653a1.447,1.447,0,0,1-1.443-1.443v-.614a1.447,1.447,0,0,1,1.443-1.443h56.653a1.447,1.447,0,0,1,1.443,1.443v.614a1.447,1.447,0,0,1-1.443,1.443" transform="translate(-1054.836 -1498.466)" fill="#e4ecf9"/>
        <path id="Path_17085" data-name="Path 17085" d="M823.128,1179.568v0a2.171,2.171,0,0,1-.458.377l-40.41,24.934h-.183a3.249,3.249,0,0,1-.964-.143l-.126-.04a3.293,3.293,0,0,1-1.37-.907c-.035-.038-.07-.078-.1-.121a3.09,3.09,0,0,1-.277-.391c-.03-.046-.054-.091-.081-.137s-.051-.1-.073-.146a3.308,3.308,0,0,1-.328-1.44v-46.47a3.312,3.312,0,0,1,1.211-2.566.185.185,0,0,1,.022-.016l.172-.132a3.3,3.3,0,0,1,1.919-.611h.759l3.548,2.189,32.708,20.182,1.23.759,2.347,1.448a2.171,2.171,0,0,1,.458.377v0a2.127,2.127,0,0,1,0,2.848" transform="translate(-744.959 -1101.782)" fill="#3b82f4"/>
        <path id="Path_17086" data-name="Path 17086" d="M1833.634,1155.087v46.47c0,.056,0,.113-.005.172,0,.027,0,.054-.005.081a.78.78,0,0,1-.005.078c0,.011,0,.022,0,.032s-.005.035-.008.051c0,.04-.011.081-.016.121s-.014.078-.021.116c0,.005,0,.014,0,.019a.284.284,0,0,1-.011.038.124.124,0,0,1-.008.043.438.438,0,0,1-.014.057c-.008.035-.016.068-.027.1a.047.047,0,0,1-.005.019,1.764,1.764,0,0,1-.056.175.01.01,0,0,1,0,.008c-.011.03-.019.057-.032.086s-.019.048-.03.075a.155.155,0,0,0-.008.022c-.032.073-.065.148-.1.218-.011.021-.024.048-.038.073l-.04.07c-.014.021-.024.046-.04.067-.027.046-.057.092-.086.135s-.038.054-.054.081c-.046.062-.092.118-.137.175s-.07.083-.1.121-.073.078-.111.116c-.016.019-.035.035-.054.054a.432.432,0,0,1-.051.046c-.019.019-.04.038-.062.057l-.019.016c-.051.046-.1.089-.159.129a.068.068,0,0,0-.016.013c-.043.03-.086.062-.132.092-.016.011-.03.022-.043.03s-.049.032-.073.046a.393.393,0,0,1-.059.035c-.021.014-.043.027-.064.038a3.027,3.027,0,0,1-.474.218c-.011,0-.021.008-.03.011l-.035.011c-.038.014-.076.027-.116.038-.067.021-.135.038-.2.054l-.1.024a.542.542,0,0,1-.067.011l-.084.016h-.008c-.024,0-.049.008-.07.011l-.032,0-.059.008c-.011,0-.021,0-.035,0l-.124.008c-.059,0-.118.005-.177.005h-.183l-40.41-24.934a2.088,2.088,0,0,1-.455-.377v0a2.122,2.122,0,0,1,0-2.848v0a2.088,2.088,0,0,1,.455-.377l2.345-1.448,1.23-.759L1826,1153.951l3.548-2.189h.759a2.257,2.257,0,0,1,.237.011.118.118,0,0,1,.043,0c.075.005.153.014.226.024l.051.008c.065.011.129.024.191.04a.278.278,0,0,1,.048.011c.078.019.154.04.229.064s.143.048.21.075a2.711,2.711,0,0,1,.282.132,1.686,1.686,0,0,1,.151.081,2.163,2.163,0,0,1,.248.162s0,0,0,0l.172.132a.163.163,0,0,1,.021.016c.046.035.086.073.127.11s.062.057.092.086a2.918,2.918,0,0,1,.259.286q.056.069.1.137a3.133,3.133,0,0,1,.353.619c.027.059.051.121.075.183,0,0,0,.005,0,.008a3.135,3.135,0,0,1,.094.3c.013.051.024.1.035.151s.016.078.022.119.013.081.019.121a1.37,1.37,0,0,1,.016.145.984.984,0,0,1,.008.124c0,.057.005.116.005.172" transform="translate(-1711.092 -1101.782)" fill="#3b82f4"/>
        <g id="Group_14061" data-name="Group 14061" transform="translate(33.793 70.716)" opacity="0.29">
          <g id="Group_14060" data-name="Group 14060">
            <g id="Group_14059" data-name="Group 14059" clip-path="url(#clip-path-3)">
              <path id="Path_17087" data-name="Path 17087" d="M867.5,1658.043v.483a3.4,3.4,0,0,1-3.325,3.47h-82.1a3.4,3.4,0,0,1-3.325-3.47v-.483l42.227-27.783a3.881,3.881,0,0,1,4.291,0Z" transform="translate(-778.751 -1629.613)" fill="#474747"/>
            </g>
          </g>
        </g>
        <path id="Path_17088" data-name="Path 17088" d="M867.5,1688.182v.463a3.325,3.325,0,0,1-3.325,3.325h-82.1a3.325,3.325,0,0,1-3.325-3.325v-.463l42.227-26.616a4.024,4.024,0,0,1,4.291,0Z" transform="translate(-744.958 -1588.87)" fill="#5b97ef"/>
        <path id="Path_17089" data-name="Path 17089" d="M1128.837,708.484H1104.13a1.447,1.447,0,0,1-1.443-1.443v-.614a1.447,1.447,0,0,1,1.443-1.443h24.707a1.447,1.447,0,0,1,1.443,1.443v.614a1.447,1.447,0,0,1-1.443,1.443" transform="translate(-1054.837 -674.392)" fill="#3b82f4"/>
        <path id="Path_17090" data-name="Path 17090" d="M61.771,772.084h-.022c-.984-.039-1.975-.124-2.945-.253a.545.545,0,1,1,.143-1.08c.937.124,1.894.206,2.845.244a.545.545,0,0,1-.021,1.089m2.9-.014a.545.545,0,0,1-.026-1.089c.94-.046,1.9-.133,2.848-.26a.545.545,0,1,1,.144,1.08c-.98.131-1.969.221-2.939.269h-.027m-8.658-.752a.556.556,0,0,1-.123-.014c-.955-.22-1.913-.488-2.847-.8a.545.545,0,1,1,.343-1.034c.9.3,1.826.558,2.748.77a.545.545,0,0,1-.122,1.076m14.414-.011a.545.545,0,0,1-.114-1.078c.924-.2,1.858-.437,2.777-.707a.545.545,0,1,1,.308,1.045c-.945.279-1.905.523-2.856.727a.538.538,0,0,1-.115.012m5.575-1.636a.545.545,0,0,1-.191-1.055c.89-.332,1.783-.7,2.653-1.094a.545.545,0,0,1,.45.993c-.893.4-1.809.782-2.722,1.123a.55.55,0,0,1-.19.034M50.5,769.5a.547.547,0,0,1-.214-.044c-.882-.378-1.778-.8-2.664-1.26a.545.545,0,1,1,.5-.968c.863.446,1.735.859,2.593,1.226A.545.545,0,0,1,50.5,769.5m30.8-2.227a.545.545,0,0,1-.26-1.024c.766-.414,1.5-.842,2.167-1.271a.545.545,0,0,1,.587.918c-.694.444-1.446.885-2.235,1.312a.541.541,0,0,1-.259.066m-35.961-.438a.542.542,0,0,1-.282-.079c-.844-.512-1.673-1.055-2.464-1.613a.545.545,0,1,1,.628-.89c.771.544,1.578,1.072,2.4,1.571a.545.545,0,0,1-.283,1.011m-4.746-3.356a.543.543,0,0,1-.346-.125c-.739-.608-1.446-1.24-2.106-1.879a.553.553,0,0,1,.57-.947,24.656,24.656,0,0,0,2.665.446.545.545,0,0,1-.12,1.083q-.505-.056-1.013-.133.343.3.7.589a.545.545,0,0,1-.347.965m3.623-1.27a.545.545,0,0,1,0-1.09c.759-.006,1.525-.051,2.278-.13.154-.016.336-.036.562-.063a.545.545,0,1,1,.129,1.082c-.231.028-.417.048-.553.062q-1.216.129-2.407.139Zm5.773-.673a.545.545,0,0,1-.112-1.078c.949-.2,1.881-.44,2.769-.714a.545.545,0,0,1,.321,1.042c-.92.283-1.884.532-2.866.739a.539.539,0,0,1-.113.012m-14.325-.771a.543.543,0,0,1-.181-.031,27.265,27.265,0,0,1-2.738-1.135.545.545,0,0,1,.472-.983,26.079,26.079,0,0,0,2.628,1.09.545.545,0,0,1-.181,1.059m19.874-.954a.545.545,0,0,1-.215-1.046,21.836,21.836,0,0,0,2.529-1.281.545.545,0,1,1,.557.937,22.912,22.912,0,0,1-2.656,1.345.545.545,0,0,1-.215.044m-19.088-.4a.544.544,0,0,1-.417-.194,25.141,25.141,0,0,1-1.776-2.379.545.545,0,0,1,.911-.6,24.081,24.081,0,0,0,1.7,2.276.545.545,0,0,1-.417.9m-6.017-1.156a.544.544,0,0,1-.286-.081,28.089,28.089,0,0,1-2.433-1.69.545.545,0,1,1,.668-.861,27.03,27.03,0,0,0,2.338,1.624.545.545,0,0,1-.287,1.008m30.07-1.434a.545.545,0,0,1-.351-.962,14.342,14.342,0,0,0,1.959-1.991.545.545,0,0,1,.85.683,15.455,15.455,0,0,1-2.108,2.143.542.542,0,0,1-.35.128M25.85,754.7a.543.543,0,0,1-.378-.152,27.415,27.415,0,0,1-2.021-2.167.545.545,0,1,1,.836-.7,26.455,26.455,0,0,0,1.941,2.08.545.545,0,0,1-.378.937m7.444-.149a.545.545,0,0,1-.494-.315,17.378,17.378,0,0,1-1.031-2.812.545.545,0,0,1,1.052-.283,16.293,16.293,0,0,0,.966,2.635.545.545,0,0,1-.494.775m30.8-2.236a.545.545,0,0,1-.488-.786,12.908,12.908,0,0,0,.913-2.458l.039-.154a.545.545,0,0,1,1.057.264l-.042.164a13.984,13.984,0,0,1-.991,2.666.545.545,0,0,1-.489.3m-41.964-2.066a.544.544,0,0,1-.455-.244,26.079,26.079,0,0,1-1.495-2.562.545.545,0,0,1,.971-.494,25.006,25.006,0,0,0,1.432,2.455.545.545,0,0,1-.454.846m9.687-1.279a.545.545,0,0,1-.543-.51c-.02-.31-.03-.625-.03-.937a14.66,14.66,0,0,1,.148-2.073.545.545,0,0,1,1.079.155,13.552,13.552,0,0,0-.137,1.918c0,.288.009.58.028.867a.545.545,0,0,1-.509.579H31.82M65.5,746.722h-.024a.545.545,0,0,1-.521-.568q.014-.315.014-.631a15.4,15.4,0,0,0-.155-2.166.545.545,0,1,1,1.079-.154,16.5,16.5,0,0,1,.166,2.319q0,.339-.014.679a.545.545,0,0,1-.544.521m-46-1.64a.545.545,0,0,1-.51-.354,26.893,26.893,0,0,1-.88-2.831.545.545,0,1,1,1.057-.266,25.791,25.791,0,0,0,.844,2.716.545.545,0,0,1-.51.735m13.119-1.829a.545.545,0,0,1-.516-.72,19.765,19.765,0,0,1,1.178-2.744.545.545,0,0,1,.967.5,18.665,18.665,0,0,0-1.113,2.592.545.545,0,0,1-.516.37M64.7,741a.545.545,0,0,1-.518-.378,17.549,17.549,0,0,0-1.078-2.6.545.545,0,1,1,.97-.5,18.664,18.664,0,0,1,1.145,2.763A.545.545,0,0,1,64.7,741M18.08,739.457a.545.545,0,0,1-.539-.468,29.556,29.556,0,0,1-.266-2.948A.545.545,0,0,1,18.364,736a28.424,28.424,0,0,0,.256,2.838.545.545,0,0,1-.463.616.568.568,0,0,1-.077.005m17.2-1.353a.545.545,0,0,1-.445-.859,23.55,23.55,0,0,1,1.863-2.318.545.545,0,1,1,.8.735,22.512,22.512,0,0,0-1.777,2.21.544.544,0,0,1-.446.232m26.787-2.262a.545.545,0,0,1-.44-.223,17.206,17.206,0,0,0-1.842-2.128.545.545,0,0,1,.762-.779,18.287,18.287,0,0,1,1.959,2.263.545.545,0,0,1-.439.867m-22.875-2.019a.545.545,0,0,1-.353-.96,21.973,21.973,0,0,1,2.4-1.769.545.545,0,0,1,.585.919,20.852,20.852,0,0,0-2.277,1.681.542.542,0,0,1-.352.129m-21.343-.164h-.032a.545.545,0,0,1-.513-.575,29.417,29.417,0,0,1,.316-2.944.545.545,0,1,1,1.076.172,28.342,28.342,0,0,0-.3,2.834.545.545,0,0,1-.544.514m40.072-1.852a.543.543,0,0,1-.305-.094,14.166,14.166,0,0,0-2.453-1.336.545.545,0,1,1,.422-1,15.262,15.262,0,0,1,2.642,1.439.545.545,0,0,1-.306,1m-13.835-1.08a.545.545,0,0,1-.219-1.044,17.158,17.158,0,0,1,2.836-.966.545.545,0,1,1,.257,1.059,16.065,16.065,0,0,0-2.655.9.541.541,0,0,1-.219.046m8.51-1.137a.543.543,0,0,1-.1-.009,12.691,12.691,0,0,0-2.273-.2c-.154,0-.334,0-.5.01a.545.545,0,1,1-.042-1.089c.181-.007.375,0,.544-.01a13.784,13.784,0,0,1,2.468.222.545.545,0,0,1-.1,1.081m-33.811-1.657a.545.545,0,0,1-.525-.692,27.6,27.6,0,0,1,.955-2.8.545.545,0,0,1,1.011.407,26.458,26.458,0,0,0-.917,2.692.545.545,0,0,1-.524.4m2.159-5.38a.545.545,0,0,1-.481-.8,28.812,28.812,0,0,1,1.521-2.54.545.545,0,0,1,.9.607,27.759,27.759,0,0,0-1.463,2.443.545.545,0,0,1-.482.29m3.23-4.821a.545.545,0,0,1-.42-.892c.623-.754,1.294-1.49,1.993-2.186a.545.545,0,0,1,.769.772c-.674.672-1.321,1.382-1.922,2.109a.543.543,0,0,1-.42.2m4.11-4.1a.545.545,0,0,1-.347-.965c.754-.622,1.549-1.22,2.363-1.776a.545.545,0,1,1,.615.9c-.787.538-1.556,1.116-2.284,1.717a.542.542,0,0,1-.347.125m4.794-3.278a.545.545,0,0,1-.267-1.02c.852-.478,1.74-.926,2.637-1.331a.545.545,0,1,1,.449.993c-.869.393-1.728.826-2.553,1.289a.542.542,0,0,1-.266.07m5.293-2.393a.545.545,0,0,1-.182-1.059c.921-.325,1.87-.616,2.821-.866a.545.545,0,0,1,.276,1.054c-.921.241-1.841.524-2.733.839a.545.545,0,0,1-.182.031" transform="translate(-16.525 -675.381)" fill="#f4b545"/>
        <g id="Group_14064" data-name="Group 14064" transform="translate(7.907 17.535)" opacity="0.1">
          <g id="Group_14063" data-name="Group 14063">
            <g id="Group_14062" data-name="Group 14062" clip-path="url(#clip-path-4)">
              <path id="Path_17091" data-name="Path 17091" d="M223.314,404.076,182.2,409.561l9.967,7.56.156,13.914,8.589-7.3,4.826,3.639Z" transform="translate(-182.203 -404.076)" fill="#232323"/>
            </g>
          </g>
        </g>
        <path id="Path_17092" data-name="Path 17092" d="M431.128,411.589l-.228-20.325,31.216-6.635Z" transform="translate(-412.201 -367.939)" fill="#df384f"/>
        <path id="Path_17093" data-name="Path 17093" d="M212.908,397.726c.158-.079,31.076-13.1,31.076-13.1l-41.111,5.485Z" transform="translate(-194.07 -367.939)" fill="#f9415a"/>
        <path id="Path_17094" data-name="Path 17094" d="M439.473,728.064l-3.319,11.269,14.236-12.092Z" transform="translate(-417.227 -695.683)" fill="#be2f43"/>
        <path id="Path_17095" data-name="Path 17095" d="M512.641,400.321l10.1,7.612,17.572-23.3Z" transform="translate(-490.396 -367.939)" fill="#f9415a"/>
        <g id="Group_14067" data-name="Group 14067" transform="translate(91.652 54.101)" opacity="0.1">
          <g id="Group_14066" data-name="Group 14066">
            <g id="Group_14065" data-name="Group 14065" clip-path="url(#clip-path-5)">
              <path id="Path_17096" data-name="Path 17096" d="M2150.725,1247.624a.956.956,0,0,0-1.012-.891l-36.736,2.335a.956.956,0,0,0-.891,1.012l.949,14.922a.955.955,0,0,0,1.011.891l36.736-2.335a.956.956,0,0,0,.89-1.012Z" transform="translate(-2112.084 -1246.731)" fill="#232323"/>
            </g>
          </g>
        </g>
        <path id="Path_17097" data-name="Path 17097" d="M2172.193,1231.942l-36.736,2.335a.956.956,0,0,1-1.012-.891l-.948-14.923a.956.956,0,0,1,.891-1.012l36.736-2.335a.956.956,0,0,1,1.012.891l.948,14.923a.956.956,0,0,1-.891,1.011" transform="translate(-2040.913 -1162.387)" fill="#fff"/>
        <path id="Path_17098" data-name="Path 17098" d="M2564.584,1284.53l-16.031,1.019a.756.756,0,0,1-.8-.7l0-.038a.756.756,0,0,1,.7-.8l16.031-1.019a.755.755,0,0,1,.8.7l0,.038a.756.756,0,0,1-.7.8" transform="translate(-2437.192 -1227.313)" fill="#3b82f4"/>
        <path id="Path_17099" data-name="Path 17099" d="M2569.512,1362.036l-16.031,1.019a.756.756,0,0,1-.8-.7l0-.038a.756.756,0,0,1,.7-.8l16.031-1.019a.756.756,0,0,1,.8.7l0,.038a.756.756,0,0,1-.7.8" transform="translate(-2441.905 -1301.454)" fill="#ecf3fe"/>
        <path id="Path_17100" data-name="Path 17100" d="M2574.438,1439.542l-16.031,1.019a.756.756,0,0,1-.8-.7l0-.038a.756.756,0,0,1,.7-.8L2574.34,1438a.756.756,0,0,1,.8.7l0,.038a.756.756,0,0,1-.7.8" transform="translate(-2446.619 -1375.597)" fill="#ecf3fe"/>
        <path id="Path_17101" data-name="Path 17101" d="M2579.364,1517.047l-16.03,1.019a.756.756,0,0,1-.8-.7l0-.038a.756.756,0,0,1,.7-.8l16.031-1.019a.756.756,0,0,1,.8.7l0,.038a.755.755,0,0,1-.7.8" transform="translate(-2451.33 -1449.74)" fill="#ecf3fe"/>
        <path id="Path_17102" data-name="Path 17102" d="M2195.59,1295.079a7.076,7.076,0,1,1-7.51-6.612,7.076,7.076,0,0,1,7.51,6.612" transform="translate(-2086.79 -1232.541)" fill="#ecf3fe"/>
        <path id="Path_17103" data-name="Path 17103" d="M2278.983,1518.208a5.6,5.6,0,0,1-1.21.812,5.388,5.388,0,0,1-.694.289,5.5,5.5,0,0,1-.783.2,5.678,5.678,0,0,1-1.346.086,5.6,5.6,0,0,1-2.831-.953,3.262,3.262,0,0,1,1.865-1.705h0a3.055,3.055,0,0,1,.442-.121l.018,0a3.141,3.141,0,0,1,.409-.053l1.175-.075a3.179,3.179,0,0,1,.412,0l.019,0a3.064,3.064,0,0,1,.454.064h0a3.26,3.26,0,0,1,2.067,1.456" transform="translate(-2173.521 -1450.864)" fill="#727272"/>
        <path id="Path_17104" data-name="Path 17104" d="M2271.517,1324.426l.24,3.786a1.512,1.512,0,0,1-1.413,1.606l-3.559.226a1.513,1.513,0,0,1-1.605-1.414l-.241-3.786a3.083,3.083,0,0,1,3.085-3.42,3.917,3.917,0,0,1,1.718.261,2.8,2.8,0,0,1,1.743,2.42c.014.1.024.209.031.32" transform="translate(-2166.644 -1264.071)" fill="#302f2f"/>
        <path id="Path_17105" data-name="Path 17105" d="M2326.482,1485.818l.071,1.113a1.033,1.033,0,0,1-2.032.129l-.071-1.113a.771.771,0,0,1,.176-.533.905.905,0,0,1,.094-.1,1.007,1.007,0,0,1,.223-.158,1.179,1.179,0,0,1,.951-.061,1.007,1.007,0,0,1,.24.128l.011.008a.929.929,0,0,1,.095.081.771.771,0,0,1,.242.506" transform="translate(-2223.58 -1420.581)" fill="#f4b698"/>
        <g id="Group_14070" data-name="Group 14070" transform="translate(98.876 58.771)" opacity="0.28">
          <g id="Group_14069" data-name="Group 14069">
            <g id="Group_14068" data-name="Group 14068" clip-path="url(#clip-path-6)">
              <path id="Path_17106" data-name="Path 17106" d="M2284.062,1356.819l.1,1.621a2.664,2.664,0,0,1-1.584,2.6l.027.428a2.627,2.627,0,0,1-.9.219l-.217.014a2.62,2.62,0,0,1-.918-.1l-.027-.427a2.666,2.666,0,0,1-1.9-2.378l-.1-1.621a2.664,2.664,0,0,1,2.482-2.806l.217-.014a2.638,2.638,0,0,1,1.684.473h0a2.655,2.655,0,0,1,1.133,2" transform="translate(-2278.54 -1354.345)"/>
            </g>
          </g>
        </g>
        <path id="Path_17107" data-name="Path 17107" d="M2283.452,1346.972l.129,2.036a2.64,2.64,0,0,1-.374,1.532l0,0a2.883,2.883,0,0,1-.207.3,2.674,2.674,0,0,1-1,.77,2.623,2.623,0,0,1-.9.219l-.217.014a2.623,2.623,0,0,1-.917-.1,2.666,2.666,0,0,1-1.9-2.378l-.129-2.026c0-.028,0-.056,0-.085a2.652,2.652,0,0,1,.8-1.995,2.7,2.7,0,0,1,.261-.224,2.635,2.635,0,0,1,1.42-.526l.217-.014a2.636,2.636,0,0,1,1.635.441,2.671,2.671,0,0,1,.649.61,2.636,2.636,0,0,1,.534,1.43" transform="translate(-2179.081 -1286.142)" fill="#f4b698"/>
        <path id="Path_17108" data-name="Path 17108" d="M2406.315,1403a1.064,1.064,0,0,1-.994,1.129l-.135-2.123a1.056,1.056,0,0,1,.42.058h0a1.063,1.063,0,0,1,.707.935" transform="translate(-2300.815 -1341.161)" fill="#f4b698"/>
        <path id="Path_17109" data-name="Path 17109" d="M2406.475,1411.951a.659.659,0,0,1-.616.7l-.083-1.314a.659.659,0,0,1,.7.615" transform="translate(-2301.379 -1350.09)" fill="#e29586"/>
        <path id="Path_17110" data-name="Path 17110" d="M2318.031,1518.353h0l-.621,2.76a5.621,5.621,0,0,1-.67.083,5.686,5.686,0,0,1-.676,0l-.965-2.659h0l.561-.036.021.019.943.859.829-.972.018-.022Z" transform="translate(-2214.636 -1452.465)" fill="#565656"/>
        <path id="Path_17111" data-name="Path 17111" d="M2256.1,1410.131l.135,2.123a1.064,1.064,0,0,1-.372-2.081l.049-.013.026-.005a1.025,1.025,0,0,1,.161-.024" transform="translate(-2157.25 -1348.939)" fill="#f4b698"/>
        <path id="Path_17112" data-name="Path 17112" d="M2264.439,1420.144a.659.659,0,0,0,.7.615l-.084-1.314a.658.658,0,0,0-.615.7" transform="translate(-2166.174 -1357.849)" fill="#e29586"/>
        <path id="Path_17113" data-name="Path 17113" d="M2386.78,1570.621a5.385,5.385,0,0,1-.694.289l-.015-.244Z" transform="translate(-2282.529 -1502.465)" fill="#565656"/>
        <g id="Group_14073" data-name="Group 14073" transform="translate(101.987 65.888)" opacity="0.2">
          <g id="Group_14072" data-name="Group 14072">
            <g id="Group_14071" data-name="Group 14071" clip-path="url(#clip-path-7)">
              <path id="Path_17114" data-name="Path 17114" d="M2350.254,1519.376l.824.509.583-1.539Z" transform="translate(-2350.253 -1518.346)" fill="#363636"/>
            </g>
          </g>
        </g>
        <path id="Path_17115" data-name="Path 17115" d="M2351.661,1516.285l-.6,1.487-.807-.458.846-.994.111-.129Z" transform="translate(-2248.266 -1450.398)" fill="#eee"/>
        <g id="Group_14076" data-name="Group 14076" transform="translate(100.462 66.074)" opacity="0.2">
          <g id="Group_14075" data-name="Group 14075">
            <g id="Group_14074" data-name="Group 14074" clip-path="url(#clip-path-8)">
              <path id="Path_17116" data-name="Path 17116" d="M2315.1,1522.643l.766,1.453.76-.61Z" transform="translate(-2315.102 -1522.642)" fill="#363636"/>
            </g>
          </g>
        </g>
        <path id="Path_17117" data-name="Path 17117" d="M2316.628,1520.184l-.741.556-.784-1.4.435-.15.126.114Z" transform="translate(-2214.64 -1453.267)" fill="#eee"/>
        <path id="Path_17118" data-name="Path 17118" d="M2376.7,1335.853c-1.969.268-1.894-1.533-1.743-2.42a2.8,2.8,0,0,1,1.743,2.42" transform="translate(-2271.827 -1275.569)" fill="#302f2f"/>
        <path id="Path_17119" data-name="Path 17119" d="M2271.615,1337.127a2.528,2.528,0,0,1-1.892,1.461c-1.227.078-3.128.939-3.11,2.164s-1.774-3.633,1.928-4.256,3.074.63,3.074.63" transform="translate(-2167.855 -1278.334)" fill="#302f2f"/>
        <g id="Group_14079" data-name="Group 14079" transform="translate(92.409 36.87)" opacity="0.1">
          <g id="Group_14078" data-name="Group 14078">
            <g id="Group_14077" data-name="Group 14077" clip-path="url(#clip-path-9)">
              <path id="Path_17120" data-name="Path 17120" d="M2170.7,864.914l-3.526-14.531a.956.956,0,0,0-1.151-.7l-35.772,8.68a.956.956,0,0,0-.7,1.151l3.526,14.531a.955.955,0,0,0,1.151.7l35.772-8.68a.956.956,0,0,0,.7-1.151" transform="translate(-2129.528 -849.655)" fill="#232323"/>
            </g>
          </g>
        </g>
        <path id="Path_17121" data-name="Path 17121" d="M2188.539,835.752l-35.772,8.68a.956.956,0,0,1-1.151-.7L2148.09,829.2a.956.956,0,0,1,.7-1.151l35.772-8.68a.956.956,0,0,1,1.151.7l3.526,14.531a.956.956,0,0,1-.7,1.151" transform="translate(-2054.849 -783.787)" fill="#f9415a"/>
        <path id="Path_17122" data-name="Path 17122" d="M2234.9,1010.789a7.01,7.01,0,1,1-8.466-5.16,7.01,7.01,0,0,1,8.466,5.16" transform="translate(-2124.698 -961.8)" fill="#fc7385"/>
        <path id="Path_17123" data-name="Path 17123" d="M2337.4,1241.453a1.108,1.108,0,0,1-.115.024h0a5.974,5.974,0,0,1-3.409-.281,3.3,3.3,0,0,1,1.579-2.125h0a2.952,2.952,0,0,1,.417-.2,3.223,3.223,0,0,1,.413-.131l1.154-.28a3.184,3.184,0,0,1,.426-.073h0a2.928,2.928,0,0,1,.461-.016,3.276,3.276,0,0,1,1.791.62,3.343,3.343,0,0,1,.54.49,6.007,6.007,0,0,1-2.809,1.849c-.051.017-.1.031-.156.044a.114.114,0,0,1-.024.008h0a.088.088,0,0,1-.033.008.07.07,0,0,1-.029.007,1.208,1.208,0,0,1-.121.034l-.029.007-.035.009-.01,0Z" transform="translate(-2232.599 -1184.632)" fill="#f9415a"/>
        <path id="Path_17124" data-name="Path 17124" d="M2298.946,1031.041s-1.309-3.816.806-4.41,2.855-1.347,3.41-1.291,1.807,3.508,1.839,4.232-6.055,1.469-6.055,1.469" transform="translate(-2198.802 -980.844)" fill="#db253e"/>
        <path id="Path_17125" data-name="Path 17125" d="M2378.262,1211.574l.265,1.092a1.04,1.04,0,0,1-1.994.484l-.265-1.092a.774.774,0,0,1,.082-.559.855.855,0,0,1,.075-.117,1.015,1.015,0,0,1,.193-.2,1.186,1.186,0,0,1,.933-.227,1.031,1.031,0,0,1,.261.085l.012.006a.952.952,0,0,1,.108.064.778.778,0,0,1,.329.46" transform="translate(-2273.133 -1158.392)" fill="#ffa8b4"/>
        <path id="Path_17126" data-name="Path 17126" d="M2319.869,1083.471l.386,1.59a2.684,2.684,0,0,1-1.117,2.856l.1.42a2.646,2.646,0,0,1-.852.374l-.213.052a2.649,2.649,0,0,1-.929.058l-.1-.419a2.684,2.684,0,0,1-2.3-2.026l-.386-1.59a2.683,2.683,0,0,1,1.971-3.218l.213-.052a2.659,2.659,0,0,1,1.753.175h0a2.675,2.675,0,0,1,1.472,1.781" transform="translate(-2213.954 -1034.511)" fill="#e67584"/>
        <path id="Path_17127" data-name="Path 17127" d="M2317.524,1073.839l.485,2a2.649,2.649,0,0,1-.058,1.46c-.023.072-.052.142-.081.211a2.354,2.354,0,0,1-.119.245,2.663,2.663,0,0,1-1.71,1.314l-.212.051a2.68,2.68,0,0,1-3.23-1.968l-.5-2.073a2.673,2.673,0,0,1,.448-2.117,2.445,2.445,0,0,1,.22-.267,2.647,2.647,0,0,1,1.318-.77l.212-.051a2.594,2.594,0,0,1,1.2-.009,2.02,2.02,0,0,1,.228.059,2.484,2.484,0,0,1,.269.1,2.672,2.672,0,0,1,1.531,1.818" transform="translate(-2211.709 -1025.286)" fill="#ffa8b4"/>
        <path id="Path_17128" data-name="Path 17128" d="M2439.829,1119.237a1.071,1.071,0,0,1-.788,1.294l-.505-2.082a1.07,1.07,0,0,1,.427-.016h0a1.072,1.072,0,0,1,.865.8" transform="translate(-2332.716 -1069.885)" fill="#f9415a"/>
        <path id="Path_17129" data-name="Path 17129" d="M2441.551,1128.328a.663.663,0,0,1-.489.8l-.312-1.289a.663.663,0,0,1,.8.488" transform="translate(-2334.835 -1078.88)" fill="#e67584"/>
        <path id="Path_17130" data-name="Path 17130" d="M2295.792,1149.376l.505,2.082a1.071,1.071,0,0,1-.732-2l.046-.021.026-.01a1.025,1.025,0,0,1,.155-.052" transform="translate(-2195.384 -1099.5)" fill="#f9415a"/>
        <path id="Path_17131" data-name="Path 17131" d="M2304.392,1159.312a.663.663,0,0,0,.8.488l-.313-1.289a.663.663,0,0,0-.488.8" transform="translate(-2204.376 -1108.238)" fill="#e67584"/>
        <path id="Path_17132" data-name="Path 17132" d="M2368.452,1076.6l.485,2a2.649,2.649,0,0,1-.058,1.46c-.023.072-.052.142-.081.211-.4-3.893-1.162-4.285-2.054-4.061-.961.238-1.466-.892-1.466-.892l1.376-.634a2.474,2.474,0,0,1,.268.1,2.672,2.672,0,0,1,1.531,1.818" transform="translate(-2262.636 -1028.048)" fill="#e67584"/>
        <path id="Path_17133" data-name="Path 17133" d="M2421.095,1241.554l.358.372-.678,1.318c-.051.017-.1.031-.156.044a.1.1,0,0,1-.024.008h0a.092.092,0,0,1-.033.008l.319-2.023v0l.053-.333v0l0-.034-.131-.539.78.8-.467.363Z" transform="translate(-2315.521 -1186.544)" fill="#bb1e33"/>
        <path id="Path_17134" data-name="Path 17134" d="M2382.325,1251.3l.029-.007c.042-.01.083-.02.121-.034a.074.074,0,0,0,.029-.007.1.1,0,0,0,.033-.008h0l.078-.238.413-1.282-.081-.333.184-.29-.229-.422a1.127,1.127,0,0,1-.037.11l0,.005v0a2.209,2.209,0,0,1-.569.884,1.31,1.31,0,0,1-.232.162,1.386,1.386,0,0,1-.384-.069,2.157,2.157,0,0,1-.805-.5l0,0a1.121,1.121,0,0,1-.083-.081l-.011.481.3.174.081.333.821.819.31.311,0,0Z" transform="translate(-2277.466 -1194.489)" fill="#fff"/>
        <path id="Path_17135" data-name="Path 17135" d="M2420.481,1240.028l.332.391-.834,1.363a.1.1,0,0,1-.025.008h0a.1.1,0,0,1-.033.008.073.073,0,0,1-.029.007l.307-1.941v0l.082-.52v0l0-.005-.131-.539.8.87-.51.314Z" transform="translate(-2314.88 -1185.037)" fill="#db253e"/>
        <path id="Path_17136" data-name="Path 17136" d="M2374.637,1254.035a1.056,1.056,0,0,1-.115.023h0l-1.254-.856.148-.494-.032-.005-.581-.109.326-1.071.114.47.017.068,0,0,.01.015,0,0,.206.281v0l1.214,1.656-.035.009-.01,0Z" transform="translate(-2269.834 -1197.215)" fill="#bb1e33"/>
        <path id="Path_17137" data-name="Path 17137" d="M2374.636,1252.528l-1.371-.832.116-.5.015-.063-.6-.046.309-1.139.017.068.114.47,0,0,.314.428v0l1.164,1.589-.029.007-.035.009-.01,0Z" transform="translate(-2269.833 -1195.708)" fill="#db253e"/>
        <path id="Path_17138" data-name="Path 17138" d="M2310.487,1064.118a14.07,14.07,0,0,0-1.647-.016,4.645,4.645,0,0,0-1.038.411,5.046,5.046,0,0,0-1.09.965l-.076.3a.927.927,0,0,0-.114.24c0,.026,0,.112.006.19l-.063.25c.015-.01.051-.031.094-.061l.118.2a2.305,2.305,0,0,1,.558-.791,2.132,2.132,0,0,1,1.908-.312,4.279,4.279,0,0,0,2.89-.383Z" transform="translate(-2206.377 -1017.903)" fill="#f9415a"/>
        <path id="Path_17139" data-name="Path 17139" d="M2577.539,896.084l-15.61,3.788a.756.756,0,0,1-.91-.555l-.009-.037a.756.756,0,0,1,.555-.91l15.61-3.788a.756.756,0,0,1,.91.555l.009.037a.755.755,0,0,1-.554.91" transform="translate(-2449.856 -855.742)" fill="#db253e"/>
        <path id="Path_17140" data-name="Path 17140" d="M2595.852,971.557l-15.61,3.788a.756.756,0,0,1-.91-.555l-.009-.037a.756.756,0,0,1,.555-.91l15.61-3.788a.756.756,0,0,1,.91.555l.009.037a.756.756,0,0,1-.555.91" transform="translate(-2467.375 -927.94)" fill="#fc7385"/>
        <path id="Path_17141" data-name="Path 17141" d="M2614.164,1047.029l-15.61,3.788a.756.756,0,0,1-.91-.555l-.009-.037a.756.756,0,0,1,.554-.91l15.61-3.788a.756.756,0,0,1,.91.555l.009.037a.756.756,0,0,1-.555.91" transform="translate(-2484.892 -1000.137)" fill="#fc7385"/>
        <path id="Path_17142" data-name="Path 17142" d="M2632.477,1122.5l-15.61,3.788a.756.756,0,0,1-.91-.555l-.009-.037a.756.756,0,0,1,.555-.91l15.61-3.788a.756.756,0,0,1,.91.555l.009.037a.756.756,0,0,1-.555.91" transform="translate(-2502.41 -1072.334)" fill="#fc7385"/>
        <path id="Path_17143" data-name="Path 17143" d="M1998.21,1533.83q-.388,0-.776-.016a.545.545,0,1,1,.044-1.089,18.186,18.186,0,0,0,2.816-.1.545.545,0,0,1,.124,1.083,19.456,19.456,0,0,1-2.208.127m-3.634-.375a.531.531,0,0,1-.113-.012,17.834,17.834,0,0,1-2.865-.862.545.545,0,1,1,.4-1.014,16.7,16.7,0,0,0,2.689.81.545.545,0,0,1-.112,1.078m8.633-.286a.545.545,0,0,1-.138-1.072,21.835,21.835,0,0,0,2.688-.9.545.545,0,0,1,.411,1.009,22.98,22.98,0,0,1-2.822.942.55.55,0,0,1-.139.018m-14.013-1.832a.543.543,0,0,1-.278-.077,20.9,20.9,0,0,1-2.444-1.709.545.545,0,0,1,.686-.847,19.782,19.782,0,0,0,2.315,1.62.545.545,0,0,1-.279,1.013m19.389-.344a.545.545,0,0,1-.265-1.022,24.945,24.945,0,0,0,2.4-1.519.545.545,0,1,1,.634.887,26.149,26.149,0,0,1-2.508,1.585.541.541,0,0,1-.264.068m-23.9-3.29a.543.543,0,0,1-.393-.168,27.294,27.294,0,0,1-1.931-2.252.545.545,0,0,1,.864-.664,26.113,26.113,0,0,0,1.854,2.162.545.545,0,0,1-.393.922m28.623-.081a.545.545,0,0,1-.365-.949,24.509,24.509,0,0,0,2-2.022.545.545,0,0,1,.819.719,25.528,25.528,0,0,1-2.087,2.112.544.544,0,0,1-.365.14m1.873-3.237a.545.545,0,0,1-.052-1.087,13.311,13.311,0,0,0,1.569-.25.546.546,0,0,1-.023-.641,19.376,19.376,0,0,0,1.408-2.448.545.545,0,1,1,.983.47,20.274,20.274,0,0,1-1.327,2.347l.124-.038a.545.545,0,0,1,.325,1.041,14.729,14.729,0,0,1-2.952.6l-.053,0m-2.9-.042a.543.543,0,0,1-.07,0,15.505,15.505,0,0,1-2.931-.685.545.545,0,0,1,.346-1.034,14.406,14.406,0,0,0,2.724.638.545.545,0,0,1-.069,1.085m-31.146-1.237a.544.544,0,0,1-.463-.256c-.528-.847-1.015-1.717-1.447-2.585a.545.545,0,0,1,.976-.485c.416.837.886,1.676,1.4,2.493a.545.545,0,0,1-.462.833m39.562-.426a.545.545,0,0,1-.256-1.026,16.788,16.788,0,0,0,2.36-1.526.545.545,0,1,1,.665.863,17.9,17.9,0,0,1-2.514,1.625.543.543,0,0,1-.255.064m-13.908-.155a.541.541,0,0,1-.259-.066,15.817,15.817,0,0,1-2.5-1.672.545.545,0,0,1,.692-.842,14.736,14.736,0,0,0,2.327,1.556.545.545,0,0,1-.26,1.024m18.5-3.367a.545.545,0,0,1-.395-.92,19.566,19.566,0,0,0,1.789-2.185.545.545,0,1,1,.89.628,20.631,20.631,0,0,1-1.89,2.307.543.543,0,0,1-.4.17m-22.93-.328a.544.544,0,0,1-.434-.215,10.643,10.643,0,0,1-1.487-2.664.545.545,0,0,1,1.019-.385,9.531,9.531,0,0,0,1.336,2.39.545.545,0,0,1-.434.875m17.237-.807a.545.545,0,0,1-.526-.689,12.591,12.591,0,0,0,.447-2.743.545.545,0,1,1,1.089.051,13.7,13.7,0,0,1-.484,2.98.545.545,0,0,1-.525.4m9.039-3.594a.545.545,0,0,1-.484-.795,21.738,21.738,0,0,0,1.131-2.6.545.545,0,1,1,1.026.369,22.757,22.757,0,0,1-1.188,2.727.544.544,0,0,1-.484.295m-28.276-.957a.545.545,0,0,1-.544-.519q-.012-.252-.012-.5a11.118,11.118,0,0,1,.3-2.529.545.545,0,1,1,1.061.248,10.06,10.06,0,0,0-.27,2.281c0,.151,0,.3.011.451a.545.545,0,0,1-.518.571h-.027m19.472-1.2a.546.546,0,0,1-.534-.438,14.717,14.717,0,0,0-.816-2.678.545.545,0,1,1,1.009-.413,15.839,15.839,0,0,1,.876,2.877.546.546,0,0,1-.428.641.558.558,0,0,1-.108.011m-18.2-4.4a.545.545,0,0,1-.485-.792,13.179,13.179,0,0,1,1.672-2.523.545.545,0,1,1,.833.7,12.069,12.069,0,0,0-1.533,2.314.545.545,0,0,1-.486.3m16.019-.951a.543.543,0,0,1-.459-.251,13.407,13.407,0,0,0-1.73-2.185.545.545,0,0,1,.776-.765,14.471,14.471,0,0,1,1.871,2.363.545.545,0,0,1-.458.839m-12.286-3.434a.545.545,0,0,1-.315-.99,9.491,9.491,0,0,1,2.751-1.36.545.545,0,1,1,.312,1.044,8.419,8.419,0,0,0-2.434,1.207.543.543,0,0,1-.314.1m8.2-.615a.538.538,0,0,1-.266-.07,6.941,6.941,0,0,0-2.535-.857.545.545,0,0,1,.134-1.081,8.02,8.02,0,0,1,2.932.988.545.545,0,0,1-.267,1.02" transform="translate(-1893.281 -1435.727)" fill="#52d1bd"/>
        <g id="Group_14082" data-name="Group 14082" transform="translate(127.311 58.242)" opacity="0.1">
          <g id="Group_14081" data-name="Group 14081">
            <g id="Group_14080" data-name="Group 14080" clip-path="url(#clip-path-10)">
              <path id="Path_17144" data-name="Path 17144" d="M2955.016,1353.526a10.617,10.617,0,1,0-11.344,9.837,10.617,10.617,0,0,0,11.344-9.837" transform="translate(-2933.809 -1342.156)" fill="#232323"/>
            </g>
          </g>
        </g>
        <path id="Path_17145" data-name="Path 17145" d="M3007.021,1324.3a10.617,10.617,0,1,1-9.836-11.344,10.616,10.616,0,0,1,9.836,11.344" transform="translate(-2856.247 -1255.953)" fill="#f9415a"/>
        <path id="Path_17146" data-name="Path 17146" d="M3068.744,1392.866l.251-.834,2.015.143-1.55,5.391a4.4,4.4,0,0,0-.156.68.4.4,0,0,0,.068.281.272.272,0,0,0,.2.114,1.9,1.9,0,0,0,1.1-.463,4.673,4.673,0,0,0,1.241-1.385,4.484,4.484,0,0,0,.4-3.742,4.024,4.024,0,0,0-.9-1.476,4.666,4.666,0,0,0-1.556-1.047,6.658,6.658,0,0,0-2.163-.492,7.649,7.649,0,0,0-2.306.162,5.792,5.792,0,0,0-1.89.8,5.236,5.236,0,0,0-1.42,1.406,6.532,6.532,0,0,0-.833,1.675,7.714,7.714,0,0,0-.382,1.914,5.48,5.48,0,0,0,.352,2.438,4.876,4.876,0,0,0,1.389,1.932,6.258,6.258,0,0,0,2.334,1.217,10.139,10.139,0,0,0,3.182.353,7.592,7.592,0,0,0,2.439-.471,4.722,4.722,0,0,0,1.755-1.21l1.626.116a5.41,5.41,0,0,1-1.138,1.384,5.88,5.88,0,0,1-1.569.974,7.792,7.792,0,0,1-1.964.531,11.007,11.007,0,0,1-2.329.065,10.87,10.87,0,0,1-3.347-.733,6.954,6.954,0,0,1-2.429-1.6,6.031,6.031,0,0,1-1.4-2.324,7.444,7.444,0,0,1-.325-2.881,8.433,8.433,0,0,1,.758-3,7,7,0,0,1,4.34-3.8,8.677,8.677,0,0,1,3.282-.357,8.029,8.029,0,0,1,2.63.613,5.909,5.909,0,0,1,1.985,1.365,5.317,5.317,0,0,1,1.183,1.975,6.191,6.191,0,0,1,.283,2.433,5.787,5.787,0,0,1-1.684,3.666,5.116,5.116,0,0,1-1.7,1.122,4.463,4.463,0,0,1-2.024.313,1.848,1.848,0,0,1-.947-.278,1.038,1.038,0,0,1-.41-.7,2.968,2.968,0,0,1-1.586.72,2.853,2.853,0,0,1-1.66-.279,2.789,2.789,0,0,1-1.229-1.211,3.551,3.551,0,0,1-.362-1.974,5.77,5.77,0,0,1,.683-2.322,4.884,4.884,0,0,1,1.6-1.8,3.416,3.416,0,0,1,2.2-.588,2.205,2.205,0,0,1,1.941,1.174m-4.457,3.657a2.247,2.247,0,0,0,.282,1.432,1.212,1.212,0,0,0,.966.56,1.7,1.7,0,0,0,1.3-.483,3.722,3.722,0,0,0,.931-1.388,5.5,5.5,0,0,0,.4-1.671,2.6,2.6,0,0,0-.043-.736,1.738,1.738,0,0,0-.242-.589,1.24,1.24,0,0,0-.424-.4,1.373,1.373,0,0,0-.59-.169,1.7,1.7,0,0,0-1.247.437,3.423,3.423,0,0,0-.925,1.3,5.256,5.256,0,0,0-.413,1.708" transform="translate(-2926.668 -1328.352)" fill="#fff"/>
        <path id="Path_17147" data-name="Path 17147" d="M2447.223,187.024l1.148-.6a.354.354,0,0,1,.514.374l-.219,1.278a.354.354,0,0,0,.1.314l.928.9a.354.354,0,0,1-.2.6l-1.283.186a.353.353,0,0,0-.267.194l-.574,1.163a.354.354,0,0,1-.635,0l-.574-1.163a.355.355,0,0,0-.267-.194l-1.283-.186a.354.354,0,0,1-.2-.6l.929-.9a.355.355,0,0,0,.1-.314l-.219-1.278a.355.355,0,0,1,.514-.374l1.147.6a.354.354,0,0,0,.33,0" transform="translate(-2338.243 -178.292)" fill="#4786d1"/>
        <path id="Path_17148" data-name="Path 17148" d="M293.354,2193.427a3.05,3.05,0,1,1,3.051-3.05,3.054,3.054,0,0,1-3.051,3.05m0-5.261a2.211,2.211,0,1,0,2.211,2.211,2.214,2.214,0,0,0-2.211-2.211" transform="translate(-277.706 -2092.409)" fill="#4786d1"/>
        <path id="Path_17149" data-name="Path 17149" d="M327.906,2223.377a1.554,1.554,0,1,1-1.554-1.553,1.554,1.554,0,0,1,1.554,1.553" transform="translate(-310.705 -2125.409)" fill="#4786d1"/>
        <path id="Path_17150" data-name="Path 17150" d="M1784.469,2614.366a1.4,1.4,0,1,1-1.4-1.4,1.4,1.4,0,0,1,1.4,1.4" transform="translate(-1704.35 -2499.576)" fill="#4786d1"/>
        <path id="Path_17151" data-name="Path 17151" d="M1248.145,47.872a1.4,1.4,0,1,1-1.4-1.4,1.4,1.4,0,0,1,1.4,1.4" transform="translate(-1191.3 -44.453)" fill="#4786d1"/>
      </g>
    </g>
  </g>
</svg>
