<svg xmlns="http://www.w3.org/2000/svg" width="38.459" height="42.994" viewBox="0 0 38.459 42.994">
  <path id="Exclusion_4" data-name="Exclusion 4" d="M-4179.4,42.994a9.866,9.866,0,0,1-9.855-9.855,9.865,9.865,0,0,1,9.855-9.853,9.865,9.865,0,0,1,9.854,9.853A9.866,9.866,0,0,1-4179.4,42.994Zm-.859-11.866v6.121a.765.765,0,0,0,.764.764.765.765,0,0,0,.764-.764V31.128l2.667,2.679a.757.757,0,0,0,.541.225.758.758,0,0,0,.539-.223.757.757,0,0,0,.225-.539.758.758,0,0,0-.222-.54l-3.971-3.99a.761.761,0,0,0-.542-.225.758.758,0,0,0-.54.224L-4184,32.73a.758.758,0,0,0-.222.541.755.755,0,0,0,.226.538.758.758,0,0,0,.539.223.758.758,0,0,0,.541-.225l2.664-2.678Zm-11.8,7.385h-12.31a3.614,3.614,0,0,1-2.577-1.061,3.632,3.632,0,0,1-1.06-2.585V3.688A3.667,3.667,0,0,1-4204.363,0h15.671V6.629a4.3,4.3,0,0,0,4.291,4.3h6.128v8.4l-.263-.021c-.28-.023-.5-.041-.758-.041a14.057,14.057,0,0,0-9.245,3.515h-13.045a.818.818,0,0,0-.818.817.818.818,0,0,0,.818.817h11.493a14.332,14.332,0,0,0-2.074,3.576h-9.419a.818.818,0,0,0-.818.817.818.818,0,0,0,.818.816h8.877a13.69,13.69,0,0,0-.439,3.495,13.739,13.739,0,0,0,1.092,5.392Zm-9.531-20.84a.819.819,0,0,0-.818.818.818.818,0,0,0,.818.817h10.348a.818.818,0,0,0,.817-.817.819.819,0,0,0-.817-.818Zm23.313-10.69h-4.337a2.308,2.308,0,0,1-2.3-2.31V0l6.637,6.981Z" transform="translate(4208)" fill="#b9bbc5"/>
</svg>
