<svg xmlns="http://www.w3.org/2000/svg" width="59.465" height="59.465" viewBox="0 0 59.465 59.465">
  <g id="Group_12334" data-name="Group 12334" transform="translate(-89.375 -231.875)">
    <path id="Path_16097" data-name="Path 16097" d="M55.129,0H4.336A4.341,4.341,0,0,0,0,4.336V10.53a4.341,4.341,0,0,0,4.336,4.336H55.129a4.341,4.341,0,0,0,4.336-4.336V4.336A4.341,4.341,0,0,0,55.129,0Z" transform="translate(89.375 231.875)" fill="#f9415a"/>
    <path id="Path_16098" data-name="Path 16098" d="M35.307,169.333H4.336A4.357,4.357,0,0,0,0,173.669V204.64a4.357,4.357,0,0,0,4.336,4.336H35.307a4.357,4.357,0,0,0,4.336-4.336V173.669a4.357,4.357,0,0,0-4.336-4.336Zm-15.486,9.911a3.717,3.717,0,1,1-3.717,3.717A3.712,3.712,0,0,1,19.822,179.244Zm7.433,15.486a1.872,1.872,0,0,1-1.858,1.858H14.247a1.872,1.872,0,0,1-1.858-1.858v-.917a4.95,4.95,0,0,1,5.2-4.658h4.46a4.95,4.95,0,0,1,5.2,4.658Z" transform="translate(89.375 82.363)" fill="#f9415a"/>
    <circle id="Ellipse_4" data-name="Ellipse 4" cx="7.433" cy="7.433" r="7.433" transform="translate(133.973 275.235)" fill="#acacac"/>
    <path id="Path_16099" data-name="Path 16099" d="M394.008,232.833h-11.15a1.858,1.858,0,0,0,0,3.717h11.15a1.858,1.858,0,1,0,0-3.717Z" transform="translate(-247.027 26.296)" fill="#acacac"/>
    <path id="Path_16100" data-name="Path 16100" d="M394.008,169.333h-11.15a1.858,1.858,0,0,0,0,3.717h11.15a1.858,1.858,0,0,0,0-3.717Z" transform="translate(-247.027 82.363)" fill="#acacac"/>
    <path id="Path_16101" data-name="Path 16101" d="M394.008,296.333h-11.15a1.858,1.858,0,0,0,0,3.717h11.15a1.858,1.858,0,0,0,0-3.717Z" transform="translate(-247.027 -29.77)" fill="#acacac"/>
  </g>
</svg>
