<svg xmlns="http://www.w3.org/2000/svg" width="76.425" height="63.715" viewBox="0 0 76.425 63.715">
  <g id="Group_12462" data-name="Group 12462" transform="translate(-93.625 -436)">
    <g id="communication_1_" data-name="communication (1)" transform="translate(93.625 441.792)">
      <path id="Path_16092" data-name="Path 16092" d="M11.546,158.814V149.5H10.175A10.186,10.186,0,0,0,0,159.675v30.461a1.914,1.914,0,0,0,3.267,1.353l7.126-7.126H39.774a10.186,10.186,0,0,0,10.175-10.175v-1.372h-24.4A14.018,14.018,0,0,1,11.546,158.814Z" transform="translate(0 -134.126)" fill="#acacac"/>
      <path id="Path_16093" data-name="Path 16093" d="M160.274,29h-29.6A10.186,10.186,0,0,0,120.5,39.175V53.687a10.186,10.186,0,0,0,10.175,10.175h29.381l7.126,7.126a1.914,1.914,0,0,0,3.267-1.353V39.175A10.186,10.186,0,0,0,160.274,29Zm-26.33,19.2a1.914,1.914,0,1,1,1.914-1.914A1.947,1.947,0,0,1,133.944,48.2Zm11.53,0a1.914,1.914,0,1,1,1.914-1.914A1.947,1.947,0,0,1,145.475,48.2Zm11.53,0a1.914,1.914,0,1,1,1.914-1.914A1.947,1.947,0,0,1,157,48.2Z" transform="translate(-105.126 -29)" fill="#f9415a"/>
    </g>
    <g id="Ellipse_3" data-name="Ellipse 3" transform="translate(148.169 436)" fill="#f9415a" stroke="#fff" stroke-width="3">
      <circle cx="10.941" cy="10.941" r="10.941" stroke="none"/>
      <circle cx="10.941" cy="10.941" r="9.441" fill="none"/>
    </g>
  </g>
</svg>
