<svg xmlns="http://www.w3.org/2000/svg" width="65.471" height="65.727" viewBox="0 0 65.471 65.727">
  <g id="schedule" transform="translate(-1)">
    <path id="Path_16094" data-name="Path 16094" d="M58.768,13.608a5.784,5.784,0,0,0-5.777-5.777H51.13v5.777a5.784,5.784,0,0,1-5.777,5.777,1.926,1.926,0,0,1,0-3.851,1.928,1.928,0,0,0,1.926-1.926V7.831H43.428V5.777a1.926,1.926,0,1,1,3.851,0V7.831H51.13V5.777a5.777,5.777,0,1,0-11.554,0V7.831H35.725v5.777a5.784,5.784,0,0,1-5.777,5.777,1.926,1.926,0,0,1,0-3.851,1.928,1.928,0,0,0,1.926-1.926V7.831H28.023V5.777a1.926,1.926,0,0,1,3.851,0V7.831h3.851V5.777a5.777,5.777,0,1,0-11.554,0V7.831H20.32v5.777a5.784,5.784,0,0,1-5.777,5.777,1.926,1.926,0,1,1,0-3.851,1.928,1.928,0,0,0,1.926-1.926V7.831H12.618V5.777a1.926,1.926,0,0,1,3.851,0V7.831H20.32V5.777a5.777,5.777,0,0,0-11.554,0V7.831H6.777A5.784,5.784,0,0,0,1,13.608v9.628H58.768Z" fill="#f9415a"/>
    <path id="Path_16095" data-name="Path 16095" d="M52.991,218.831a17.252,17.252,0,0,1,5.777.991V211H1v25.033a5.784,5.784,0,0,0,5.777,5.777h29.83A17.348,17.348,0,0,1,52.991,218.831Zm-7.7-3.98H49.14a1.926,1.926,0,1,1,0,3.851H45.289a1.926,1.926,0,0,1,0-3.851Zm-11.554,0h3.851a1.926,1.926,0,1,1,0,3.851H33.735a1.926,1.926,0,0,1,0-3.851ZM14.479,234.107H10.628a1.926,1.926,0,1,1,0-3.851h3.851a1.926,1.926,0,1,1,0,3.851Zm0-7.7H10.628a1.926,1.926,0,0,1,0-3.851h3.851a1.926,1.926,0,0,1,0,3.851Zm0-7.7H10.628a1.926,1.926,0,1,1,0-3.851h3.851a1.926,1.926,0,1,1,0,3.851Zm11.554,15.4H22.182a1.926,1.926,0,1,1,0-3.851h3.851a1.926,1.926,0,0,1,0,3.851Zm0-7.7H22.182a1.926,1.926,0,0,1,0-3.851h3.851a1.926,1.926,0,0,1,0,3.851Zm0-7.7H22.182a1.926,1.926,0,1,1,0-3.851h3.851a1.926,1.926,0,0,1,0,3.851Zm5.777,5.777a1.926,1.926,0,0,1,1.926-1.926h3.851a1.926,1.926,0,0,1,0,3.851H33.735A1.926,1.926,0,0,1,31.81,224.479Z" transform="translate(0 -183.913)" fill="#f9415a"/>
    <path id="Path_16096" data-name="Path 16096" d="M314.479,302a13.479,13.479,0,1,0,13.479,13.479A13.495,13.495,0,0,0,314.479,302Zm3.851,15.276h-3.851a1.926,1.926,0,0,1-1.926-1.926V311.5a1.926,1.926,0,1,1,3.851,0v1.926h1.926a1.926,1.926,0,0,1,0,3.851Z" transform="translate(-261.488 -263.231)" fill="#acacac"/>
  </g>
</svg>
