<svg id="paper" xmlns="http://www.w3.org/2000/svg" width="61.333" height="65.726" viewBox="0 0 61.333 65.726">
  <path id="Path_16148" data-name="Path 16148" d="M41,0H7.913A7.908,7.908,0,0,0,0,7.913v44.6a7.908,7.908,0,0,0,7.913,7.913H29.148l.633-3.539a8.013,8.013,0,0,1,2.187-4.23L48.916,35.737V7.913A7.908,7.908,0,0,0,41,0ZM11.51,11.51h11.51a2.877,2.877,0,0,1,0,5.755H11.51a2.877,2.877,0,1,1,0-5.755ZM25.9,40.283H11.51a2.877,2.877,0,1,1,0-5.755H25.9a2.877,2.877,0,1,1,0,5.755Zm11.51-11.51H11.51a2.877,2.877,0,1,1,0-5.755h25.9a2.877,2.877,0,0,1,0,5.755Z" transform="translate(0)" fill="#f9415a"/>
  <path id="Path_16149" data-name="Path 16149" d="M13.189,35.422A1.412,1.412,0,0,1,11.8,33.764l1-5.655a1.417,1.417,0,0,1,.391-.753L32.715,7.833c1.716-1.72,3.4-1.255,4.325-.333l2.328,2.328a3.3,3.3,0,0,1,0,4.658L19.842,34.011a1.391,1.391,0,0,1-.753.391l-5.655,1a1.345,1.345,0,0,1-.245.023Zm5.655-2.409h.019Z" transform="translate(21.002 30.304)" fill="#acacac"/>
</svg>
