<svg xmlns="http://www.w3.org/2000/svg" width="61.926" height="66.787" viewBox="0 0 61.926 66.787">
  <g id="Group_14508" data-name="Group 14508" transform="translate(-288.618 -834.035)">
    <g id="Iconly_Bold_Calendar" data-name="Iconly/Bold/Calendar" transform="translate(288.618 834.035)">
      <g id="Calendar" transform="translate(0 0)">
        <path id="Combined-Shape" d="M.02,20.259a15.875,15.875,0,0,1,2.5-9.4l.466-.68.038-.037.323-.379h0L3.69,9.37l.038-.04A12.254,12.254,0,0,1,5.863,7.586l.218-.138h0L6.3,7.32l.513-.3c.208-.1.434-.216.642-.314.151-.059.3-.136.454-.194.285-.12.588-.237.89-.335a1.55,1.55,0,0,1,.321-.117l.123-.049h0l.134-.049a21.647,21.647,0,0,1,4.234-.828l-.149.017V2.179a2.154,2.154,0,1,1,4.308,0v9.4a2.154,2.154,0,1,1-4.308,0V9.409a14.183,14.183,0,0,0-4.116,1.05c-3.4,1.528-5.015,4.437-5.169,9.047l-.012.742v1.158H49.683V20.219a13.2,13.2,0,0,0-1.25-6.179,7.878,7.878,0,0,0-3.954-3.61,13.713,13.713,0,0,0-3.347-.961l-.748-.091v2.194a2.154,2.154,0,0,1-4.308,0V9.217l-18.287,0V4.94H36.076V2.166a2.154,2.154,0,0,1,4.308-.032l0,3a20.779,20.779,0,0,1,3.1.546L44.5,5.97a1.685,1.685,0,0,1,.256.077c.113.04.208.08.321.117.3.1.58.216.87.335.167.059.321.136.451.194.226.1.457.216.642.314s.372.208.531.3.282.186.416.266a12.959,12.959,0,0,1,1.649,1.264l.5.479.023.04.352.373h0l.331.393.018.037a15.839,15.839,0,0,1,2.979,9.256l-.021.834v1.158h.021V44.6C53.845,54.718,48.2,59.828,37,59.828H16.819C5.649,59.828,0,54.718,0,44.6H0v-23.2H.02ZM39.235,42.617a2.51,2.51,0,0,0-2.491,2.542A2.543,2.543,0,0,0,39.235,47.7a2.543,2.543,0,0,0,0-5.084Zm-12.3-.027a2.556,2.556,0,0,0,0,5.111A2.511,2.511,0,0,0,29.4,45.132a2.557,2.557,0,0,0-2.465-2.542Zm-12.325,0a2.557,2.557,0,0,0,0,5.111,2.557,2.557,0,0,0,0-5.111ZM39.235,31.76A2.543,2.543,0,1,0,41.7,34.3,2.489,2.489,0,0,0,39.235,31.76Zm-12.3-.027a2.556,2.556,0,0,0,0,5.111A2.512,2.512,0,0,0,29.4,34.275a2.54,2.54,0,0,0-2.465-2.542Zm-12.3,0A2.533,2.533,0,0,0,12.145,34.3a2.467,2.467,0,1,0,2.491-2.569Z" transform="translate(0 0)" fill="#f9415a"/>
      </g>
    </g>
    <g id="Group_12454" data-name="Group 12454" transform="translate(321.905 872.183)">
      <g id="Group_12452" data-name="Group 12452">
        <g id="Group_12447" data-name="Group 12447">
          <circle id="Ellipse_52" data-name="Ellipse 52" cx="14.32" cy="14.32" r="14.32" transform="translate(0)" fill="#fff"/>
          <path id="check_1_" data-name="check (1)" d="M19.267,3.306A11.286,11.286,0,0,0,3.305,19.267,11.286,11.286,0,0,0,19.267,3.306ZM15.425,10.36l-3.974,3.973a1.322,1.322,0,0,1-1.87,0L7.594,12.346a1.323,1.323,0,0,1,1.87-1.87l1.052,1.052,3.038-3.038a1.323,1.323,0,1,1,1.87,1.87Zm0,0" transform="translate(3.183 3.182)" fill="#acacac"/>
        </g>
      </g>
    </g>
  </g>
</svg>
