<svg xmlns="http://www.w3.org/2000/svg" width="63.044" height="54.598" viewBox="0 0 63.044 54.598">
  <g id="Layer_2" data-name="Layer 2" transform="translate(-1.253 -2.615)">
    <path id="Path_16876" data-name="Path 16876" d="M39.961,6.676a8.389,8.389,0,0,0-14.372,0L2.476,44.425A8.418,8.418,0,0,0,9.662,57.213H55.887a8.418,8.418,0,0,0,7.186-12.788Z" transform="translate(0 0)" fill="#ed4040"/>
    <g id="Group_13956" data-name="Group 13956" transform="translate(29.842 20.608)">
      <path id="Path_16877" data-name="Path 16877" d="M13.45,26.348a2.229,2.229,0,0,1-2.2-2.2V10.95a2.2,2.2,0,1,1,4.4,0v13.2A2.229,2.229,0,0,1,13.45,26.348Z" transform="translate(-10.517 -8.75)" fill="#fff"/>
      <circle id="Ellipse_73" data-name="Ellipse 73" cx="2.933" cy="2.933" r="2.933" transform="translate(0 19.798)" fill="#fff"/>
    </g>
  </g>
</svg>
