<svg xmlns="http://www.w3.org/2000/svg" width="71.806" height="54.696" viewBox="0 0 71.806 54.696">
  <g id="bad-feedback" transform="translate(0 -61)">
    <path id="Path_16743" data-name="Path 16743" d="M274.8,211H262.037v8.415a8.423,8.423,0,0,1-8.415,8.415H241v4.207a4.213,4.213,0,0,0,4.207,4.207h16.829v8.415l8.415-8.415H274.8a4.213,4.213,0,0,0,4.207-4.207V215.207A4.213,4.213,0,0,0,274.8,211Z" transform="translate(-207.201 -128.963)" fill="#acacac"/>
    <path id="Path_16744" data-name="Path 16744" d="M4.207,94.659h8.555l8.415,8.415V94.659H46.421a4.213,4.213,0,0,0,4.207-4.207V65.207A4.213,4.213,0,0,0,46.421,61H4.207A4.213,4.213,0,0,0,0,65.207V90.452A4.213,4.213,0,0,0,4.207,94.659ZM31.7,67.311H44.318v4.207H31.7Zm0,8.415H44.318v4.207H31.7Zm0,8.415H44.318v4.207H31.7ZM9.171,73.006l2.975-2.975,4.824,4.824,4.824-4.824,2.975,2.975-4.824,4.824,4.824,4.824-2.975,2.975L16.97,80.8l-4.824,4.824L9.171,82.653l4.824-4.824Z" fill="#f9415a"/>
  </g>
</svg>
