<svg id="Group_14367" data-name="Group 14367" xmlns="http://www.w3.org/2000/svg" width="56.265" height="56.265" viewBox="0 0 56.265 56.265">
  <g id="booking_online" transform="translate(0 15.004)">
    <path id="Path_17273" data-name="Path 17273" d="M23.506,22.128H16V18.377h7.5ZM57.265,9V42.759a7.51,7.51,0,0,1-7.5,7.5H8.5a7.511,7.511,0,0,1-7.5-7.5V9ZM34.759,14.626A1.875,1.875,0,0,0,36.634,16.5H47.887a1.875,1.875,0,0,0,0-3.751H36.634A1.875,1.875,0,0,0,34.759,14.626Zm0,7.5A1.875,1.875,0,0,0,36.634,24H47.887a1.875,1.875,0,0,0,0-3.751H36.634A1.875,1.875,0,0,0,34.759,22.128ZM31.008,39.008a1.875,1.875,0,0,0-1.875-1.875H10.377a1.875,1.875,0,0,0,0,3.751H29.132A1.875,1.875,0,0,0,31.008,39.008Zm0-13.128a3.755,3.755,0,0,0-3.751-3.751V18.377a3.755,3.755,0,0,0-3.751-3.751H16a3.755,3.755,0,0,0-3.751,3.751v3.751A3.755,3.755,0,0,0,8.5,25.879v5.626a1.875,1.875,0,0,0,3.751,0h15a1.875,1.875,0,0,0,3.751,0Zm5.626,5.626H47.887a1.875,1.875,0,0,0,0-3.751H36.634a1.875,1.875,0,0,0,0,3.751Zm14.454,9.927-.549-.549.549-.549a1.875,1.875,0,0,0-.733-3.105L44.73,35.353a1.875,1.875,0,0,0-2.372,2.373l1.875,5.626a1.875,1.875,0,0,0,3.1.733l.549-.549.549.549a1.875,1.875,0,0,0,2.652-2.652ZM12.253,27.755h15V25.879h-15Z" transform="translate(-1 -9)" fill="#f9415a"/>
  </g>
  <g id="booking_online-2" data-name="booking_online" transform="translate(0 0)">
    <path id="Path_17273-2" data-name="Path 17273" d="M57.265,8.5v3.751H1V8.5A7.511,7.511,0,0,1,8.5,1H49.763A7.51,7.51,0,0,1,57.265,8.5ZM40.385,6.626A1.875,1.875,0,1,0,38.51,8.5,1.875,1.875,0,0,0,40.385,6.626Zm5.626,0A1.875,1.875,0,1,0,44.136,8.5,1.875,1.875,0,0,0,46.012,6.626Zm5.626,0A1.875,1.875,0,1,0,49.763,8.5,1.875,1.875,0,0,0,51.638,6.626Z" transform="translate(-1 -1)" fill="#acacac"/>
  </g>
</svg>
