<svg xmlns="http://www.w3.org/2000/svg" width="48.083" height="62.535" viewBox="0 0 48.083 62.535">
  <g id="manager" transform="translate(-34.32)">
    <path id="Path_16608" data-name="Path 16608" d="M102.242,24.68A12.34,12.34,0,1,0,89.9,12.34,12.354,12.354,0,0,0,102.242,24.68Z" transform="translate(-43.879)" fill="#acacac"/>
    <path id="Path_16609" data-name="Path 16609" d="M74.922,141.357l-.021-.007c-1.607-.392-6.527-1.081-6.527-1.081a1.094,1.094,0,0,0-1.349.671l-7.406,20.32a1.337,1.337,0,0,1-2.512,0L49.7,140.941a1.094,1.094,0,0,0-1.027-.72c-.106,0-5.165.709-6.849,1.128-4.6,1.144-7.505,5.67-7.505,10.386v16.908a4.588,4.588,0,0,0,4.588,4.588H77.815a4.588,4.588,0,0,0,4.588-4.588V151.679A10.858,10.858,0,0,0,74.922,141.357Z" transform="translate(0 -110.697)" fill="#f9415a"/>
    <path id="Path_16610" data-name="Path 16610" d="M139.311,136.8a1.573,1.573,0,0,0-1.165-.484h-3.26a1.574,1.574,0,0,0-1.165.484,1.512,1.512,0,0,0-.2,1.782l1.743,2.628-.816,6.883,1.607,4.274a.49.49,0,0,0,.921,0l1.607-4.274-.816-6.883,1.743-2.628A1.513,1.513,0,0,0,139.311,136.8Z" transform="translate(-78.154 -107.612)" fill="#f9415a"/>
  </g>
</svg>
