<svg xmlns="http://www.w3.org/2000/svg" width="62.965" height="54.657" viewBox="0 0 62.965 54.657">
  <g id="Group_14512" data-name="Group 14512" transform="translate(-87.813 -634.495)">
    <g id="rent" transform="translate(87.813 658.732)">
      <path id="Path_16104" data-name="Path 16104" d="M56.385,24.009H6.721A6.749,6.749,0,0,0,0,30.695V47.816a6.688,6.688,0,0,0,6.721,6.615H56.385a6.567,6.567,0,0,0,6.579-6.615V30.695a6.628,6.628,0,0,0-6.579-6.686ZM19.5,44.388a.724.724,0,0,1-.707-.377l-1.938-3.73h-1v3.343c0,.453-.51.679-1.061.679s-1.061-.227-1.061-.679v-9a.685.685,0,0,1,.665-.711h2.929c1.939,0,3.481.745,3.481,3.051a2.805,2.805,0,0,1-1.712,2.884l1.727,3.133a.48.48,0,0,1,.071.258A1.441,1.441,0,0,1,19.5,44.388Zm8.22-6.088c.424,0,.665.411.665.863,0,.382-.2.835-.665.835H25.61V42.4h3.778c.424,0,.665.411.665.934,0,.453-.2.905-.665.905H24.351c-.481,0-1-.166-1-.619V34.639c0-.453.523-.725,1-.725h5.037c.467,0,.665.523.665.977,0,.523-.24,1-.665,1H25.61V38.3Zm11.9,5.324c0,.453-.531.679-1.082.679a1.2,1.2,0,0,1-1.207-.594l-2.664-4.9v4.811c0,.453-.58.679-1.132.679s-1.132-.226-1.132-.679V34.639c0-.467.566-.679,1.118-.679.793,0,1.118.071,1.656,1.1l2.32,4.372V34.625c0-.467.51-.665,1.061-.665s1.061.2,1.061.665Zm9.112-7.729h-1.9v7.729c0,.453-.58.679-1.132.679s-1.132-.227-1.132-.679V35.895H42.618c-.424,0-.665-.467-.665-1,0-.467.2-.977.665-.977H48.73c.467,0,.665.51.665.977,0,.537-.241,1-.665,1ZM11.748,24.009h0Z" transform="translate(0 -24.009)" fill="#f9415a"/>
      <path id="Path_16105" data-name="Path 16105" d="M113.471,255.289H112v2.688h1.471c.793,0,1.273-.354,1.273-1.344S114.264,255.289,113.471,255.289Zm0,0" transform="translate(-96.152 -243.403)" fill="#f9415a"/>
    </g>
    <g id="rent-2" data-name="rent" transform="translate(94.293 634.495)">
      <path id="Path_16104-2" data-name="Path 16104" d="M56.324,24.236h-2.13L35.847,7.07a4.812,4.812,0,0,0,.526-2.192,4.882,4.882,0,1,0-9.763.007,4.787,4.787,0,0,0,.526,2.184L8.789,24.236H56.324Zm-44.637,0L28.375,8.624a4.835,4.835,0,0,0,6.232,0L51.3,24.236Zm0,0" transform="translate(-6.49 0)" fill="#acacac"/>
    </g>
  </g>
</svg>
