<svg id="request" xmlns="http://www.w3.org/2000/svg" width="53.133" height="53.133" viewBox="0 0 53.133 53.133">
  <path id="Path_16616" data-name="Path 16616" d="M219.367,0H199.359A6.555,6.555,0,0,0,192.8,6.558V36.57a1.558,1.558,0,0,0,2.491,1.245l6.254-4.691h17.822a6.555,6.555,0,0,0,6.558-6.558V6.558A6.555,6.555,0,0,0,219.367,0Zm-10,25.622a1.557,1.557,0,1,1,1.557-1.557A1.557,1.557,0,0,1,209.363,25.621Zm1.557-6.884v.326a1.557,1.557,0,0,1-3.113,0V17.4a1.557,1.557,0,0,1,1.557-1.557,2.612,2.612,0,1,0-2.611-2.613,1.557,1.557,0,1,1-3.113,0v0a5.725,5.725,0,1,1,7.281,5.512Zm0,0" transform="translate(-172.793 0)" fill="#acacac"/>
  <path id="Path_16617" data-name="Path 16617" d="M39.142,248.347a7.358,7.358,0,1,1-7.358-7.359A7.358,7.358,0,0,1,39.142,248.347Zm0,0" transform="translate(-21.891 -215.979)" fill="#f9415a"/>
  <path id="Path_16618" data-name="Path 16618" d="M9.893,382.805A9.893,9.893,0,0,0,0,392.7v1.958a1.557,1.557,0,0,0,1.557,1.557H18.23a1.557,1.557,0,0,0,1.557-1.557V392.7a9.893,9.893,0,0,0-9.893-9.893Zm0,0" transform="translate(0 -343.079)" fill="#f9415a"/>
</svg>
