<svg id="_13-smoking" data-name="13-smoking" xmlns="http://www.w3.org/2000/svg" width="44.651" height="44.651" viewBox="0 0 44.651 44.651">
  <g id="Gyph">
    <path id="Path_16076" data-name="Path 16076" d="M22.326,0A22.326,22.326,0,1,0,44.651,22.326,22.326,22.326,0,0,0,22.326,0Zm18.6,22.326a18.517,18.517,0,0,1-4.206,11.768L32.4,29.768h2.95a1.86,1.86,0,0,0,1.86-1.86V24.186a1.86,1.86,0,0,0-1.86-1.86H24.957l-14.4-14.4a18.594,18.594,0,0,1,30.372,14.4Zm-7.442,5.581V24.186h1.86v3.721ZM3.721,22.326A18.517,18.517,0,0,1,7.927,10.558L19.695,22.326h-2.95v7.442H27.136l6.957,6.957a18.594,18.594,0,0,1-30.372-14.4Z" fill="#323232"/>
    <path id="Path_16077" data-name="Path 16077" d="M101.581,39.442H105.3a1.863,1.863,0,0,1,1.86,1.86v1.86h3.721V41.3a5.588,5.588,0,0,0-5.581-5.581h-3.721a1.863,1.863,0,0,1-1.86-1.86V32H96v1.86a5.588,5.588,0,0,0,5.581,5.581Z" transform="translate(-73.674 -24.558)" fill="#323232"/>
    <path id="Path_16078" data-name="Path 16078" d="M32,97.86v3.721a1.86,1.86,0,0,0,1.86,1.86h5.581V96H33.86A1.86,1.86,0,0,0,32,97.86Z" transform="translate(-24.558 -73.674)" fill="#323232"/>
  </g>
</svg>
