<svg xmlns="http://www.w3.org/2000/svg" xmlns:xlink="http://www.w3.org/1999/xlink" width="36" height="36" viewBox="0 0 36 36">
  <defs>
    <clipPath id="clip-path">
      <rect id="Rectangle_6081" data-name="Rectangle 6081" width="36" height="36" transform="translate(146 424)" fill="#9e4848"/>
    </clipPath>
  </defs>
  <g id="_24_7_water" data-name="24_7 water" transform="translate(-146 -424)" clip-path="url(#clip-path)">
    <g id="faucet" transform="translate(146.747 424)">
      <path id="Path_17251" data-name="Path 17251" d="M33.6,26.276V25.5a1.125,1.125,0,0,0,.99-1.125v-.3a1.125,1.125,0,0,0-.99-1.125v-4a6.874,6.874,0,0,0-6.87-6.866H23.938a1.309,1.309,0,0,0-1.069-.555H21.7l-.668-2.25a1.579,1.579,0,0,0-1.447-1.125V6.131a.375.375,0,0,0-.375-.375H17.87V3.922h5.171A1.125,1.125,0,0,0,24.167,2.8v-.3a1.125,1.125,0,0,0-1.125-1.125H19.187V.893A.892.892,0,0,0,18.3,0H14.923a.9.9,0,0,0-.881.892v.476H10.183A1.125,1.125,0,0,0,9.058,2.494v.3a1.125,1.125,0,0,0,1.125,1.125h5.182V5.756H14.042a.375.375,0,0,0-.375.375v2a1.586,1.586,0,0,0-1.451,1.125l-.664,2.25H10.367a1.309,1.309,0,0,0-1.069.555H7.149a1.324,1.324,0,0,0-1.256-.911H5.518a1.331,1.331,0,0,0-1.256.911H1.292a.375.375,0,0,0-.375.375v6.476a.375.375,0,0,0,.375.375H4.254A1.331,1.331,0,0,0,5.51,20.2h.375a1.324,1.324,0,0,0,1.256-.907H9.317a1.309,1.309,0,0,0,1.042.518h2.284a2.152,2.152,0,0,1,1.125.334,5.475,5.475,0,0,0,5.723,0,2.141,2.141,0,0,1,1.125-.334H22.9a1.309,1.309,0,0,0,1.043-.518h2.381a.1.1,0,0,1,.1.1V22.95a1.125,1.125,0,0,0-.994,1.125v.3a1.125,1.125,0,0,0,.994,1.125v3.862a2.2,2.2,0,0,0,0,4.327v1.935a.375.375,0,0,0,.75,0V33.33a.375.375,0,0,0-.375-.375,1.444,1.444,0,1,1,0-2.887.375.375,0,0,0,.375-.375V25.5h1.117v7.125a.375.375,0,1,0,.75,0V25.5h3.81v1.125a.375.375,0,0,0,.375.375,1.447,1.447,0,0,1,0,2.891.375.375,0,0,0-.375.375v5.359a.375.375,0,0,0,.75,0V30.6a2.194,2.194,0,0,0,0-4.324ZM23.042,2.119a.375.375,0,0,1,.375.375v.3a.375.375,0,0,1-.375.375H19.175a10.4,10.4,0,0,0,0-1.054ZM10.183,3.173A.375.375,0,0,1,9.808,2.8v-.3a.375.375,0,0,1,.375-.375h3.859V3.173Zm4.609-.143V.893A.143.143,0,0,1,14.938.75h3.375a.143.143,0,0,1,.139.143V3.03a.143.143,0,0,1-.139.143H14.938a.143.143,0,0,1-.146-.143Zm1.32.892h1V5.756h-1ZM14.417,6.506h4.421V8.134H14.417Zm-1.5,2.966a.821.821,0,0,1,.788-.589h5.827a.829.829,0,0,1,.788.589l.6,2.036A1.849,1.849,0,0,1,20,11.134a5.464,5.464,0,0,0-6.75,0,1.875,1.875,0,0,1-.911.375ZM1.667,12.848H4.19V18.54H1.667Zm4.226,6.6c-.42,0-.577.03-.772-.157s-.184-.416-.184-.75V12.5a.578.578,0,0,1,.574-.578c.431,0,.589-.022.78.161s.176.42.176.75v6.041a.577.577,0,0,1-.574.574Zm1.324-.907V12.833H9.058V18.54Zm11.869.96a4.819,4.819,0,0,1-4.939,0c-.93-.57-1.421-.446-3.78-.446a.559.559,0,0,1-.559-.559V12.833a.559.559,0,0,1,.559-.555h1.691A2.689,2.689,0,0,0,13.7,11.73a4.721,4.721,0,0,1,5.835,0,2.7,2.7,0,0,0,1.631.547h1.691a.559.559,0,0,1,.559.555V18.5a.559.559,0,0,1-.559.559C20.582,19.057,20.019,18.934,19.085,19.5Zm7.207-.964H24.167V12.829H26.72a6.124,6.124,0,0,1,6.131,6.12v3.99H27.144V19.388a.851.851,0,0,0-.851-.848Zm.236,6.214a.375.375,0,0,1-.375-.375v-.3a.375.375,0,0,1,.375-.375h6.934a.375.375,0,0,1,.375.375v.3a.375.375,0,0,1-.375.375Z" transform="translate(-0.917 0)" stroke="#000" stroke-width="0.458"/>
      <path id="Path_17252" data-name="Path 17252" d="M37.358,38.28a.375.375,0,0,0-.375.375v3.93a.375.375,0,0,0,.75,0v-3.93A.375.375,0,0,0,37.358,38.28Z" transform="translate(-7.474 -6.96)"/>
      <path id="Path_17253" data-name="Path 17253" d="M37.358,31.914a.375.375,0,0,0-.375.375v2.389a.375.375,0,0,0,.75,0V32.289A.375.375,0,0,0,37.358,31.914Z" transform="translate(-7.474 -5.802)"/>
      <path id="Path_17254" data-name="Path 17254" d="M26.562,32.024a1.5,1.5,0,1,0,1.5,1.481A1.5,1.5,0,0,0,26.562,32.024Zm0,2.216a.75.75,0,1,1,.75-.75A.75.75,0,0,1,26.562,34.24Z" transform="translate(-5.307 -5.822)"/>
    </g>
  </g>
</svg>
