<svg xmlns="http://www.w3.org/2000/svg" xmlns:xlink="http://www.w3.org/1999/xlink" width="44" height="44" viewBox="0 0 44 44">
  <defs>
    <clipPath id="clip-path">
      <rect id="Rectangle_6081" data-name="Rectangle 6081" width="44" height="44" transform="translate(211 40)" fill="#9e4848"/>
    </clipPath>
  </defs>
  <g id="ac" transform="translate(-211 -40)" clip-path="url(#clip-path)">
    <g id="air-conditioner" transform="translate(213 -27.541)">
      <g id="Group_14033" data-name="Group 14033" transform="translate(-1 74.541)">
        <g id="Group_14032" data-name="Group 14032" transform="translate(0 0)">
          <path id="Path_17046" data-name="Path 17046" d="M38.854,74.541H1.1a2.06,2.06,0,0,0-2.1,2.1V90.622a2.06,2.06,0,0,0,2.1,2.1H38.854a2.06,2.06,0,0,0,2.1-2.1V76.639A2.06,2.06,0,0,0,38.854,74.541Zm.7,16.081a.661.661,0,0,1-.7.7H1.1a.661.661,0,0,1-.7-.7V76.639a.7.7,0,0,1,.7-.7H38.854a.661.661,0,0,1,.7.7V90.622Z" transform="translate(1 -74.541)"/>
          <path id="Path_17047" data-name="Path 17047" d="M209.535,134.694h5.594a.7.7,0,0,0,0-1.4h-5.594a.7.7,0,0,0,0,1.4Z" transform="translate(-191.356 -128.402)"/>
          <path id="Path_17048" data-name="Path 17048" d="M68.233,242.41H33.273a.7.7,0,0,0,0,1.4h34.96a.7.7,0,0,0,0-1.4Z" transform="translate(-29.777 -228.426)"/>
          <path id="Path_17049" data-name="Path 17049" d="M68.233,208.836H33.273a.7.7,0,1,0,0,1.4h34.96a.7.7,0,0,0,0-1.4Z" transform="translate(-29.777 -197.649)"/>
          <path id="Path_17050" data-name="Path 17050" d="M228.07,312.808c-.7-.35-1.049-.769-1.049-1.119s.42-.769.979-1.189a.668.668,0,0,0,.28-.909.617.617,0,0,0-.909-.28,2.891,2.891,0,0,0-1.748,2.377,3.077,3.077,0,0,0,1.748,2.447c.7.35,1.049.769,1.049,1.119s-.42.769-1.049,1.119a.617.617,0,0,0-.28.909.734.734,0,0,0,.629.35.631.631,0,0,0,.35-.07,2.891,2.891,0,0,0,1.748-2.377A2.805,2.805,0,0,0,228.07,312.808Z" transform="translate(-206.745 -289.665)"/>
          <path id="Path_17051" data-name="Path 17051" d="M135.742,329.6c-.7-.35-1.049-.769-1.049-1.119s.419-.769.979-1.189a.672.672,0,1,0-.629-1.189,2.891,2.891,0,0,0-1.748,2.377,3.078,3.078,0,0,0,1.748,2.447c.7.35,1.049.769,1.049,1.119s-.42.769-1.049,1.119a.617.617,0,0,0-.28.909.734.734,0,0,0,.629.35.631.631,0,0,0,.35-.07,2.891,2.891,0,0,0,1.748-2.377A2.806,2.806,0,0,0,135.742,329.6Z" transform="translate(-122.108 -305.053)"/>
          <path id="Path_17052" data-name="Path 17052" d="M320.4,329.6c-.7-.35-1.049-.769-1.049-1.119s.42-.769.979-1.189a.668.668,0,0,0,.28-.909.617.617,0,0,0-.909-.28,2.891,2.891,0,0,0-1.748,2.377,3.078,3.078,0,0,0,1.748,2.447c.7.35,1.049.769,1.049,1.119s-.419.769-1.049,1.119a.617.617,0,0,0-.28.909.734.734,0,0,0,.629.35.631.631,0,0,0,.35-.07,2.891,2.891,0,0,0,1.748-2.377A2.806,2.806,0,0,0,320.4,329.6Z" transform="translate(-291.381 -305.053)"/>
        </g>
      </g>
    </g>
  </g>
</svg>
