<svg xmlns="http://www.w3.org/2000/svg" width="67.508" height="47.256" viewBox="0 0 67.508 47.256">
  <g id="air-conditioner" transform="translate(1 -74.541)">
    <g id="Group_14033" data-name="Group 14033" transform="translate(-1 74.541)">
      <g id="Group_14032" data-name="Group 14032" transform="translate(0 0)">
        <path id="Path_17046" data-name="Path 17046" d="M63.133,74.541H2.375A3.315,3.315,0,0,0-1,77.916v22.5a3.315,3.315,0,0,0,3.375,3.375H63.133a3.315,3.315,0,0,0,3.375-3.375v-22.5A3.315,3.315,0,0,0,63.133,74.541Zm1.125,25.878a1.063,1.063,0,0,1-1.125,1.125H2.375a1.063,1.063,0,0,1-1.125-1.125v-22.5a1.127,1.127,0,0,1,1.125-1.125H63.133a1.063,1.063,0,0,1,1.125,1.125v22.5Z" transform="translate(1 -74.541)"/>
        <path id="Path_17047" data-name="Path 17047" d="M209.961,135.546h9a1.125,1.125,0,0,0,0-2.25h-9a1.125,1.125,0,0,0,0,2.25Z" transform="translate(-180.708 -125.42)"/>
        <path id="Path_17048" data-name="Path 17048" d="M89.956,242.41H33.7a1.125,1.125,0,0,0,0,2.25H89.956a1.125,1.125,0,0,0,0-2.25Z" transform="translate(-28.073 -219.907)"/>
        <path id="Path_17049" data-name="Path 17049" d="M89.956,208.836H33.7a1.125,1.125,0,1,0,0,2.25H89.956a1.125,1.125,0,1,0,0-2.25Z" transform="translate(-28.073 -190.834)"/>
        <path id="Path_17050" data-name="Path 17050" d="M229.561,315c-1.125-.563-1.688-1.238-1.688-1.8s.675-1.238,1.575-1.913a1.075,1.075,0,0,0,.45-1.463.993.993,0,0,0-1.463-.45c-1.8,1.013-2.813,2.363-2.813,3.825s1.013,2.813,2.813,3.938c1.125.563,1.688,1.238,1.688,1.8s-.675,1.238-1.688,1.8a.993.993,0,0,0-.45,1.463,1.182,1.182,0,0,0,1.013.563,1.015,1.015,0,0,0,.563-.112c1.8-1.013,2.813-2.363,2.813-3.825A4.515,4.515,0,0,0,229.561,315Z" transform="translate(-195.244 -277.756)"/>
        <path id="Path_17051" data-name="Path 17051" d="M137.233,331.785c-1.125-.563-1.688-1.238-1.688-1.8s.675-1.238,1.575-1.913a1.082,1.082,0,0,0-1.013-1.913c-1.8,1.013-2.813,2.363-2.813,3.826s1.013,2.813,2.813,3.938c1.125.563,1.688,1.238,1.688,1.8s-.675,1.238-1.688,1.8a.993.993,0,0,0-.45,1.463,1.182,1.182,0,0,0,1.013.563,1.015,1.015,0,0,0,.563-.112c1.8-1.013,2.813-2.363,2.813-3.825A4.515,4.515,0,0,0,137.233,331.785Z" transform="translate(-115.293 -292.293)"/>
        <path id="Path_17052" data-name="Path 17052" d="M321.889,331.785c-1.125-.563-1.688-1.238-1.688-1.8s.675-1.238,1.575-1.913a1.075,1.075,0,0,0,.45-1.463.993.993,0,0,0-1.463-.45c-1.8,1.013-2.813,2.363-2.813,3.826s1.013,2.813,2.813,3.938c1.125.563,1.688,1.238,1.688,1.8s-.675,1.238-1.688,1.8a.993.993,0,0,0-.45,1.463,1.182,1.182,0,0,0,1.013.563,1.015,1.015,0,0,0,.563-.112c1.8-1.013,2.813-2.363,2.813-3.825A4.515,4.515,0,0,0,321.889,331.785Z" transform="translate(-275.196 -292.293)"/>
      </g>
    </g>
  </g>
</svg>
