<svg xmlns="http://www.w3.org/2000/svg" width="29.235" height="29.235" viewBox="0 0 29.235 29.235">
  <g id="bank" transform="translate(-4.557 -4.557)">
    <path id="Path_16726" data-name="Path 16726" d="M56.673,71.414l-.5.621a2.86,2.86,0,0,0,1.625.746v.467h.635V72.8c1.012-.07,1.591-.656,1.591-1.458,0-.851-.635-1.179-1.591-1.4V68.638a2.281,2.281,0,0,1,.991.523l.474-.642a2.6,2.6,0,0,0-1.465-.648v-.433H57.8v.425A1.489,1.489,0,0,0,56.359,69.3c0,.823.579,1.13,1.437,1.352v1.36A2.384,2.384,0,0,1,56.673,71.414Zm1.757-.6c.5.148.719.293.719.615s-.244.572-.719.628Zm-1.193-1.59a.659.659,0,0,1,.558-.6v1.158C57.42,69.649,57.238,69.5,57.238,69.224Z" transform="translate(-38.922 -47.418)"/>
    <path id="Path_16727" data-name="Path 16727" d="M50.162,69.923a4.513,4.513,0,1,0-4.512-4.512A4.513,4.513,0,0,0,50.162,69.923Zm0-8.164a3.652,3.652,0,1,1-3.652,3.652,3.652,3.652,0,0,1,3.652-3.652Z" transform="translate(-30.988 -42.487)"/>
    <path id="Path_16728" data-name="Path 16728" d="M33.361,12.36a.43.43,0,0,0,.43-.43V10.053a.431.431,0,0,0-.285-.405L19.319,4.582a.432.432,0,0,0-.289,0L4.843,9.648a.431.431,0,0,0-.286.405v1.877a.43.43,0,0,0,.43.43h.7v1.119h-.7a.43.43,0,0,0-.43.43v2.024a.43.43,0,0,0,.43.43H6.57v1.669a.43.43,0,0,0,.43.43h.382v8.925H7a.431.431,0,0,0-.43.43v1.669H4.987a.43.43,0,0,0-.43.43v3.445a.43.43,0,0,0,.43.43H33.361a.43.43,0,0,0,.43-.43V29.917a.43.43,0,0,0-.43-.43H31.778V27.817a.43.43,0,0,0-.43-.43h-.382V18.463h.382a.43.43,0,0,0,.43-.43V16.363h1.583a.43.43,0,0,0,.43-.43V13.909a.43.43,0,0,0-.43-.43h-.7V12.36Zm-27.944-2L19.174,5.444l13.757,4.912V11.5H5.418Zm6.32,6.007V17.6H7.431V16.363Zm14.014,0v1.669a.43.43,0,0,0,.43.43h.382v8.925h-.381a.43.43,0,0,0-.43.43v1.669H12.6v-1.67a.431.431,0,0,0-.43-.43h-.382V18.463h.382a.43.43,0,0,0,.43-.43V16.363Zm-17.508,2.1h2.68v8.925H8.244Zm-.811,9.785h4.306v1.239H7.431Zm25.5,4.684H5.418V30.347H32.931Zm-6.32-3.445V28.248h4.306v1.239Zm3.492-2.1h-2.68V18.463H30.1Zm.811-9.785h-4.3V16.363h4.306Zm2.013-2.1H5.418V14.339H32.931ZM31.8,13.478H6.543V12.36H31.806Z"/>
  </g>
</svg>
