<svg xmlns="http://www.w3.org/2000/svg" width="21.463" height="23" viewBox="0 0 21.463 23">
  <g id="paper" transform="translate(0)">
    <path id="Path_16148" data-name="Path 16148" d="M14.348,0H2.769A2.767,2.767,0,0,0,0,2.769V18.376a2.767,2.767,0,0,0,2.769,2.769H10.2l.222-1.238a2.8,2.8,0,0,1,.765-1.48l5.931-5.921V2.769A2.767,2.767,0,0,0,14.348,0ZM4.028,4.028H8.055a1.007,1.007,0,0,1,0,2.014H4.028a1.007,1.007,0,1,1,0-2.014ZM9.062,14.1H4.028a1.007,1.007,0,0,1,0-2.014H9.062a1.007,1.007,0,1,1,0,2.014Zm4.028-4.028H4.028a1.007,1.007,0,1,1,0-2.014H13.09a1.007,1.007,0,1,1,0,2.014Z" transform="translate(0)" fill="#f9415a"/>
    <path id="Path_16149" data-name="Path 16149" d="M12.272,16.734a.494.494,0,0,1-.486-.58l.349-1.979a.5.5,0,0,1,.137-.263L19.1,7.08a1,1,0,0,1,1.513-.117l.815.815a1.153,1.153,0,0,1,0,1.63L14.6,16.241a.487.487,0,0,1-.263.137l-1.979.349a.471.471,0,0,1-.086.008Zm1.979-.843h.007Z" transform="translate(-0.307 6.265)" fill="#acacac"/>
  </g>
</svg>
