<svg xmlns="http://www.w3.org/2000/svg" width="38.787" height="38.787" viewBox="0 0 38.787 38.787">
  <g id="Icons" transform="translate(0 0)">
    <g id="Rounded" transform="translate(0 0)">
      <g id="Image">
        <g id="_-Round-_-Image-_-camera_alt" data-name="-Round-/-Image-/-camera_alt">
          <g id="Group_12324" data-name="Group 12324">
            <path id="Path" d="M0,0H38.787V38.787H0Z" fill="none" fill-rule="evenodd"/>
            <path id="_-Icon-Color" data-name="🔹-Icon-Color" d="M18.161,23.009a4.848,4.848,0,1,1,4.848-4.848A4.848,4.848,0,0,1,18.161,23.009ZM31.09,5.232a3.242,3.242,0,0,1,3.232,3.232V27.858A3.242,3.242,0,0,1,31.09,31.09H5.232A3.242,3.242,0,0,1,2,27.858V8.464A3.242,3.242,0,0,1,5.232,5.232h5.123L12.343,3.05A3.279,3.279,0,0,1,14.735,2h6.852a3.217,3.217,0,0,1,2.376,1.05l2,2.182ZM18.161,26.242a8.081,8.081,0,1,0-8.081-8.081A8.083,8.083,0,0,0,18.161,26.242Z" transform="translate(1.232 1.232)" fill="#c8c8c8" fill-rule="evenodd"/>
          </g>
        </g>
      </g>
    </g>
  </g>
</svg>
