<svg xmlns="http://www.w3.org/2000/svg" width="22.883" height="24.815" viewBox="0 0 22.883 24.815">
  <g id="Group_14444" data-name="Group 14444" transform="translate(0)">
    <g id="Iconly_Bold_Calendar" data-name="Iconly/Bold/Calendar" transform="translate(0)">
      <g id="Calendar">
        <path id="Combined-Shape" d="M.007,7.382A5.784,5.784,0,0,1,.919,3.955l.17-.248L1.1,3.693l.118-.138h0l.123-.141L1.358,3.4a4.465,4.465,0,0,1,.778-.635l.079-.05h0L2.3,2.667l.187-.108c.076-.036.158-.079.234-.114.055-.021.11-.049.165-.071.1-.044.214-.086.324-.122a.565.565,0,0,1,.117-.043l.045-.018h0l.049-.018a7.887,7.887,0,0,1,1.543-.3L4.9,1.878V.794a.785.785,0,1,1,1.57,0V4.22a.785.785,0,1,1-1.57,0V3.428a5.168,5.168,0,0,0-1.5.383,3.317,3.317,0,0,0-1.883,3.3l0,.27V7.8H18.1V7.367a4.808,4.808,0,0,0-.455-2.251A2.87,2.87,0,0,0,16.207,3.8a5,5,0,0,0-1.22-.35l-.272-.033v.8a.785.785,0,0,1-1.57,0V3.358H6.482V1.8h6.663V.789a.785.785,0,0,1,1.57-.012V1.872a7.571,7.571,0,0,1,1.13.2l.37.1a.614.614,0,0,1,.093.028c.041.015.076.029.117.043.109.036.211.079.317.122.061.021.117.049.164.071.082.036.166.079.234.114s.136.076.193.108.1.068.152.1a4.722,4.722,0,0,1,.6.461l.183.175.008.015.128.136h0l.121.143.007.014a5.771,5.771,0,0,1,1.086,3.373l-.008.3V7.8h.008v8.452c0,3.686-2.058,5.548-6.137,5.548H6.128C2.058,21.8,0,19.937,0,16.252H0V7.8H.007ZM14.3,15.528a.915.915,0,0,0-.907.926.927.927,0,0,0,.907.926.927.927,0,0,0,0-1.852Zm-4.481-.01a.931.931,0,0,0,0,1.862.915.915,0,0,0,.9-.936.932.932,0,0,0-.9-.926Zm-4.491,0a.932.932,0,0,0,0,1.862.932.932,0,0,0,0-1.862ZM14.3,11.572a.927.927,0,1,0,.9.926A.907.907,0,0,0,14.3,11.572Zm-4.481-.01a.931.931,0,0,0,0,1.862.915.915,0,0,0,.9-.936.925.925,0,0,0-.9-.926Zm-4.481,0a.923.923,0,0,0-.908.936.9.9,0,1,0,.908-.936Z" transform="translate(0 0)" fill="#fff"/>
      </g>
    </g>
    <g id="Group_12454" data-name="Group 12454" transform="translate(12.086 14.018)">
      <g id="Group_12452" data-name="Group 12452" transform="translate(0 0)">
        <g id="Group_12447" data-name="Group 12447">
          <circle id="Ellipse_52" data-name="Ellipse 52" cx="5.399" cy="5.399" r="5.399" fill="#fff"/>
          <path id="check_1_" data-name="check (1)" d="M7.02,1.2A4.112,4.112,0,0,0,1.2,7.02,4.112,4.112,0,0,0,7.02,1.2Zm-1.4,2.57L4.172,5.222a.482.482,0,0,1-.682,0L2.767,4.5a.482.482,0,1,1,.682-.682l.383.383L4.938,3.093a.482.482,0,0,1,.682.682Zm0,0" transform="translate(1.203 1.041)" fill="#f9415a"/>
        </g>
      </g>
    </g>
  </g>
</svg>
