<svg id="checked" xmlns="http://www.w3.org/2000/svg" xmlns:xlink="http://www.w3.org/1999/xlink" width="17.322" height="17.322" viewBox="0 0 17.322 17.322">
  <defs>
    <linearGradient id="linear-gradient" x1="0.106" y1="0.135" x2="0.914" y2="0.916" gradientUnits="objectBoundingBox">
      <stop offset="0" stop-color="#f95d3d"/>
      <stop offset="1" stop-color="#f9217b"/>
    </linearGradient>
  </defs>
  <g id="Group_12318" data-name="Group 12318">
    <path id="Path_16045" data-name="Path 16045" d="M8.661,0a8.661,8.661,0,1,0,8.661,8.661A8.671,8.671,0,0,0,8.661,0ZM13.5,6.382,7.966,11.874a.852.852,0,0,1-1.194.022l-2.93-2.67A.88.88,0,0,1,3.777,8.01a.859.859,0,0,1,1.216-.043l2.323,2.127,4.949-4.949A.875.875,0,1,1,13.5,6.382Z" fill="url(#linear-gradient)"/>
  </g>
</svg>
