<svg xmlns="http://www.w3.org/2000/svg" width="32.604" height="26.618" viewBox="0 0 32.604 26.618">
  <g id="credit-card" transform="translate(1 -46.014)">
    <g id="Group_13855" data-name="Group 13855" transform="translate(-1 46.014)">
      <g id="Group_13854" data-name="Group 13854" transform="translate(0 0)">
        <path id="Path_16729" data-name="Path 16729" d="M264.077,248.256h8.692a.513.513,0,0,0,.543-.543v-4.889a.513.513,0,0,0-.543-.543h-8.692a.513.513,0,0,0-.543.543v4.889A.513.513,0,0,0,264.077,248.256Zm.543-4.889h7.605v3.8H264.62Z" transform="translate(-246.694 -229.787)"/>
        <path id="Path_16730" data-name="Path 16730" d="M33.677,209.233h4.346a.543.543,0,1,0,0-1.086H33.677a.543.543,0,1,0,0,1.086Z" transform="translate(-30.961 -197.826)"/>
        <path id="Path_16731" data-name="Path 16731" d="M136.077,209.233h4.346a.543.543,0,1,0,0-1.086h-4.346a.543.543,0,0,0,0,1.086Z" transform="translate(-126.842 -197.826)"/>
        <path id="Path_16732" data-name="Path 16732" d="M33.677,243.367h7.062a.543.543,0,1,0,0-1.086H33.677a.543.543,0,1,0,0,1.086Z" transform="translate(-30.961 -229.787)"/>
        <path id="Path_16733" data-name="Path 16733" d="M180.373,242.28h-1.63a.543.543,0,0,0,0,1.086h1.63a.543.543,0,0,0,0-1.086Z" transform="translate(-166.792 -229.786)"/>
        <path id="Path_16734" data-name="Path 16734" d="M31.1,51.772a2.024,2.024,0,0,0-1.467-.815l-1.3-.158V48.187a2.179,2.179,0,0,0-2.173-2.173H1.173A2.179,2.179,0,0,0-1,48.187V65.57A2.181,2.181,0,0,0,.557,67.653a2.114,2.114,0,0,0,1.92,2.154l25.1,2.825h.217a2.175,2.175,0,0,0,2.173-1.847l1.63-17.438A2.111,2.111,0,0,0,31.1,51.772ZM.086,49.817H27.248v3.259H.086ZM1.173,47.1H26.161a1.09,1.09,0,0,1,1.086,1.086v.543H.086v-.543A1.09,1.09,0,0,1,1.173,47.1ZM.086,65.57V54.162H27.248V65.57a1.09,1.09,0,0,1-1.086,1.086H1.173A1.09,1.09,0,0,1,.086,65.57ZM30.507,53.13l-1.63,17.438a1.1,1.1,0,0,1-1.2.978L2.64,68.721a1.1,1.1,0,0,1-.978-.978h24.5a2.179,2.179,0,0,0,2.173-2.173V51.826l1.249.109a.929.929,0,0,1,.706.38A1.1,1.1,0,0,1,30.507,53.13Z" transform="translate(1 -46.014)"/>
      </g>
    </g>
  </g>
</svg>
