<svg id="credit-card" xmlns="http://www.w3.org/2000/svg" width="64.601" height="52.741" viewBox="0 0 64.601 52.741">
  <g id="Group_13855" data-name="Group 13855">
    <g id="Group_13854" data-name="Group 13854" transform="translate(0 0)">
      <path id="Path_16729" data-name="Path 16729" d="M264.61,254.121h17.221a1.017,1.017,0,0,0,1.076-1.076v-9.687a1.017,1.017,0,0,0-1.076-1.076H264.61a1.017,1.017,0,0,0-1.076,1.076v9.687A1.017,1.017,0,0,0,264.61,254.121Zm1.076-9.687h15.069v7.534H265.687Z" transform="translate(-230.167 -217.525)"/>
      <path id="Path_16730" data-name="Path 16730" d="M34.21,210.3h8.611a1.076,1.076,0,1,0,0-2.153H34.21a1.076,1.076,0,1,0,0,2.153Z" transform="translate(-28.829 -187.696)"/>
      <path id="Path_16731" data-name="Path 16731" d="M136.61,210.3h8.611a1.076,1.076,0,1,0,0-2.153H136.61a1.076,1.076,0,0,0,0,2.153Z" transform="translate(-118.312 -187.696)"/>
      <path id="Path_16732" data-name="Path 16732" d="M34.21,244.434H48.2a1.076,1.076,0,1,0,0-2.153H34.21a1.076,1.076,0,1,0,0,2.153Z" transform="translate(-28.829 -217.525)"/>
      <path id="Path_16733" data-name="Path 16733" d="M182.505,242.28h-3.229a1.076,1.076,0,0,0,0,2.153h3.229a1.076,1.076,0,0,0,0-2.153Z" transform="translate(-155.597 -217.524)"/>
      <path id="Path_16734" data-name="Path 16734" d="M62.612,57.423a4.01,4.01,0,0,0-2.906-1.615L57.123,55.5V50.319a4.318,4.318,0,0,0-4.305-4.305H3.305A4.318,4.318,0,0,0-1,50.319V84.763a4.322,4.322,0,0,0,3.084,4.127,4.189,4.189,0,0,0,3.8,4.269l49.727,5.6h.43a4.31,4.31,0,0,0,4.305-3.66l3.229-34.551A4.184,4.184,0,0,0,62.612,57.423ZM1.153,53.548H54.97v6.458H1.153Zm2.153-5.382H52.817a2.159,2.159,0,0,1,2.153,2.153V51.4H1.153V50.319A2.159,2.159,0,0,1,3.305,48.167Zm-2.153,36.6v-22.6H54.97v22.6a2.159,2.159,0,0,1-2.153,2.153H3.305A2.159,2.159,0,0,1,1.153,84.762ZM61.428,60.114,58.2,94.665A2.171,2.171,0,0,1,55.831,96.6l-49.62-5.6a2.176,2.176,0,0,1-1.937-1.937H52.817a4.318,4.318,0,0,0,4.305-4.305V57.531l2.476.215A1.84,1.84,0,0,1,61,58.5,2.18,2.18,0,0,1,61.428,60.114Z" transform="translate(1 -46.014)"/>
    </g>
  </g>
</svg>
