<svg xmlns="http://www.w3.org/2000/svg" width="44" height="44" viewBox="0 0 44 44">
  <g id="Group_12465" data-name="Group 12465" transform="translate(-340 -228)">
    <rect id="Rectangle_5426" data-name="Rectangle 5426" width="44" height="44" rx="22" transform="translate(340 228)" fill="#f9415a"/>
    <g id="direct-download" transform="translate(353.869 240.98)">
      <path id="Path_16158" data-name="Path 16158" d="M11.327,14.43a.665.665,0,0,1-.481-.206L6.185,9.341a.666.666,0,0,1,.481-1.126H9.107V3.11A1.111,1.111,0,0,1,10.217,2h2.22a1.111,1.111,0,0,1,1.11,1.11v5.1h2.442a.666.666,0,0,1,.481,1.126l-4.661,4.883A.665.665,0,0,1,11.327,14.43Z" transform="translate(-3.336 -2)" fill="#fff"/>
      <path id="Path_16159" data-name="Path 16159" d="M17.427,21.551H4.554A1.555,1.555,0,0,1,3,20v-.444A1.555,1.555,0,0,1,4.554,18H17.427a1.555,1.555,0,0,1,1.554,1.554V20A1.555,1.555,0,0,1,17.427,21.551Z" transform="translate(-3 -3.795)" fill="#fff"/>
    </g>
  </g>
</svg>
