<svg xmlns="http://www.w3.org/2000/svg" width="8.63" height="10.175" viewBox="0 0 8.63 10.175">
  <g id="health-insurance" transform="translate(-38.447 0.139)">
    <path id="Path_16613" data-name="Path 16613" d="M46.972,2.695V2.685c0-.248-.009-.482-.009-.707a.619.619,0,0,0-.618-.618A4.239,4.239,0,0,1,43.193.176a.615.615,0,0,0-.862,0A4.239,4.239,0,0,1,39.18,1.36a.619.619,0,0,0-.618.618c0,.23,0,.466-.009.716a10.767,10.767,0,0,0,.438,3.942A5.01,5.01,0,0,0,40.2,8.511,6.309,6.309,0,0,0,42.559,9.9a.618.618,0,0,0,.405,0,6.31,6.31,0,0,0,2.363-1.391,5.011,5.011,0,0,0,1.207-1.874,10.767,10.767,0,0,0,.438-3.942Zm-.984,3.74a4.833,4.833,0,0,1-3.215,2.917.036.036,0,0,1-.024,0,4.833,4.833,0,0,1-3.214-2.917,10.159,10.159,0,0,1-.4-3.729c0-.253.009-.492.009-.728a.036.036,0,0,1,.036-.036A4.787,4.787,0,0,0,42.737.593a.036.036,0,0,1,.051,0,4.787,4.787,0,0,0,3.557,1.349.036.036,0,0,1,.036.036c0,.231,0,.467.009.718v.01h0a10.157,10.157,0,0,1-.4,3.729Z" transform="translate(0 0)" fill="#fff" stroke="#fff" stroke-width="0.2"/>
    <path id="Path_16614" data-name="Path 16614" d="M151.738,144.075H150.8v-.937a.291.291,0,0,0-.291-.291h-1.162a.291.291,0,0,0-.291.291v.937h-.937a.291.291,0,0,0-.291.291v1.162a.291.291,0,0,0,.291.291h.937v.937a.291.291,0,0,0,.291.291h1.162a.291.291,0,0,0,.291-.291v-.937h.937a.291.291,0,0,0,.291-.291v-1.162A.291.291,0,0,0,151.738,144.075Zm-.291,1.162h-.937a.291.291,0,0,0-.291.291v.937h-.58v-.937a.291.291,0,0,0-.291-.291h-.937v-.58h.937a.291.291,0,0,0,.291-.291v-.937h.58v.937a.291.291,0,0,0,.291.291h.937v.58Z" transform="translate(-107.167 -140.075)" fill="#fff" stroke="#fff" stroke-width="0.2"/>
  </g>
</svg>
