<svg xmlns="http://www.w3.org/2000/svg" width="31.624" height="28.355" viewBox="0 0 31.624 28.355">
  <path id="heart" d="M27.274,2.579A7.966,7.966,0,0,0,21.349,0a7.452,7.452,0,0,0-4.655,1.607,9.523,9.523,0,0,0-1.882,1.965A9.518,9.518,0,0,0,12.93,1.607,7.451,7.451,0,0,0,8.276,0,7.966,7.966,0,0,0,2.35,2.579,9.26,9.26,0,0,0,0,8.9,11.026,11.026,0,0,0,2.939,16.12a62.652,62.652,0,0,0,7.355,6.9c1.019.869,2.174,1.853,3.374,2.9a1.739,1.739,0,0,0,2.29,0c1.2-1.049,2.355-2.034,3.375-2.9a62.617,62.617,0,0,0,7.354-6.9A11.025,11.025,0,0,0,29.624,8.9a9.259,9.259,0,0,0-2.35-6.323Zm0,0" transform="translate(1 1)" fill="none" stroke="#fff" stroke-width="2"/>
</svg>
