<svg id="Group_1446" data-name="Group 1446" xmlns="http://www.w3.org/2000/svg" width="24.611" height="20.442" viewBox="0 0 24.611 20.442">
  <g id="back_1_" data-name="back (1)" transform="translate(0 0)">
    <g id="Group_1391" data-name="Group 1391" transform="translate(0 0)">
      <path id="Path_496" data-name="Path 496" d="M23.228,8.291l.038.008H6.8l5.177-5.189a1.36,1.36,0,0,0,0-1.911L11.169.393a1.348,1.348,0,0,0-1.9,0L.392,9.266a1.357,1.357,0,0,0,0,1.909L9.267,20.05a1.349,1.349,0,0,0,1.9,0l.806-.806a1.333,1.333,0,0,0,.393-.951,1.293,1.293,0,0,0-.393-.933L6.739,12.142H23.246a1.4,1.4,0,0,0,1.365-1.381V9.622A1.368,1.368,0,0,0,23.228,8.291Z" transform="translate(0)" fill="#2d2d2d"/>
    </g>
  </g>
</svg>
