<svg xmlns="http://www.w3.org/2000/svg" width="9.485" height="13.55" viewBox="0 0 9.485 13.55">
  <g id="placeholder" transform="translate(-3.393 -1)">
    <g id="Group_12336" data-name="Group 12336" transform="translate(0.005 1)">
      <g id="Group_12335" data-name="Group 12335" transform="translate(0 0)">
        <path id="Path_16114" data-name="Path 16114" d="M235.359,130.37a.677.677,0,1,0-.677-.677A.678.678,0,0,0,235.359,130.37Z" transform="translate(-227.229 -124.95)" fill="#f9415a"/>
        <path id="Path_16115" data-name="Path 16115" d="M110.546,13.625l.276.551a.678.678,0,0,0,1.213,0l.584-1.168a46.876,46.876,0,0,1,2.435-4.131l.386-.608a4.741,4.741,0,0,0-4.566-7.236,4.739,4.739,0,0,0-3.267,7.515A34.085,34.085,0,0,1,110.546,13.625Zm.882-9.914A2.032,2.032,0,1,1,109.4,5.743,2.035,2.035,0,0,1,111.429,3.711Z" transform="translate(-103.298 -1)" fill="#f9415a"/>
      </g>
    </g>
  </g>
</svg>
