<svg id="money_3_" data-name="money (3)" xmlns="http://www.w3.org/2000/svg" width="24.509" height="24.222" viewBox="0 0 24.509 24.222">
  <g id="Group_14251" data-name="Group 14251" transform="translate(14.358 12.12)">
    <g id="Group_14250" data-name="Group 14250">
      <path id="Path_17190" data-name="Path 17190" d="M301.964,259.655a.921.921,0,1,1,1.053-.911.479.479,0,1,0,.957,0,1.9,1.9,0,0,0-1.532-1.815v-.249a.479.479,0,0,0-.957,0v.249a1.9,1.9,0,0,0-1.532,1.815,1.946,1.946,0,0,0,2.01,1.869.921.921,0,1,1-1.053.912.479.479,0,1,0-.957,0,1.9,1.9,0,0,0,1.532,1.815v.207a.479.479,0,0,0,.957,0v-.207a1.9,1.9,0,0,0,1.532-1.815A1.946,1.946,0,0,0,301.964,259.655Z" transform="translate(-299.954 -256.201)" fill="#616a78"/>
    </g>
  </g>
  <g id="Group_14253" data-name="Group 14253" transform="translate(18.378 10.425)">
    <g id="Group_14252" data-name="Group 14252">
      <path id="Path_17191" data-name="Path 17191" d="M387.158,223.087a6.237,6.237,0,0,0-2.548-2.255.479.479,0,1,0-.415.863,5.27,5.27,0,0,1,2.374,7.218.479.479,0,1,0,.845.45,6.23,6.23,0,0,0-.256-6.276Z" transform="translate(-383.924 -220.785)" fill="#616a78"/>
    </g>
  </g>
  <g id="Group_14255" data-name="Group 14255" transform="translate(16.61 9.861)">
    <g id="Group_14254" data-name="Group 14254">
      <path id="Path_17192" data-name="Path 17192" d="M347.511,209h-.032a.479.479,0,1,0,0,.957h.03a.479.479,0,0,0,0-.957Z" transform="translate(-347 -209.001)" fill="#616a78"/>
    </g>
  </g>
  <g id="Group_14257" data-name="Group 14257" transform="translate(10.148 12.911)">
    <g id="Group_14256" data-name="Group 14256">
      <path id="Path_17193" data-name="Path 17193" d="M215.947,280.633a5.27,5.27,0,0,1-2.374-7.218.479.479,0,1,0-.845-.45,6.226,6.226,0,0,0,2.8,8.531.479.479,0,1,0,.415-.863Z" transform="translate(-212.002 -272.711)" fill="#616a78"/>
    </g>
  </g>
  <g id="Group_14259" data-name="Group 14259" transform="translate(15.145 21.349)">
    <g id="Group_14258" data-name="Group 14258">
      <path id="Path_17194" data-name="Path 17194" d="M316.886,449h-.028a.479.479,0,0,0,0,.957h.032a.479.479,0,1,0,0-.957Z" transform="translate(-316.378 -448.999)" fill="#616a78"/>
    </g>
  </g>
  <g id="Group_14261" data-name="Group 14261" transform="translate(0 0)">
    <g id="Group_14260" data-name="Group 14260">
      <path id="Path_17195" data-name="Path 17195" d="M18.545,11.241a2.2,2.2,0,0,0-.213-.391h1.246a2.2,2.2,0,1,0,0-4.4H15.745A2.2,2.2,0,0,0,13.93,3H2.2a2.2,2.2,0,1,0,0,4.4H6.035a2.2,2.2,0,0,0,0,2.489H4.787a2.2,2.2,0,0,0-1.368,3.925,2.2,2.2,0,0,0,0,3.447,2.2,2.2,0,0,0,0,3.447,2.2,2.2,0,0,0,1.368,3.925h5.641a8.136,8.136,0,1,0,8.117-13.4ZM19.578,7.4a1.245,1.245,0,1,1,0,2.489H7.85a1.245,1.245,0,0,1,0-2.489ZM2.2,6.447a1.245,1.245,0,1,1,0-2.489H13.93a1.245,1.245,0,1,1,0,2.489Zm2.585,4.4H16.515a1.244,1.244,0,0,1,.543.125c-.226-.019-.455-.029-.687-.029a8.112,8.112,0,0,0-5.759,2.393H4.787a1.245,1.245,0,1,1,0-2.489Zm0,3.447H9.795a8.114,8.114,0,0,0-1.23,2.489H4.787a1.245,1.245,0,1,1,0-2.489Zm0,3.447H8.344a8.144,8.144,0,0,0-.03,2.489H4.787a1.245,1.245,0,1,1,0-2.489Zm0,5.936a1.245,1.245,0,1,1,0-2.489H8.51a8.106,8.106,0,0,0,1.149,2.489Zm11.584,2.585a7.18,7.18,0,1,1,7.18-7.18A7.188,7.188,0,0,1,16.371,26.264Z" transform="translate(0 -3)" fill="#616a78"/>
    </g>
  </g>
</svg>
