<svg xmlns="http://www.w3.org/2000/svg" width="44" height="44" viewBox="0 0 44 44">
  <g id="no-pets-allowed" transform="translate(0 -0.001)">
    <path id="Path_16079" data-name="Path 16079" d="M128.222,235.811a17.342,17.342,0,0,0-4.176,10.423,6.484,6.484,0,0,0,6.3,6.625,7.155,7.155,0,0,0,3.741-.984,2.591,2.591,0,0,1,2.6,0,6.726,6.726,0,0,0,7.367-.231Z" transform="translate(-113.386 -215.547)" fill="#323232"/>
    <path id="Path_16080" data-name="Path 16080" d="M214.915,74.948a3.867,3.867,0,1,0-3.867-3.867A3.872,3.872,0,0,0,214.915,74.948Z" transform="translate(-192.913 -61.456)" fill="#323232"/>
    <path id="Path_16081" data-name="Path 16081" d="M89.1,158.117l-5.3-5.3A3.87,3.87,0,0,0,89.1,158.117Z" transform="translate(-76.1 -139.688)" fill="#323232"/>
    <path id="Path_16082" data-name="Path 16082" d="M342.6,138.7a3.867,3.867,0,1,0-3.867-3.867A3.872,3.872,0,0,0,342.6,138.7Z" transform="translate(-309.63 -119.727)" fill="#323232"/>
    <path id="Path_16083" data-name="Path 16083" d="M37.557,6.444C23.736-7.349.023,2.474,0,22-.239,33.823,10.178,44.242,22,44,41.529,43.978,51.35,20.264,37.557,6.444ZM22,2.579C38.63,2.566,47.559,22.315,36.616,34.791L33.3,31.475c.71-6.684-7.088-18.7-14.537-14.537L9.211,7.385A19.278,19.278,0,0,1,22,2.579Zm0,38.84C5.341,41.4-3.544,21.721,7.388,9.208L34.794,36.613A19.284,19.284,0,0,1,22,41.42Z" transform="translate(0 0)" fill="#323232"/>
  </g>
</svg>
