<svg id="Group_14384" data-name="Group 14384" xmlns="http://www.w3.org/2000/svg" xmlns:xlink="http://www.w3.org/1999/xlink" width="221.205" height="168.918" viewBox="0 0 221.205 168.918">
  <defs>
    <clipPath id="clip-path">
      <rect id="Rectangle_6139" data-name="Rectangle 6139" width="221.205" height="168.918" fill="none"/>
    </clipPath>
    <clipPath id="clip-path-3">
      <rect id="Rectangle_6129" data-name="Rectangle 6129" width="0.985" height="16.768" fill="none"/>
    </clipPath>
    <clipPath id="clip-path-6">
      <rect id="Rectangle_6133" data-name="Rectangle 6133" width="12.003" height="15.808" fill="none"/>
    </clipPath>
    <clipPath id="clip-path-7">
      <rect id="Rectangle_6134" data-name="Rectangle 6134" width="2.018" height="9.352" fill="none"/>
    </clipPath>
    <clipPath id="clip-path-9">
      <rect id="Rectangle_6136" data-name="Rectangle 6136" width="115.117" height="83.064" fill="none"/>
    </clipPath>
    <clipPath id="clip-path-10">
      <rect id="Rectangle_6137" data-name="Rectangle 6137" width="29.723" height="28.961" fill="none"/>
    </clipPath>
  </defs>
  <g id="Group_14383" data-name="Group 14383" clip-path="url(#clip-path)">
    <rect id="Rectangle_6125" data-name="Rectangle 6125" width="51.466" height="75.781" transform="translate(0 75.231) rotate(-33.777)" fill="#f5f5f5"/>
    <path id="Path_17202" data-name="Path 17202" d="M129.445,274.687l-.485,3-21.266-3.064.486-3Z" transform="translate(-66.635 -168.067)" fill="#e0e0e0"/>
    <path id="Path_17203" data-name="Path 17203" d="M131.164,251.546l3.052.44-3.383,20.938-3.052-.44Z" transform="translate(-79.064 -155.644)" fill="#e0e0e0"/>
    <g id="Group_14364" data-name="Group 14364">
      <g id="Group_14363" data-name="Group 14363" clip-path="url(#clip-path)">
        <path id="Path_17204" data-name="Path 17204" d="M54.021,181.744c.031.046-4.256,2.967-9.574,6.523s-9.655,6.4-9.685,6.359,4.256-2.966,9.575-6.524,9.654-6.4,9.684-6.358" transform="translate(-21.509 -112.453)" fill="#e0e0e0"/>
        <path id="Path_17205" data-name="Path 17205" d="M74.682,171.387c.031.046-7.1,4.867-15.921,10.768s-16,10.65-16.033,10.6,7.1-4.866,15.922-10.769,16-10.648,16.031-10.6" transform="translate(-26.438 -106.045)" fill="#e0e0e0"/>
        <path id="Path_17206" data-name="Path 17206" d="M82.954,183.752c.03.046-7.1,4.867-15.921,10.768s-16,10.65-16.033,10.6,7.1-4.866,15.922-10.769,16-10.649,16.031-10.6" transform="translate(-31.557 -113.696)" fill="#e0e0e0"/>
        <path id="Path_17207" data-name="Path 17207" d="M91.225,196.118c.031.046-7.1,4.867-15.921,10.768s-16,10.65-16.033,10.6,7.1-4.866,15.922-10.769,16-10.649,16.031-10.6" transform="translate(-36.674 -121.348)" fill="#e0e0e0"/>
        <path id="Path_17208" data-name="Path 17208" d="M99.5,208.485c.03.046-7.1,4.867-15.921,10.768s-16,10.65-16.033,10.6,7.1-4.866,15.922-10.769,16-10.648,16.031-10.6" transform="translate(-41.792 -129)" fill="#e0e0e0"/>
        <rect id="Rectangle_6126" data-name="Rectangle 6126" width="43.222" height="63.643" transform="translate(149.896 112.863) rotate(-33.777)" fill="#f5f5f5"/>
        <path id="Path_17209" data-name="Path 17209" d="M501.878,361l-.408,2.523-17.86-2.573.408-2.523Z" transform="translate(-299.233 -221.779)" fill="#e0e0e0"/>
        <path id="Path_17210" data-name="Path 17210" d="M503.322,341.569l2.563.369-2.841,17.584-2.563-.369Z" transform="translate(-309.671 -211.345)" fill="#e0e0e0"/>
        <path id="Path_17211" data-name="Path 17211" d="M438.535,282.947c.03.046-3.566,2.5-8.032,5.492s-8.112,5.373-8.143,5.327,3.565-2.5,8.033-5.492,8.112-5.372,8.142-5.326" transform="translate(-261.335 -175.073)" fill="#e0e0e0"/>
        <path id="Path_17212" data-name="Path 17212" d="M455.887,274.248c.031.046-5.952,4.1-13.362,9.057s-13.443,8.938-13.473,8.892,5.951-4.1,13.363-9.057,13.442-8.937,13.472-8.892" transform="translate(-265.475 -169.69)" fill="#e0e0e0"/>
        <path id="Path_17213" data-name="Path 17213" d="M462.834,284.633c.03.046-5.953,4.1-13.362,9.057s-13.443,8.938-13.473,8.892,5.951-4.1,13.363-9.057,13.442-8.937,13.473-8.892" transform="translate(-269.773 -176.116)" fill="#e0e0e0"/>
        <path id="Path_17214" data-name="Path 17214" d="M469.78,295.019c.03.046-5.953,4.1-13.362,9.057s-13.443,8.938-13.474,8.892,5.951-4.1,13.363-9.057,13.442-8.937,13.472-8.892" transform="translate(-274.071 -182.542)" fill="#e0e0e0"/>
        <path id="Path_17215" data-name="Path 17215" d="M476.727,305.405c.03.046-5.952,4.1-13.362,9.057s-13.443,8.938-13.474,8.892,5.951-4.1,13.363-9.057,13.442-8.937,13.472-8.892" transform="translate(-278.37 -188.969)" fill="#e0e0e0"/>
        <rect id="Rectangle_6127" data-name="Rectangle 6127" width="65.457" height="44.454" transform="translate(58.915 85.682) rotate(-61.862)" fill="#f5f5f5"/>
        <path id="Path_17216" data-name="Path 17216" d="M225.467,204.045l-2.487.852-6.313-17.451,2.487-.852Z" transform="translate(-134.062 -115.454)" fill="#e0e0e0"/>
        <path id="Path_17217" data-name="Path 17217" d="M221.622,199.529l.906,2.5L205.2,207.969l-.906-2.5Z" transform="translate(-126.404 -123.458)" fill="#e0e0e0"/>
        <path id="Path_17218" data-name="Path 17218" d="M253.408,116.673c-.031.058-4.007-2.009-8.879-4.615s-8.8-4.766-8.769-4.824,4.006,2.009,8.88,4.616,8.8,4.766,8.768,4.823" transform="translate(-145.876 -66.35)" fill="#e0e0e0"/>
        <path id="Path_17219" data-name="Path 17219" d="M259.2,133.81c-.031.058-6.611-3.4-14.695-7.725s-14.616-7.877-14.586-7.934,6.609,3.4,14.7,7.726,14.615,7.876,14.584,7.933" transform="translate(-142.264 -73.105)" fill="#e0e0e0"/>
        <path id="Path_17220" data-name="Path 17220" d="M253.142,145.142c-.031.058-6.611-3.4-14.695-7.725s-14.616-7.877-14.586-7.934,6.609,3.4,14.7,7.726,14.615,7.876,14.584,7.933" transform="translate(-138.514 -80.117)" fill="#e0e0e0"/>
        <path id="Path_17221" data-name="Path 17221" d="M247.081,156.474c-.031.058-6.611-3.4-14.695-7.725s-14.616-7.877-14.586-7.934,6.609,3.4,14.7,7.726,14.615,7.876,14.584,7.933" transform="translate(-134.764 -87.129)" fill="#e0e0e0"/>
        <path id="Path_17222" data-name="Path 17222" d="M241.021,167.806c-.031.058-6.611-3.4-14.695-7.725s-14.616-7.877-14.586-7.934,6.609,3.4,14.7,7.726,14.615,7.876,14.584,7.933" transform="translate(-131.014 -94.14)" fill="#e0e0e0"/>
        <g id="Group_14362" data-name="Group 14362" transform="translate(109.228)" opacity="0.2">
          <g id="Group_14361" data-name="Group 14361">
            <g id="Group_14360" data-name="Group 14360" clip-path="url(#clip-path-3)">
              <rect id="Rectangle_6128" data-name="Rectangle 6128" width="0.985" height="16.769" transform="translate(0)"/>
            </g>
          </g>
        </g>
      </g>
    </g>
    <g id="Group_14366" data-name="Group 14366">
      <g id="Group_14365" data-name="Group 14365" clip-path="url(#clip-path)">
        <path id="Path_17223" data-name="Path 17223" d="M227.559,64.25h45.926s-4.24-20.3-23.311-20.3c-16.963,0-22.615,20.3-22.615,20.3" transform="translate(-140.802 -27.197)" fill="#e8505b"/>
        <rect id="Rectangle_6131" data-name="Rectangle 6131" width="0.985" height="16.769" transform="translate(109.228)" fill="#e8505b"/>
      </g>
    </g>
    <g id="Group_14374" data-name="Group 14374">
      <g id="Group_14373" data-name="Group 14373" clip-path="url(#clip-path)">
        <path id="Path_17224" data-name="Path 17224" d="M453.416,104.19c-1.121.258-1.667,1.548-1.773,2.694a10.259,10.259,0,0,1-.441,3.4c-.541,1.176-1.835,2.043-1.878,3.337-.026.789.442,1.531.42,2.32-.037,1.3-1.358,2.275-1.428,3.57-.05.932.571,1.827.422,2.748a12.919,12.919,0,0,1-.911,1.969c-.47,1.37.47,2.878,1.7,3.649a5.56,5.56,0,0,0,8.1-2.588,11.357,11.357,0,0,0,.383-5.275q-.689-8.3-1.024-16.615" transform="translate(-277.016 -63.978)" fill="#263238"/>
        <path id="Path_17225" data-name="Path 17225" d="M454.148,125.7a1.344,1.344,0,0,0,.512-.609,2.162,2.162,0,0,0,.13-.931,5.163,5.163,0,0,0-.278-1.234,3.517,3.517,0,0,1-.2-1.563,3.561,3.561,0,0,1,.909-1.56,3.485,3.485,0,0,0,.515-.783,1.265,1.265,0,0,0,.059-.914c-.2-.623-.807-1.081-1.087-1.8a1.946,1.946,0,0,1-.061-1.112,4.517,4.517,0,0,1,.368-1,8.539,8.539,0,0,0,.758-1.794c.267-1.209.143-2.364.324-3.312a3.68,3.68,0,0,1,.964-2.032,2.17,2.17,0,0,1,.5-.359.9.9,0,0,1,.2-.075,3.1,3.1,0,0,0-.651.49,3.713,3.713,0,0,0-.88,2,12.633,12.633,0,0,0-.106,1.541,9.391,9.391,0,0,1-.179,1.79,8.534,8.534,0,0,1-.76,1.836,2.509,2.509,0,0,0-.3,1.958c.242.649.857,1.11,1.087,1.811a1.456,1.456,0,0,1-.071,1.048,3.629,3.629,0,0,1-.547.822,2.5,2.5,0,0,0-.716,2.97,5.1,5.1,0,0,1,.254,1.268,2.179,2.179,0,0,1-.17.966,1.159,1.159,0,0,1-.391.481.634.634,0,0,1-.193.1" transform="translate(-281.002 -65.973)" fill="#455a64"/>
        <path id="Path_17226" data-name="Path 17226" d="M413.516,180.366l-3.442,9.921-14.351.769-2.393,5.325,14.984,1.516a5.661,5.661,0,0,0,7.492-3.322l4-11.161Z" transform="translate(-243.372 -111.601)" fill="#b78876"/>
        <path id="Path_17227" data-name="Path 17227" d="M480.856,319.022s-10.518-33.4-10.74-34.489c-.2-.98,3.817-25.019,4.323-31.241l-14.211.53s0,.038,0,.1l-6.041.335,5.41,68.318h6.54l-.648-22.666a220.834,220.834,0,0,0,9.811,21.859Z" transform="translate(-281.027 -156.725)" fill="#b78876"/>
        <path id="Path_17228" data-name="Path 17228" d="M480.424,373.469c.006-.207-.079-7.594-.079-7.594-.082.442-2.507-6.414-2.448-6.831.031-.216,2.528,14.425,2.528,14.425" transform="translate(-295.697 -222.156)" fill="#a36957"/>
        <path id="Path_17229" data-name="Path 17229" d="M477.088,350.534a1.525,1.525,0,0,0-.042.414,10.917,10.917,0,0,0,.009,1.133c.009.24.034.5.065.781s.074.579.139.89a15.194,15.194,0,0,0,.535,1.99c.475,1.382,1,2.59,1.371,3.468l.455,1.033a1.531,1.531,0,0,0,.194.368,1.564,1.564,0,0,0-.116-.4c-.088-.252-.221-.614-.391-1.059-.336-.892-.837-2.11-1.308-3.479a17.262,17.262,0,0,1-.544-1.961c-.069-.3-.113-.6-.156-.873s-.072-.533-.091-.769c-.045-.472-.065-.856-.077-1.122a1.555,1.555,0,0,0-.043-.414" transform="translate(-295.164 -216.892)" fill="#a36957"/>
        <path id="Path_17230" data-name="Path 17230" d="M460.75,434.439l0-.614,6.7-.292.018,2.533-.413.028c-1.839.108-9.357.418-10.587.049-1.372-.412,4.286-1.7,4.286-1.7" transform="translate(-282.303 -268.248)" fill="#455a64"/>
        <path id="Path_17231" data-name="Path 17231" d="M467.556,439.77a.623.623,0,0,1-.114.013l-.329.021-1.211.056c-1.023.04-2.437.078-4,.085s-2.977-.018-4-.05l-1.212-.046-.329-.018a.633.633,0,0,1-.115-.012.641.641,0,0,1,.115,0l.33,0,1.212.02c1.023.017,2.437.033,4,.026s2.975-.035,4-.061l1.212-.031.33-.006a.637.637,0,0,1,.115,0" transform="translate(-282.302 -272.105)" fill="#263238"/>
        <path id="Path_17232" data-name="Path 17232" d="M461.318,438.651a1.763,1.763,0,0,0-.643-1.04,1.077,1.077,0,0,1,.643,1.04" transform="translate(-285.042 -270.77)" fill="#263238"/>
        <path id="Path_17233" data-name="Path 17233" d="M466.93,436.808c-.019.012-.113-.1-.211-.255s-.162-.286-.143-.3.113.1.211.255.162.287.143.3" transform="translate(-288.691 -269.931)" fill="#263238"/>
        <path id="Path_17234" data-name="Path 17234" d="M468.243,436.345c-.015.017-.12-.053-.236-.156s-.2-.2-.181-.216.12.053.235.156.2.2.182.216" transform="translate(-289.466 -269.756)" fill="#263238"/>
        <path id="Path_17235" data-name="Path 17235" d="M468.682,435.242a1.526,1.526,0,1,1-.349-.035.782.782,0,0,1,.349.035" transform="translate(-289.566 -269.284)" fill="#263238"/>
        <path id="Path_17236" data-name="Path 17236" d="M468.835,434.124a.978.978,0,0,1-.788.062,27.613,27.613,0,0,0,.788-.062" transform="translate(-289.603 -268.61)" fill="#263238"/>
        <path id="Path_17237" data-name="Path 17237" d="M464.872,435.216a1.23,1.23,0,0,1-.428,0,2.516,2.516,0,0,1-.456-.1,1.271,1.271,0,0,1-.262-.107.231.231,0,0,1-.106-.133.168.168,0,0,1,.064-.171.784.784,0,0,1,.972.226.759.759,0,0,1,.141.285.241.241,0,0,1,.012.116,1.216,1.216,0,0,0-.2-.365.772.772,0,0,0-.366-.236.665.665,0,0,0-.511.037c-.068.051-.041.13.035.175a1.3,1.3,0,0,0,.241.1,2.972,2.972,0,0,0,.442.113c.257.045.42.044.42.058" transform="translate(-286.86 -268.921)" fill="#263238"/>
        <path id="Path_17238" data-name="Path 17238" d="M466.533,434.893a.421.421,0,0,1-.05-.3.7.7,0,0,1,.116-.313.43.43,0,0,1,.356-.22.171.171,0,0,1,.133.2.469.469,0,0,1-.072.192,1.3,1.3,0,0,1-.2.26.614.614,0,0,1-.245.174c-.008-.01.085-.077.2-.213a1.5,1.5,0,0,0,.178-.257c.058-.091.1-.254-.009-.273s-.216.1-.281.183a.7.7,0,0,0-.12.279,1.522,1.522,0,0,0-.006.289" transform="translate(-288.633 -268.576)" fill="#263238"/>
        <path id="Path_17239" data-name="Path 17239" d="M481.7,434.923c0,.015-.191-.018-.492.019a2.089,2.089,0,0,0-1.741,1.4c-.1.286-.11.478-.125.476a.379.379,0,0,1,0-.134,1.751,1.751,0,0,1,.071-.36,2.026,2.026,0,0,1,1.789-1.437,1.751,1.751,0,0,1,.367.008.388.388,0,0,1,.131.03" transform="translate(-296.591 -269.081)" fill="#263238"/>
        <path id="Path_17240" data-name="Path 17240" d="M473.96,438.37a5.473,5.473,0,0,1-1.947.011c0-.024.437,0,.974,0s.971-.035.974-.012" transform="translate(-292.057 -271.235)" fill="#263238"/>
        <path id="Path_17241" data-name="Path 17241" d="M480.239,438.342c.016.016-.036.092-.079.193s-.069.188-.092.187-.035-.105.018-.22.138-.175.153-.159" transform="translate(-297.03 -271.222)" fill="#263238"/>
        <path id="Path_17242" data-name="Path 17242" d="M481.423,436.73c.016.016-.027.085-.1.155s-.138.114-.153.1.027-.085.1-.155.137-.114.153-.1" transform="translate(-297.724 -270.224)" fill="#263238"/>
        <path id="Path_17243" data-name="Path 17243" d="M483.06,435.933c0,.023-.093.022-.191.057s-.169.087-.186.072.038-.108.16-.149.223,0,.217.019" transform="translate(-298.658 -269.709)" fill="#263238"/>
        <path id="Path_17244" data-name="Path 17244" d="M484.664,435.618c.008.021-.03.055-.086.077s-.106.023-.114,0,.03-.055.085-.077.107-.022.115,0" transform="translate(-299.761 -269.529)" fill="#263238"/>
        <path id="Path_17245" data-name="Path 17245" d="M503.567,428.567l-.254-.559L509.3,425l1.055,2.3-.366.194c-1.633.851-8.365,4.214-9.638,4.381-1.421.186,3.212-3.31,3.212-3.31" transform="translate(-309.426 -262.967)" fill="#455a64"/>
        <path id="Path_17246" data-name="Path 17246" d="M510.38,430.573a.606.606,0,0,1-.1.059l-.292.154-1.082.547c-.917.456-2.191,1.069-3.613,1.715s-2.723,1.2-3.67,1.593l-1.124.454-.308.118a.588.588,0,0,1-.109.036.621.621,0,0,1,.1-.051l.3-.132,1.114-.478c.94-.4,2.236-.968,3.658-1.614s2.7-1.251,3.622-1.693l1.093-.525.3-.14a.626.626,0,0,1,.106-.044" transform="translate(-309.426 -266.416)" fill="#263238"/>
        <path id="Path_17247" data-name="Path 17247" d="M504.2,439.609a1.764,1.764,0,0,0-1.012-.685,1.077,1.077,0,0,1,1.012.685" transform="translate(-311.346 -271.578)" fill="#263238"/>
        <path id="Path_17248" data-name="Path 17248" d="M508.565,435.633c-.012.019-.145-.047-.3-.146s-.265-.2-.253-.214.145.047.3.146.265.2.253.214" transform="translate(-314.333 -269.322)" fill="#263238"/>
        <path id="Path_17249" data-name="Path 17249" d="M509.574,434.669c-.007.021-.131,0-.279-.046s-.261-.1-.254-.123.131,0,.279.046.261.1.254.123" transform="translate(-314.968 -268.841)" fill="#263238"/>
        <path id="Path_17250" data-name="Path 17250" d="M509.547,433.076c.01.02-.124.1-.3.184a.783.783,0,0,1-.332.111c-.01-.02.124-.1.3-.184a.786.786,0,0,1,.332-.111" transform="translate(-314.891 -267.962)" fill="#263238"/>
        <path id="Path_17251" data-name="Path 17251" d="M509.246,431.894c.015.015-.108.155-.307.263a.673.673,0,0,1-.387.117,30.183,30.183,0,0,0,.694-.38" transform="translate(-314.665 -267.233)" fill="#263238"/>
        <path id="Path_17252" data-name="Path 17252" d="M506.156,434.65a1.238,1.238,0,0,1-.391.175,2.529,2.529,0,0,1-.457.1,1.254,1.254,0,0,1-.282.01.232.232,0,0,1-.151-.077.169.169,0,0,1-.012-.183.785.785,0,0,1,.979-.192.762.762,0,0,1,.245.2c.046.059.062.1.058.1a1.215,1.215,0,0,0-.328-.252.772.772,0,0,0-.432-.066.663.663,0,0,0-.45.242c-.041.074.016.136.1.146a1.279,1.279,0,0,0,.262-.006,2.9,2.9,0,0,0,.449-.078c.252-.064.4-.132.407-.119" transform="translate(-312.37 -268.775)" fill="#263238"/>
        <path id="Path_17253" data-name="Path 17253" d="M507.721,433.734a.422.422,0,0,1-.168-.25.708.708,0,0,1-.023-.333.43.43,0,0,1,.235-.346c.1-.03.319.163.334.235s-.113.035-.12.095a1.31,1.31,0,0,1-.077.319.611.611,0,0,1-.152.259c-.011-.006.046-.1.1-.277a1.507,1.507,0,0,0,.057-.308c.016-.107-.014-.271-.12-.245s-.157.177-.182.282a.706.706,0,0,0,0,.3,1.585,1.585,0,0,0,.113.266" transform="translate(-314.027 -267.795)" fill="#263238"/>
        <path id="Path_17254" data-name="Path 17254" d="M522.309,426.362c0,.014-.182.062-.442.219a2.088,2.088,0,0,0-1.015,1.988c.026.3.1.481.081.485a.389.389,0,0,1-.056-.122,1.775,1.775,0,0,1-.082-.358,2.025,2.025,0,0,1,1.044-2.043,1.748,1.748,0,0,1,.337-.143.4.4,0,0,1,.132-.027" transform="translate(-322.231 -263.81)" fill="#263238"/>
        <path id="Path_17255" data-name="Path 17255" d="M515.627,432.9a5.48,5.48,0,0,1-1.773.807c-.007-.022.4-.175.889-.4s.872-.43.883-.409" transform="translate(-317.947 -267.855)" fill="#263238"/>
        <path id="Path_17256" data-name="Path 17256" d="M521.492,431.464c.021.008.006.1.006.208s.015.2-.006.208-.075-.082-.074-.208.055-.217.074-.208" transform="translate(-322.626 -266.967)" fill="#263238"/>
        <path id="Path_17257" data-name="Path 17257" d="M521.908,429.468c.021.008.01.088-.024.181s-.078.16-.1.153-.011-.088.024-.181.078-.16.1-.153" transform="translate(-322.847 -265.732)" fill="#263238"/>
        <path id="Path_17258" data-name="Path 17258" d="M523.019,428.02c0,.023-.076.058-.151.13s-.117.148-.14.142-.009-.114.085-.2.2-.093.206-.071" transform="translate(-323.432 -264.83)" fill="#263238"/>
        <path id="Path_17259" data-name="Path 17259" d="M524.307,427.171c.016.016,0,.063-.046.1s-.088.064-.1.048,0-.062.046-.1.088-.064.1-.048" transform="translate(-324.318 -264.308)" fill="#263238"/>
        <path id="Path_17260" data-name="Path 17260" d="M463.038,180.294l-1.116-13.61,5.73.1a22.788,22.788,0,0,0-.579-6.408,7.429,7.429,0,0,0-4.331-5.338V155l-.175-.045a16.377,16.377,0,0,0-5.248-1.37l-7.033.082s-5.373-.671-8.346,3.159c-1.146,1.475-4.69,11.573-4.69,11.573l8.442,4.065-.8-5.6a26.593,26.593,0,0,0,.677,5.346c.289.717,1.125,2.942,1.125,2.942l-.109,6.716Z" transform="translate(-270.548 -95.032)" fill="#e8505b"/>
        <path id="Path_17261" data-name="Path 17261" d="M493.018,177.872l-1.044,4.448h9.848l-.648-7.457Z" transform="translate(-304.408 -108.196)" fill="#e8505b"/>
        <path id="Path_17262" data-name="Path 17262" d="M503.33,194.078a7.355,7.355,0,0,0-1.3-.129c-.807-.048-1.924-.087-3.158-.082s-2.352.059-3.158.124a7.062,7.062,0,0,0-1.3.16,8.742,8.742,0,0,0,1.308-.007c.806-.025,1.92-.054,3.151-.06s2.345.01,3.152.018a8.3,8.3,0,0,0,1.309-.024" transform="translate(-305.915 -119.955)" fill="#263238"/>
        <path id="Path_17263" data-name="Path 17263" d="M493.542,174.768a5.814,5.814,0,0,0-.033,1.131c.007.7.032,1.661.074,2.725s.091,2.027.138,2.723a5.828,5.828,0,0,0,.12,1.125,5.906,5.906,0,0,0,.033-1.131c-.007-.7-.033-1.662-.074-2.726s-.091-2.026-.138-2.722a5.825,5.825,0,0,0-.12-1.125" transform="translate(-305.356 -108.137)" fill="#263238"/>
        <g id="Group_14369" data-name="Group 14369" transform="translate(179.224 70.483)" opacity="0.3">
          <g id="Group_14368" data-name="Group 14368">
            <g id="Group_14367" data-name="Group 14367" clip-path="url(#clip-path-6)">
              <path id="Path_17264" data-name="Path 17264" d="M470.094,184.872s2.189,16.229,8.342,15.8c0,0,2.77-.033,3.661-1.874v-.725Z" transform="translate(-470.094 -184.872)"/>
            </g>
          </g>
        </g>
        <g id="Group_14372" data-name="Group 14372" transform="translate(187.007 67.587)" opacity="0.3">
          <g id="Group_14371" data-name="Group 14371">
            <g id="Group_14370" data-name="Group 14370" clip-path="url(#clip-path-7)">
              <path id="Path_17265" data-name="Path 17265" d="M491.687,177.277l-1.178,7.956.763,1.4,1.255-2.73-.531-.013Z" transform="translate(-490.509 -177.277)"/>
            </g>
          </g>
        </g>
        <path id="Path_17266" data-name="Path 17266" d="M458.815,193.471a1.68,1.68,0,0,1-.166-.38c-.1-.249-.223-.612-.37-1.065a32.389,32.389,0,0,1-.942-3.6,25.935,25.935,0,0,1-.467-3.695c-.023-.476-.03-.862-.023-1.129a1.652,1.652,0,0,1,.028-.414c.032,0,.053.588.135,1.532a34.356,34.356,0,0,0,.521,3.666c.283,1.419.623,2.686.882,3.6l.309,1.082a1.67,1.67,0,0,1,.093.4" transform="translate(-282.672 -113.347)" fill="#263238"/>
        <path id="Path_17267" data-name="Path 17267" d="M467.713,219.76c-.053.016-.2-.334-.34-.782a1.884,1.884,0,0,1-.15-.84c.052-.016.2.334.34.782a1.892,1.892,0,0,1,.15.84" transform="translate(-289.082 -134.972)" fill="#263238"/>
        <path id="Path_17268" data-name="Path 17268" d="M470.4,218.369a3.515,3.515,0,0,1-.035-2.379,77.388,77.388,0,0,0,.035,2.379" transform="translate(-290.921 -133.643)" fill="#263238"/>
        <path id="Path_17269" data-name="Path 17269" d="M445.743,196.549c-.024.049-1.989-.883-4.387-2.082s-4.324-2.21-4.3-2.259,1.989.883,4.388,2.082,4.323,2.21,4.3,2.259" transform="translate(-270.428 -118.927)" fill="#263238"/>
        <path id="Path_17270" data-name="Path 17270" d="M464.151,127.01c.044-1.929.055-3.96.055-3.96s-2.474-.477-2.905-3.732c-.411-3.1.739-10.388.739-10.388a8.7,8.7,0,0,1,9.845,2.8l-.615,15.66a3.361,3.361,0,0,1-3.637,3.113,3.551,3.551,0,0,1-3.482-3.493" transform="translate(-285.374 -67.057)" fill="#b78876"/>
        <path id="Path_17271" data-name="Path 17271" d="M462.89,124.506a.416.416,0,0,0,.39.43.4.4,0,0,0,.438-.364.416.416,0,0,0-.389-.43.4.4,0,0,0-.439.364" transform="translate(-286.412 -76.812)" fill="#263238"/>
        <path id="Path_17272" data-name="Path 17272" d="M462.475,122.991c.05.056.371-.169.819-.157s.769.245.819.191c.024-.024-.026-.123-.166-.231a1.143,1.143,0,0,0-.654-.22,1.1,1.1,0,0,0-.653.193c-.14.1-.189.2-.165.224" transform="translate(-286.152 -75.843)" fill="#263238"/>
        <path id="Path_17273" data-name="Path 17273" d="M474.8,125.247a.416.416,0,0,0,.39.43.4.4,0,0,0,.438-.364.416.416,0,0,0-.39-.43.4.4,0,0,0-.438.364" transform="translate(-293.779 -77.27)" fill="#263238"/>
        <path id="Path_17274" data-name="Path 17274" d="M474.707,123.733c.05.056.372-.169.819-.157s.769.245.819.191c.024-.024-.025-.123-.166-.231a1.143,1.143,0,0,0-.654-.22,1.1,1.1,0,0,0-.653.193c-.14.1-.189.2-.165.224" transform="translate(-293.721 -76.302)" fill="#263238"/>
        <path id="Path_17275" data-name="Path 17275" d="M468.4,126.96a2.963,2.963,0,0,0-.723-.15c-.114-.015-.221-.04-.239-.119a.582.582,0,0,1,.085-.337l.36-.861a14.958,14.958,0,0,0,.817-2.256,15.009,15.009,0,0,0-1,2.185q-.181.454-.346.867a.658.658,0,0,0-.071.447.287.287,0,0,0,.183.172.792.792,0,0,0,.193.032,2.912,2.912,0,0,0,.737.02" transform="translate(-289.12 -76.253)" fill="#263238"/>
        <path id="Path_17276" data-name="Path 17276" d="M469.065,145.168a8.251,8.251,0,0,0,4.371-1.046s-1.111,2.2-4.347,1.813Z" transform="translate(-290.233 -89.175)" fill="#a36957"/>
        <path id="Path_17277" data-name="Path 17277" d="M475.927,120.049c-.092.14-.432.078-.813.01s-.719-.144-.753-.308.356-.375.865-.277.795.444.7.576" transform="translate(-293.508 -73.909)" fill="#263238"/>
        <path id="Path_17278" data-name="Path 17278" d="M464.109,118.728c-.035.163-.4.222-.819.244s-.789-.009-.838-.168.305-.4.811-.427.882.193.846.351" transform="translate(-286.139 -73.244)" fill="#263238"/>
        <path id="Path_17279" data-name="Path 17279" d="M469.8,135.782a.227.227,0,0,0-.248.113.254.254,0,1,0,.153-.122" transform="translate(-290.518 -84.004)" fill="#a36957"/>
        <path id="Path_17280" data-name="Path 17280" d="M469.676,135.772c.02-.018-.072-.128-.267-.085a.339.339,0,0,0-.245.239.383.383,0,0,0,.135.405.377.377,0,0,0,.429,0,.322.322,0,0,0,.138-.318c-.039-.2-.188-.233-.192-.205s.052.095.039.214a.169.169,0,0,1-.091.14.193.193,0,0,1-.193-.008.2.2,0,0,1-.069-.185.193.193,0,0,1,.1-.141c.106-.06.2-.032.214-.059" transform="translate(-290.286 -83.95)" fill="#263238"/>
        <path id="Path_17281" data-name="Path 17281" d="M471.423,111.447c-.386.894-1.327,1.582-1.2,2.547.084.623.484,1.2.406,1.827-.1.783-.911,1.326-1.026,2.106-.141.958.79,1.7,1.162,2.6.542,1.3-.151,2.765-.168,4.174a4.476,4.476,0,0,0,3.963,4.353,2.418,2.418,0,0,0,2.3-.939,9.614,9.614,0,0,0,.521-2.086c.332-1.021,1.305-1.767,1.51-2.82.374-1.92-1.947-3.509-1.795-5.46a13.538,13.538,0,0,1,.8-2.367,3.468,3.468,0,0,0-.681-3.085c-.573-.681-1.4-1.129-1.892-1.873a8.2,8.2,0,0,1-.781-2.9,7.31,7.31,0,0,0-11.61-4.282,2.373,2.373,0,0,0,2.025,2.933c2.579.42,3.774-.065,4.065.969a2.733,2.733,0,0,0,.773,2.361c1.066,1.154,2.069.912,1.622,1.947" transform="translate(-286.411 -62.949)" fill="#263238"/>
        <path id="Path_17282" data-name="Path 17282" d="M489.1,140.28a1,1,0,0,1-.235-.024,3.434,3.434,0,0,1-.656-.177,4.626,4.626,0,0,1-2-1.477,5.219,5.219,0,0,1-.848-1.51,6.056,6.056,0,0,1-.347-1.957,7.971,7.971,0,0,1,.275-2.177,9.481,9.481,0,0,1,.365-1.1,10.985,10.985,0,0,0,.419-1.1,2.063,2.063,0,0,0,0-1.118,6.132,6.132,0,0,0-.434-1.044,6.971,6.971,0,0,1-.444-1.033,2.232,2.232,0,0,1-.08-1.1,7.762,7.762,0,0,1,.846-1.795,3.416,3.416,0,0,0,.345-1.625,3.834,3.834,0,0,0-.85-2.249,6.617,6.617,0,0,0-.648-.631,2.635,2.635,0,0,1,.706.58,3.821,3.821,0,0,1,.932,2.293,3.53,3.53,0,0,1-.337,1.7,7.9,7.9,0,0,0-.814,1.758,3.211,3.211,0,0,0,.519,2.008,6.212,6.212,0,0,1,.449,1.078,2.256,2.256,0,0,1,.005,1.221,10.884,10.884,0,0,1-.427,1.117,9.331,9.331,0,0,0-.36,1.08,7.888,7.888,0,0,0-.28,2.124,5.5,5.5,0,0,0,1.122,3.383,4.707,4.707,0,0,0,1.914,1.493c.54.218.868.251.863.273" transform="translate(-299.976 -74.354)" fill="#455a64"/>
        <path id="Path_17283" data-name="Path 17283" d="M476.656,111.5a2.711,2.711,0,0,1-.568.085,5.906,5.906,0,0,1-1.57-.041,2.985,2.985,0,0,1-1.981-1.2,6.442,6.442,0,0,1-.52-1.28,2.115,2.115,0,0,0-.868-1.072,6.19,6.19,0,0,0-2.674-.7,4.642,4.642,0,0,1-2.222-.692,2.2,2.2,0,0,1-.91-1.273,1.374,1.374,0,0,1-.029-.43c.014-.1.024-.148.031-.147a2.753,2.753,0,0,0,.073.558,2.2,2.2,0,0,0,.915,1.177,4.627,4.627,0,0,0,2.163.625,6.2,6.2,0,0,1,2.76.713,2.3,2.3,0,0,1,.943,1.169,6.561,6.561,0,0,0,.492,1.251,2.88,2.88,0,0,0,1.854,1.163,6.668,6.668,0,0,0,1.539.1,3.947,3.947,0,0,1,.573-.008" transform="translate(-287.908 -64.815)" fill="#455a64"/>
        <path id="Path_17284" data-name="Path 17284" d="M476.845,107.595a1.169,1.169,0,0,1-.447.066,2.734,2.734,0,0,1-1.912-.764,3.609,3.609,0,0,1-.591-.789,3.285,3.285,0,0,0-1.388-1.591,4.556,4.556,0,0,0-2.136-.188,6.558,6.558,0,0,1-1.823-.015,2.266,2.266,0,0,1-1.125-.5,1.279,1.279,0,0,1-.225-.252c-.043-.064-.062-.1-.056-.1s.107.122.33.3a2.347,2.347,0,0,0,1.1.425,6.868,6.868,0,0,0,1.784-.028,4.586,4.586,0,0,1,2.232.188,2.2,2.2,0,0,1,.91.756,10.173,10.173,0,0,1,.555.924,3.568,3.568,0,0,0,.549.765,2.627,2.627,0,0,0,.655.484,2.833,2.833,0,0,0,1.143.32c.284.016.443-.006.445.011" transform="translate(-289.043 -64.012)" fill="#455a64"/>
        <path id="Path_17285" data-name="Path 17285" d="M494.688,141.189c-.019-.009.1-.254.243-.724a6.561,6.561,0,0,0,.254-2.044,6.276,6.276,0,0,0-.813-2.911c-.278-.5-.7-.944-1.048-1.493a2.7,2.7,0,0,1-.384-.92,2.083,2.083,0,0,1,.085-1.029,12.012,12.012,0,0,0,.679-1.817,2.508,2.508,0,0,0-.495-1.653,7.683,7.683,0,0,1-.408-.758,2.741,2.741,0,0,1-.215-.8,7.028,7.028,0,0,1,.043-1.454,3.845,3.845,0,0,0-.181-2.026,1.843,1.843,0,0,0-.45-.6s.017,0,.046.022a.753.753,0,0,1,.121.087,1.4,1.4,0,0,1,.352.454,3.772,3.772,0,0,1,.251,2.072,7.159,7.159,0,0,0-.02,1.422,3.615,3.615,0,0,0,.618,1.481,5.048,5.048,0,0,1,.415.81,1.924,1.924,0,0,1,.115.963,11.409,11.409,0,0,1-.682,1.851,1.883,1.883,0,0,0-.079.933,2.525,2.525,0,0,0,.355.854c.327.527.753.98,1.041,1.5a6.293,6.293,0,0,1,.795,3,6.177,6.177,0,0,1-.321,2.07,4.533,4.533,0,0,1-.22.527.751.751,0,0,1-.1.173" transform="translate(-304.422 -76.086)" fill="#455a64"/>
        <path id="Path_17286" data-name="Path 17286" d="M453.909,272.862s-2.568-24.34-2.715-33.334,4.044-17.868,4.044-17.868l16.425-.695s3.247,9.126,3.3,12.959c.113,7.449-1.979,14.805-1.738,20.715l.549,18.223" transform="translate(-279.173 -136.722)" fill="#263238"/>
        <path id="Path_17287" data-name="Path 17287" d="M477.866,278.6a2.128,2.128,0,0,1-.268.2l-.15.106c-.051.043-.1.1-.159.154a2.464,2.464,0,0,0-.366.409,9.094,9.094,0,0,0-1.285,3.258,11,11,0,0,1-.832,2.316,4.176,4.176,0,0,1-.365.576c-.071.091-.136.189-.215.278l-.253.253a4.086,4.086,0,0,1-1.235.792c-.92.4-1.958.594-2.906,1.07a4.59,4.59,0,0,0-2.108,2.4c-.462,1.033-.743,2.117-1.129,3.13a5.67,5.67,0,0,1-1.714,2.6,4.708,4.708,0,0,1-2.688.843c-.884.051-1.7.026-2.438.137a3.849,3.849,0,0,0-1.838.694,2.561,2.561,0,0,0-.854,1.2,1.8,1.8,0,0,0-.064.935c.042.214.1.316.089.322a.964.964,0,0,1-.128-.313,1.767,1.767,0,0,1,.029-.967,2.612,2.612,0,0,1,.859-1.267,3.931,3.931,0,0,1,1.887-.746c.748-.122,1.576-.1,2.448-.163a4.558,4.558,0,0,0,2.588-.823,5.518,5.518,0,0,0,1.644-2.524c.379-1,.658-2.087,1.13-3.143a4.774,4.774,0,0,1,2.2-2.495c.986-.49,2.024-.675,2.921-1.064a3.919,3.919,0,0,0,1.189-.753l.243-.239c.076-.083.138-.178.207-.265a4.04,4.04,0,0,0,.356-.553,11.03,11.03,0,0,0,.841-2.275,8.843,8.843,0,0,1,1.36-3.268,2.4,2.4,0,0,1,.387-.406c.061-.054.114-.107.168-.149l.158-.1a2.055,2.055,0,0,1,.291-.17" transform="translate(-282.71 -172.384)" fill="#fafafa"/>
        <path id="Path_17288" data-name="Path 17288" d="M475.422,249.058a1.953,1.953,0,0,1,.021.326,4.048,4.048,0,0,1-.114.931,6.02,6.02,0,0,1-1.856,2.869,11,11,0,0,1-1.924,1.405c-.736.437-1.548.852-2.38,1.322a12.462,12.462,0,0,0-2.434,1.712,9.4,9.4,0,0,0-1.844,2.592,23.836,23.836,0,0,1-1.6,2.817,6.719,6.719,0,0,1-1.042,1.153,6.561,6.561,0,0,1-1.24.826,15.323,15.323,0,0,1-2.552.978c-.815.252-1.575.475-2.24.754a8.738,8.738,0,0,0-1.708.915,5.314,5.314,0,0,0-1.072.989,5.146,5.146,0,0,0-.644,1.069,2,2,0,0,1,.106-.309,3.792,3.792,0,0,1,.477-.808,5.217,5.217,0,0,1,1.069-1.031,8.631,8.631,0,0,1,1.719-.954c.67-.29,1.434-.523,2.245-.782a15.425,15.425,0,0,0,2.517-.983,6.429,6.429,0,0,0,1.2-.807,6.548,6.548,0,0,0,1.008-1.123,24.156,24.156,0,0,0,1.582-2.8,9.536,9.536,0,0,1,1.886-2.64,12.493,12.493,0,0,1,2.479-1.73c.839-.468,1.652-.878,2.386-1.305a11.031,11.031,0,0,0,1.912-1.367,6.075,6.075,0,0,0,1.876-2.785,5.913,5.913,0,0,0,.167-1.238" transform="translate(-280.165 -154.104)" fill="#fafafa"/>
        <path id="Path_17289" data-name="Path 17289" d="M451.178,240.659a.244.244,0,0,1-.033-.074,1.632,1.632,0,0,1-.036-1.141,3.737,3.737,0,0,1,2.414-2.226c.676-.233,1.443-.372,2.243-.582a4.2,4.2,0,0,0,3.107-2.312,11.648,11.648,0,0,0,.569-1.369,14.91,14.91,0,0,1,1.209-2.924,4.669,4.669,0,0,1,2.487-1.934,22.821,22.821,0,0,1,2.853-.723,9.437,9.437,0,0,0,2.482-.845,5.2,5.2,0,0,0,1.679-1.512,5.67,5.67,0,0,0,1.067-3.089,8.816,8.816,0,0,0-.081-1.218,4.023,4.023,0,0,1,.158,1.22,5.632,5.632,0,0,1-1.03,3.168,5.31,5.31,0,0,1-1.713,1.575,9.5,9.5,0,0,1-2.521.879,23.278,23.278,0,0,0-2.827.727,4.486,4.486,0,0,0-2.387,1.857,14.969,14.969,0,0,0-1.194,2.883,11.729,11.729,0,0,1-.585,1.392,4.358,4.358,0,0,1-3.234,2.384c-.811.2-1.573.336-2.24.556a3.694,3.694,0,0,0-2.385,2.116,1.857,1.857,0,0,0-.073.883c.043.2.077.306.068.309" transform="translate(-279.074 -136.564)" fill="#fafafa"/>
        <path id="Path_17290" data-name="Path 17290" d="M477.405,327.018a1.085,1.085,0,0,1,.026.239,2.523,2.523,0,0,1-.07.688,3.914,3.914,0,0,1-1.441,2.06,6.42,6.42,0,0,1-1.512.9c-.582.249-1.226.447-1.9.656a15.657,15.657,0,0,0-2.062.753,5.956,5.956,0,0,0-1.877,1.369c-.556.583-1.036,1.219-1.568,1.781a7.178,7.178,0,0,1-1.757,1.375,7.72,7.72,0,0,1-3.626.943,7.168,7.168,0,0,1-2.5-.415,4.523,4.523,0,0,1-.633-.271,1.042,1.042,0,0,1-.21-.116,1.112,1.112,0,0,1,.227.08,6.05,6.05,0,0,0,.642.234,7.512,7.512,0,0,0,2.468.348,7.7,7.7,0,0,0,3.539-.962,7.055,7.055,0,0,0,1.7-1.348c.522-.554,1-1.19,1.567-1.785a6.106,6.106,0,0,1,1.937-1.408,15.447,15.447,0,0,1,2.091-.752c.674-.2,1.315-.4,1.888-.633a6.387,6.387,0,0,0,1.488-.856,3.928,3.928,0,0,0,1.453-1.969,4.505,4.505,0,0,0,.119-.908" transform="translate(-283.561 -202.342)" fill="#fafafa"/>
        <path id="Path_17291" data-name="Path 17291" d="M476.984,163.433l-3.176.075a5.194,5.194,0,0,1-.718,1.8,54.829,54.829,0,0,1-5.226-13.269c.074-.248.162-.522.273-.829a3.518,3.518,0,0,0-.042-1.4c-.089-.553-.244-1.3-.29-1.641-.141-1.049-.31-1.214-.676-1.095-.5.161.2,2.946-.2,3.006-.219.033-.487-.921-.565-1.7a12.733,12.733,0,0,0-.69-3.351c-.379-.235-.71.137-.614.917s.219,3.141-.194,3.173-.75-3.96-.75-3.96.064-.868-.414-.848c-.864.037-.189,4.246-.115,4.644.052.277-.4.328-.436.027s-.249-3.992-1.129-3.962c-.675.022.523,3.468.144,4.266s-.642-2.712-1.287-2.664c-.24.018-.417.065.024,2.052a44.769,44.769,0,0,0,1.541,4.657c1.021,5.509,5.5,23.133,12.532,19.907,3.933-1.8,5.528-9.806,5.528-9.806Z" transform="translate(-285.012 -89.293)" fill="#b78876"/>
        <path id="Path_17292" data-name="Path 17292" d="M467.725,149.175a.215.215,0,0,0,.091-.013.2.2,0,0,0,.144-.22c-.009-.236-.046-.581-.1-1.027a14.644,14.644,0,0,1-.175-1.624c-.005-.319,0-.662.021-1.026a3.534,3.534,0,0,1,.056-.549c.03-.173.145-.37.279-.347l.015,0h.007c.135-.006.242.1.285.261a1.5,1.5,0,0,1,.05.51v.012a30.891,30.891,0,0,0,.408,3.183c.031.143.063.286.107.43a2.131,2.131,0,0,0,.079.218.681.681,0,0,0,.065.113.207.207,0,0,0,.159.1.285.285,0,0,0,.24-.2,1.15,1.15,0,0,0,.071-.234,3.6,3.6,0,0,0,.061-.465,13.92,13.92,0,0,0-.026-1.907,4.382,4.382,0,0,1-.04-.955.527.527,0,0,1,.188-.356.206.206,0,0,1,.164-.021.374.374,0,0,1,.091.039.123.123,0,0,1,.042.056,4.776,4.776,0,0,1,.265.958c.068.337.126.681.18,1.029s.1.7.144,1.054a7.42,7.42,0,0,0,.176,1.085,3.708,3.708,0,0,0,.172.539.979.979,0,0,0,.157.27.226.226,0,0,0,.228.083.244.244,0,0,0,.156-.171,1.863,1.863,0,0,0,.04-.593c-.008-.189-.024-.376-.04-.563-.027-.321-.058-.639-.069-.952a3.2,3.2,0,0,1,.011-.459.73.73,0,0,1,.046-.2.172.172,0,0,1,.037-.057c.006-.007.01,0,.015-.01l.05-.014c.253-.1.337.247.4.531s.1.6.155.9c.1.6.229,1.2.3,1.771a2.042,2.042,0,0,1-.033.82l-.268.818-.008.024.006.026a44.113,44.113,0,0,0,1.706,5.513c.6,1.627,1.207,3.032,1.74,4.182s1.008,2.037,1.337,2.642l.4.682a1.654,1.654,0,0,0,.147.229,1.575,1.575,0,0,0-.117-.246l-.367-.7c-.31-.614-.767-1.507-1.281-2.663s-1.1-2.563-1.692-4.19a45.231,45.231,0,0,1-1.668-5.494l0,.05.267-.807a2.216,2.216,0,0,0,.047-.912c-.068-.6-.193-1.175-.292-1.779-.059-.3-.095-.6-.157-.917a1.792,1.792,0,0,0-.155-.472.458.458,0,0,0-.211-.212.466.466,0,0,0-.3-.012l-.064.018a.342.342,0,0,0-.087.049.37.37,0,0,0-.1.136.915.915,0,0,0-.064.26,3.391,3.391,0,0,0-.013.492c.011.323.042.643.069.963.016.186.032.371.039.554a1.765,1.765,0,0,1-.028.512c-.01.04-.028.032-.007.052v0c0-.013,0,.019,0,.014v0a.037.037,0,0,1,0-.013s.011-.017.005-.018a.069.069,0,0,1-.022-.021.819.819,0,0,1-.117-.207,3.519,3.519,0,0,1-.162-.506,7.142,7.142,0,0,1-.172-1.057c-.043-.359-.093-.712-.148-1.062s-.115-.7-.184-1.038a4.721,4.721,0,0,0-.29-1.018.342.342,0,0,0-.12-.134.584.584,0,0,0-.142-.06.415.415,0,0,0-.323.045.715.715,0,0,0-.282.5,1.824,1.824,0,0,0-.006.523c.019.163.035.322.047.483a13.853,13.853,0,0,1,.035,1.878,3.413,3.413,0,0,1-.055.44,1.014,1.014,0,0,1-.058.2.263.263,0,0,1-.042.071c-.014.032-.026-.008-.025.044.019-.039,0-.018-.014-.05a.513.513,0,0,1-.045-.079,1.914,1.914,0,0,1-.072-.2c-.043-.135-.075-.276-.106-.414a31.685,31.685,0,0,1-.431-3.159v.012a1.631,1.631,0,0,0-.062-.567.578.578,0,0,0-.149-.254.394.394,0,0,0-.282-.1l.021,0a.33.33,0,0,0-.329.157.83.83,0,0,0-.117.3,3.645,3.645,0,0,0-.051.573c-.013.366-.016.712-.006,1.034a13.618,13.618,0,0,0,.21,1.632c.066.443.116.787.137,1.018a.181.181,0,0,1-.111.2c-.053.023-.085.027-.084.031" transform="translate(-289.306 -89.24)" fill="#a36957"/>
        <path id="Path_17293" data-name="Path 17293" d="M390.333,208.226a8.189,8.189,0,0,0-2.209.253c-1.969.518-5.368,2.578-5.508,5.122h2.469s-1.382,2.943-.976,2.67a31.68,31.68,0,0,0,3.153-2.839Z" transform="translate(-236.743 -128.837)" fill="#b78876"/>
        <path id="Path_17294" data-name="Path 17294" d="M489.861,77.218c-.055,0-.279-2.036-.5-4.558s-.357-4.572-.3-4.577.278,2.036.5,4.559.357,4.571.3,4.576" transform="translate(-302.596 -42.126)" fill="#263238"/>
        <path id="Path_17295" data-name="Path 17295" d="M507.236,68.41c.045.032-1.623,2.453-3.725,5.407s-3.843,5.324-3.887,5.292,1.623-2.452,3.725-5.407,3.842-5.323,3.887-5.291" transform="translate(-309.141 -42.328)" fill="#263238"/>
        <path id="Path_17296" data-name="Path 17296" d="M517.218,97.179c.011.054-1.936.5-4.347.995s-4.376.854-4.387.8,1.935-.5,4.347-.995,4.376-.854,4.387-.8" transform="translate(-314.623 -60.126)" fill="#263238"/>
      </g>
    </g>
    <g id="Group_14382" data-name="Group 14382">
      <g id="Group_14381" data-name="Group 14381" clip-path="url(#clip-path)">
        <path id="Path_17297" data-name="Path 17297" d="M166.54,226.949,153.059,296.26l-1.765,9.074,90-.444c4.039-.02,7.619-3.606,8.918-8.935l15.959-65.437c.986-4.045-1.178-8.252-4.244-8.249l-91.09.1c-2.011,0-3.77,1.878-4.3,4.584" transform="translate(-93.613 -137.529)" fill="#e8505b"/>
        <g id="Group_14377" data-name="Group 14377" transform="translate(57.681 84.74)" opacity="0.5">
          <g id="Group_14376" data-name="Group 14376">
            <g id="Group_14375" data-name="Group 14375" clip-path="url(#clip-path-9)">
              <path id="Path_17298" data-name="Path 17298" d="M166.54,226.949,153.059,296.26l-1.765,9.074,90-.444c4.039-.02,7.619-3.606,8.918-8.935l15.959-65.437c.986-4.045-1.178-8.252-4.244-8.249l-91.09.1c-2.011,0-3.77,1.878-4.3,4.584" transform="translate(-151.294 -222.27)"/>
            </g>
          </g>
        </g>
        <path id="Path_17299" data-name="Path 17299" d="M179.2,270.5l-9.529-76.787a6.044,6.044,0,0,0-5.856-5.484l-20.9.068a5.694,5.694,0,0,0-4.127,1.83l-9.922,10.547-58.113.3a6.182,6.182,0,0,0-5.809,7.154L73.8,279.108a6.044,6.044,0,0,0,5.848,5.48l101.278-.2c11.28.234,12.357-3.1,12.357-3.1-12.927,2.865-14.078-10.777-14.08-10.786" transform="translate(-40.157 -116.469)" fill="#e8505b"/>
        <g id="Group_14380" data-name="Group 14380" transform="translate(65.654 114.188)" opacity="0.5">
          <g id="Group_14379" data-name="Group 14379">
            <g id="Group_14378" data-name="Group 14378" clip-path="url(#clip-path-10)">
              <path id="Path_17300" data-name="Path 17300" d="M201.929,325.307l-3.416,3.668L172.206,305.31l3.416-3.669Z" transform="translate(-172.206 -300.828)" fill="#fff"/>
              <path id="Path_17301" data-name="Path 17301" d="M198.822,299.508l3.775,3.4-23.8,25.565-3.775-3.4Z" transform="translate(-173.946 -299.508)" fill="#fff"/>
            </g>
          </g>
        </g>
      </g>
    </g>
  </g>
</svg>
