<svg xmlns="http://www.w3.org/2000/svg" xmlns:xlink="http://www.w3.org/1999/xlink" width="192.72" height="183.063" viewBox="0 0 192.72 183.063">
  <defs>
    <clipPath id="clip-path">
      <rect id="Rectangle_5711" data-name="Rectangle 5711" width="192.72" height="183.063" fill="none"/>
    </clipPath>
    <clipPath id="clip-path-2">
      <rect id="Rectangle_5703" data-name="Rectangle 5703" width="30.276" height="30.276" fill="#ffeaed"/>
    </clipPath>
    <clipPath id="clip-path-3">
      <rect id="Rectangle_5705" data-name="Rectangle 5705" width="69.424" height="3.316" fill="#ffeaed"/>
    </clipPath>
    <clipPath id="clip-path-4">
      <rect id="Rectangle_5707" data-name="Rectangle 5707" width="25.773" height="25.773" fill="#ffeaed"/>
    </clipPath>
    <clipPath id="clip-path-5">
      <rect id="Rectangle_5708" data-name="Rectangle 5708" width="44.839" height="44.839" fill="#ffeaed"/>
    </clipPath>
    <clipPath id="clip-path-6">
      <rect id="Rectangle_5709" data-name="Rectangle 5709" width="33.682" height="33.682" fill="none"/>
    </clipPath>
    <clipPath id="clip-path-7">
      <rect id="Rectangle_5710" data-name="Rectangle 5710" width="41.18" height="26.931" fill="#ffeaed"/>
    </clipPath>
  </defs>
  <g id="Group_13853" data-name="Group 13853" clip-path="url(#clip-path)">
    <path id="Path_16623" data-name="Path 16623" d="M187.152,102.454a81,81,0,1,1-81-81,81,81,0,0,1,81,81" transform="translate(-0.457 -0.39)" fill="rgba(249,65,90,0.11)"/>
    <path id="Path_16624" data-name="Path 16624" d="M172.666,153.1H35.45V63.917A10.966,10.966,0,0,1,46.415,52.951H161.7a10.966,10.966,0,0,1,10.965,10.966Z" transform="translate(-0.644 -0.962)" fill="#ff8596"/>
    <path id="Path_16625" data-name="Path 16625" d="M161.7,52.952H46.415A10.965,10.965,0,0,0,35.45,63.917V64.9A10.965,10.965,0,0,1,46.415,53.934H161.7A10.965,10.965,0,0,1,172.666,64.9v-.982A10.965,10.965,0,0,0,161.7,52.952" transform="translate(-0.644 -0.962)" fill="#fff"/>
    <path id="Path_16626" data-name="Path 16626" d="M172.657,153.583H35.441a.49.49,0,0,1-.491-.491V63.908A11.469,11.469,0,0,1,46.406,52.452a.491.491,0,1,1,0,.982A10.486,10.486,0,0,0,35.932,63.908V152.6H172.166V63.908a10.486,10.486,0,0,0-10.474-10.474H51.309a.491.491,0,1,1,0-.982H161.692a11.469,11.469,0,0,1,11.456,11.456v89.184a.491.491,0,0,1-.491.491" transform="translate(-0.635 -0.953)" fill="#f9415a"/>
    <path id="Path_16627" data-name="Path 16627" d="M41.6,147.908v-83.7a5.489,5.489,0,0,1,5.483-5.483H162.364a5.489,5.489,0,0,1,5.483,5.483v83.7Z" transform="translate(-0.756 -1.067)" fill="#fff"/>
    <path id="Path_16628" data-name="Path 16628" d="M161.8,58.536H46.517a5.489,5.489,0,0,0-5.483,5.483V65a5.489,5.489,0,0,1,5.483-5.483H161.8A5.489,5.489,0,0,1,167.285,65v-.982a5.489,5.489,0,0,0-5.483-5.483" transform="translate(-0.746 -1.064)" fill="#f2f7fa"/>
    <path id="Path_16629" data-name="Path 16629" d="M167.275,148.2H41.025a.49.49,0,0,1-.491-.491v-83.7a5.979,5.979,0,0,1,5.973-5.973H161.792a5.979,5.979,0,0,1,5.973,5.973v83.7a.49.49,0,0,1-.491.491m-125.759-.982H166.784V64.009a5,5,0,0,0-4.992-4.992H46.507a5,5,0,0,0-4.992,4.992Z" transform="translate(-0.737 -1.055)" fill="#f9415a"/>
    <path id="Path_16630" data-name="Path 16630" d="M178.756,163.273H28.823a8.141,8.141,0,0,1-8.141-8.141v-.082H186.9v.082a8.141,8.141,0,0,1-8.141,8.141" transform="translate(-0.376 -2.818)" fill="#ff8596"/>
    <path id="Path_16631" data-name="Path 16631" d="M178.756,161.308H28.823a8.139,8.139,0,0,1-7.914-6.26h-.227v.082a8.141,8.141,0,0,0,8.141,8.141H178.756a8.141,8.141,0,0,0,8.141-8.141v-.082h-.227a8.139,8.139,0,0,1-7.914,6.26" transform="translate(-0.376 -2.818)" fill="#f17384"/>
    <path id="Path_16632" data-name="Path 16632" d="M20.681,155.048v.082a8.239,8.239,0,0,0,.052.9H186.844a8,8,0,0,0,.053-.9v-.082Z" transform="translate(-0.376 -2.818)" fill="#fff"/>
    <path id="Path_16633" data-name="Path 16633" d="M178.746,163.754H28.813a8.642,8.642,0,0,1-8.632-8.632.568.568,0,0,1,.491-.573H186.887a.49.49,0,0,1,.491.491,8.66,8.66,0,0,1-8.632,8.715M21.179,155.53a7.669,7.669,0,0,0,7.635,7.242H178.746a7.661,7.661,0,0,0,7.641-7.242Z" transform="translate(-0.367 -2.809)" fill="#f9415a"/>
    <path id="Path_16634" data-name="Path 16634" d="M117.623,158.429H92.442a3.347,3.347,0,0,1-3.347-3.347v-.034H120.97v.034a3.347,3.347,0,0,1-3.347,3.347" transform="translate(-1.619 -2.818)" fill="#f2f7fa"/>
    <path id="Path_16635" data-name="Path 16635" d="M117.614,158.911H92.433a3.843,3.843,0,0,1-3.839-3.838.521.521,0,0,1,.491-.525h31.876a.491.491,0,0,1,.491.491,3.85,3.85,0,0,1-3.838,3.872m-28-3.381a2.86,2.86,0,0,0,2.816,2.4h25.181a2.862,2.862,0,0,0,2.82-2.4Z" transform="translate(-1.61 -2.809)" fill="#f9415a"/>
    <path id="Path_16636" data-name="Path 16636" d="M192.491,163.907H14.859a.491.491,0,0,1,0-.982H192.491a.491.491,0,1,1,0,.982" transform="translate(-0.261 -2.961)" fill="#f9415a"/>
    <g id="Group_13837" data-name="Group 13837" transform="translate(152.708 43.773)" opacity="0.5">
      <g id="Group_13836" data-name="Group 13836">
        <g id="Group_13835" data-name="Group 13835" clip-path="url(#clip-path-2)">
          <path id="Path_16637" data-name="Path 16637" d="M185.811,59.721a15.138,15.138,0,1,1-15.138-15.138,15.138,15.138,0,0,1,15.138,15.138" transform="translate(-155.535 -44.583)" fill="#ffeaed"/>
        </g>
      </g>
    </g>
    <path id="Path_16638" data-name="Path 16638" d="M187.811,57.721a15.138,15.138,0,1,1-15.138-15.138,15.138,15.138,0,0,1,15.138,15.138" transform="translate(-2.863 -0.774)" fill="#ff8596"/>
    <path id="Path_16639" data-name="Path 16639" d="M172.673,43.565a15.128,15.128,0,0,1,15.113,14.647c0-.165.025-.325.025-.491a15.138,15.138,0,0,0-30.276,0c0,.166.02.326.025.491a15.128,15.128,0,0,1,15.113-14.647" transform="translate(-2.863 -0.774)" fill="#fff"/>
    <path id="Path_16640" data-name="Path 16640" d="M172.664,73.34a15.629,15.629,0,1,1,15.629-15.629A15.646,15.646,0,0,1,172.664,73.34m0-30.276a14.647,14.647,0,1,0,14.647,14.647,14.662,14.662,0,0,0-14.647-14.647" transform="translate(-2.854 -0.765)" fill="#f9415a"/>
    <path id="Path_16641" data-name="Path 16641" d="M47.887,63.856a.982.982,0,1,1-.982-.982.982.982,0,0,1,.982.982" transform="translate(-0.835 -1.143)" fill="#f9415a"/>
    <path id="Path_16642" data-name="Path 16642" d="M50.887,63.856a.982.982,0,1,1-.982-.982.982.982,0,0,1,.982.982" transform="translate(-0.889 -1.143)" fill="#f9415a"/>
    <path id="Path_16643" data-name="Path 16643" d="M53.887,63.856a.982.982,0,1,1-.982-.982.982.982,0,0,1,.982.982" transform="translate(-0.944 -1.143)" fill="#f9415a"/>
    <path id="Path_16644" data-name="Path 16644" d="M106.5,55.821a1.2,1.2,0,1,1-1.2-1.2,1.2,1.2,0,0,1,1.2,1.2" transform="translate(-1.892 -0.993)" fill="#f2f7fa"/>
    <path id="Path_16645" data-name="Path 16645" d="M105.3,57.5a1.69,1.69,0,1,1,1.689-1.689A1.691,1.691,0,0,1,105.3,57.5m0-2.4a.708.708,0,1,0,.707.709.709.709,0,0,0-.707-.709" transform="translate(-1.883 -0.984)" fill="#f9415a"/>
    <path id="Path_16646" data-name="Path 16646" d="M145.827,32.1a.491.491,0,0,1-.491-.491,4.659,4.659,0,0,0-4.664-4.664.491.491,0,1,1,0-.982,4.659,4.659,0,0,0,4.664-4.664.491.491,0,1,1,.982,0,4.659,4.659,0,0,0,4.664,4.664.491.491,0,0,1,0,.982,4.657,4.657,0,0,0-4.664,4.664.491.491,0,0,1-.491.491m-2.848-5.645a5.676,5.676,0,0,1,2.848,2.848,5.676,5.676,0,0,1,2.848-2.848,5.683,5.683,0,0,1-2.849-2.848,5.669,5.669,0,0,1-2.847,2.848" transform="translate(-2.548 -0.378)" fill="#f9415a"/>
    <path id="Path_16647" data-name="Path 16647" d="M168.148,33.895h0v-.488l.051.487h-.048m0,0a4.151,4.151,0,0,1-1.067-.133l.249-.949a3.186,3.186,0,0,0,.807.1Zm1.07-.139-.256-.948a3.1,3.1,0,0,0,.76-.316l.493.849a4.124,4.124,0,0,1-1,.415m-3.137-.4a4.084,4.084,0,0,1-.858-.654l.692-.7a3.128,3.128,0,0,0,.654.5Zm4.987-.671-.7-.693a3.111,3.111,0,0,0,.5-.653l.85.491a4.151,4.151,0,0,1-.656.855m-6.5-.836a4.128,4.128,0,0,1-.418-.994l.947-.259a3.1,3.1,0,0,0,.318.758Zm7.574-1.017-.948-.253a3.2,3.2,0,0,0,.106-.816l.982-.041v.041a4.166,4.166,0,0,1-.139,1.069M164,29.78v-.021a4.164,4.164,0,0,1,.134-1.048l.95.249a3.144,3.144,0,0,0-.1.8Zm7.179-.872a3.11,3.11,0,0,0-.322-.756l.844-.5a4.106,4.106,0,0,1,.424.994Zm-5.785-.71-.854-.486a4.2,4.2,0,0,1,.651-.859l.7.689a3.157,3.157,0,0,0-.5.656m4.954-.693a3.1,3.1,0,0,0-.657-.495l.483-.855a4.137,4.137,0,0,1,.861.649Zm-3.809-.468-.5-.846a4.1,4.1,0,0,1,.993-.421l.262.946a3.1,3.1,0,0,0-.758.321m2.39-.335a3.183,3.183,0,0,0-.79-.1l-.03-.982h.03a4.166,4.166,0,0,1,1.036.131Z" transform="translate(-2.981 -0.466)" fill="#f9415a"/>
    <g id="Group_13840" data-name="Group 13840" transform="translate(68.701 140.52)" opacity="0.5">
      <g id="Group_13839" data-name="Group 13839">
        <g id="Group_13838" data-name="Group 13838" clip-path="url(#clip-path-3)">
          <rect id="Rectangle_5704" data-name="Rectangle 5704" width="69.424" height="3.317" transform="translate(0 0)" fill="#ffeaed"/>
        </g>
      </g>
    </g>
    <path id="Path_16648" data-name="Path 16648" d="M139.4,143.1H69.973v-.029a2.908,2.908,0,0,1,2.908-2.908h63.608a2.908,2.908,0,0,1,2.908,2.908Z" transform="translate(-1.272 -2.547)" fill="#f2f7fa"/>
    <path id="Path_16649" data-name="Path 16649" d="M139.388,143.578H69.964a.491.491,0,0,1-.491-.491,3.41,3.41,0,0,1,3.4-3.429H136.48a3.4,3.4,0,0,1,3.4,3.4.516.516,0,0,1-.491.52M70.5,142.6h68.354a2.422,2.422,0,0,0-2.373-1.956H72.871A2.422,2.422,0,0,0,70.5,142.6" transform="translate(-1.263 -2.538)" fill="#f9415a"/>
    <path id="Path_16650" data-name="Path 16650" d="M80.309,139.719a.246.246,0,0,1-.245-.245V104.5a.245.245,0,0,1,.491,0v34.978a.246.246,0,0,1-.245.245" transform="translate(-1.455 -1.895)" fill="#ff8596"/>
    <path id="Path_16651" data-name="Path 16651" d="M78.5,139.719a.246.246,0,0,1-.245-.245V104.5a.245.245,0,1,1,.491,0v34.978a.246.246,0,0,1-.245.245" transform="translate(-1.422 -1.895)" fill="#ff8596"/>
    <path id="Path_16652" data-name="Path 16652" d="M76.7,139.719a.246.246,0,0,1-.245-.245V104.5a.245.245,0,0,1,.491,0v34.978a.246.246,0,0,1-.245.245" transform="translate(-1.39 -1.895)" fill="#ff8596"/>
    <path id="Path_16653" data-name="Path 16653" d="M81.98,139.96H74.885a.49.49,0,0,1-.491-.491V104.491a.49.49,0,0,1,.491-.491H81.98a.49.49,0,0,1,.491.491v34.978a.49.49,0,0,1-.491.491m-6.6-.982H81.49v-34H75.376Z" transform="translate(-1.352 -1.89)" fill="#f9415a"/>
    <path id="Path_16654" data-name="Path 16654" d="M81.952,102.477H74.857a1.986,1.986,0,1,0,1.985,1.986h3.123a1.986,1.986,0,1,0,1.986-1.986" transform="translate(-1.324 -1.863)" fill="#f2f7fa"/>
    <path id="Path_16655" data-name="Path 16655" d="M81.944,106.929a2.481,2.481,0,0,1-2.429-1.985H77.276a2.477,2.477,0,1,1-2.428-2.967h7.1a2.476,2.476,0,0,1,0,4.952m-5.109-2.967h3.123a.492.492,0,0,1,.491.491,1.495,1.495,0,1,0,1.5-1.494h-7.1a1.494,1.494,0,1,0,1.5,1.494.492.492,0,0,1,.491-.491" transform="translate(-1.315 -1.853)" fill="#f9415a"/>
    <path id="Path_16656" data-name="Path 16656" d="M74.887,104.876a.384.384,0,1,1,.384-.384.384.384,0,0,1-.384.384" transform="translate(-1.354 -1.892)" fill="#f9415a"/>
    <path id="Path_16657" data-name="Path 16657" d="M82.113,104.876a.384.384,0,1,1,.384-.384.384.384,0,0,1-.384.384" transform="translate(-1.485 -1.892)" fill="#f9415a"/>
    <path id="Path_16658" data-name="Path 16658" d="M98.189,139.719a.246.246,0,0,1-.245-.245V104.5a.245.245,0,0,1,.491,0v34.978a.246.246,0,0,1-.245.245" transform="translate(-1.78 -1.895)" fill="#ff8596"/>
    <path id="Path_16659" data-name="Path 16659" d="M96.382,139.719a.246.246,0,0,1-.245-.245V104.5a.245.245,0,0,1,.491,0v34.978a.246.246,0,0,1-.245.245" transform="translate(-1.747 -1.895)" fill="#ff8596"/>
    <path id="Path_16660" data-name="Path 16660" d="M94.576,139.719a.246.246,0,0,1-.245-.245V104.5a.245.245,0,1,1,.491,0v34.978a.246.246,0,0,1-.245.245" transform="translate(-1.715 -1.895)" fill="#ff8596"/>
    <path id="Path_16661" data-name="Path 16661" d="M99.861,139.96h-7.1a.491.491,0,0,1-.491-.491V104.491a.49.49,0,0,1,.491-.491h7.1a.49.49,0,0,1,.491.491v34.978a.491.491,0,0,1-.491.491m-6.6-.982H99.37v-34H93.256Z" transform="translate(-1.677 -1.89)" fill="#f9415a"/>
    <path id="Path_16662" data-name="Path 16662" d="M99.833,102.477H92.738a1.986,1.986,0,1,0,1.985,1.986h3.123a1.986,1.986,0,1,0,1.986-1.986" transform="translate(-1.649 -1.863)" fill="#f2f7fa"/>
    <path id="Path_16663" data-name="Path 16663" d="M99.824,106.929a2.481,2.481,0,0,1-2.429-1.985H95.156a2.477,2.477,0,1,1-2.428-2.967h7.1a2.476,2.476,0,1,1,0,4.952m-5.109-2.967h3.123a.492.492,0,0,1,.491.491,1.495,1.495,0,1,0,1.5-1.494h-7.1a1.494,1.494,0,1,0,1.5,1.494.492.492,0,0,1,.491-.491" transform="translate(-1.64 -1.853)" fill="#f9415a"/>
    <path id="Path_16664" data-name="Path 16664" d="M92.767,104.876a.384.384,0,1,1,.384-.384.384.384,0,0,1-.384.384" transform="translate(-1.679 -1.892)" fill="#f9415a"/>
    <path id="Path_16665" data-name="Path 16665" d="M99.994,104.876a.384.384,0,1,1,.384-.384.384.384,0,0,1-.384.384" transform="translate(-1.81 -1.892)" fill="#f9415a"/>
    <path id="Path_16666" data-name="Path 16666" d="M116.07,139.719a.246.246,0,0,1-.245-.245V104.5a.245.245,0,0,1,.491,0v34.978a.246.246,0,0,1-.245.245" transform="translate(-2.105 -1.895)" fill="#ff8596"/>
    <path id="Path_16667" data-name="Path 16667" d="M114.263,139.719a.246.246,0,0,1-.245-.245V104.5a.245.245,0,0,1,.491,0v34.978a.246.246,0,0,1-.245.245" transform="translate(-2.072 -1.895)" fill="#ff8596"/>
    <path id="Path_16668" data-name="Path 16668" d="M112.456,139.719a.246.246,0,0,1-.245-.245V104.5a.245.245,0,0,1,.491,0v34.978a.246.246,0,0,1-.245.245" transform="translate(-2.039 -1.895)" fill="#ff8596"/>
    <path id="Path_16669" data-name="Path 16669" d="M117.741,139.96h-7.095a.49.49,0,0,1-.491-.491V104.491a.49.49,0,0,1,.491-.491h7.095a.49.49,0,0,1,.491.491v34.978a.49.49,0,0,1-.491.491m-6.6-.982h6.114v-34h-6.114Z" transform="translate(-2.002 -1.89)" fill="#f9415a"/>
    <path id="Path_16670" data-name="Path 16670" d="M117.713,102.477h-7.095a1.986,1.986,0,1,0,1.985,1.986h3.123a1.986,1.986,0,1,0,1.986-1.986" transform="translate(-1.974 -1.863)" fill="#f2f7fa"/>
    <path id="Path_16671" data-name="Path 16671" d="M117.7,106.929a2.481,2.481,0,0,1-2.429-1.985h-2.239a2.477,2.477,0,1,1-2.428-2.967h7.1a2.476,2.476,0,1,1,0,4.952m-5.109-2.967h3.123a.492.492,0,0,1,.491.491,1.495,1.495,0,1,0,1.5-1.494h-7.1a1.494,1.494,0,1,0,1.5,1.494.492.492,0,0,1,.491-.491" transform="translate(-1.965 -1.853)" fill="#f9415a"/>
    <path id="Path_16672" data-name="Path 16672" d="M110.648,104.876a.384.384,0,1,1,.384-.384.384.384,0,0,1-.384.384" transform="translate(-2.004 -1.892)" fill="#f9415a"/>
    <path id="Path_16673" data-name="Path 16673" d="M117.874,104.876a.384.384,0,1,1,.384-.384.384.384,0,0,1-.384.384" transform="translate(-2.135 -1.892)" fill="#f9415a"/>
    <path id="Path_16674" data-name="Path 16674" d="M133.95,139.719a.246.246,0,0,1-.245-.245V104.5a.245.245,0,0,1,.491,0v34.978a.246.246,0,0,1-.245.245" transform="translate(-2.43 -1.895)" fill="#ff8596"/>
    <path id="Path_16675" data-name="Path 16675" d="M132.143,139.719a.246.246,0,0,1-.245-.245V104.5a.245.245,0,1,1,.491,0v34.978a.246.246,0,0,1-.245.245" transform="translate(-2.397 -1.895)" fill="#ff8596"/>
    <path id="Path_16676" data-name="Path 16676" d="M130.337,139.719a.246.246,0,0,1-.245-.245V104.5a.245.245,0,0,1,.491,0v34.978a.246.246,0,0,1-.245.245" transform="translate(-2.364 -1.895)" fill="#ff8596"/>
    <path id="Path_16677" data-name="Path 16677" d="M135.622,139.96h-7.1a.491.491,0,0,1-.491-.491V104.491a.49.49,0,0,1,.491-.491h7.1a.49.49,0,0,1,.491.491v34.978a.491.491,0,0,1-.491.491m-6.6-.982h6.114v-34h-6.114Z" transform="translate(-2.327 -1.89)" fill="#f9415a"/>
    <path id="Path_16678" data-name="Path 16678" d="M135.593,102.477H128.5a1.986,1.986,0,1,0,1.985,1.986h3.123a1.986,1.986,0,1,0,1.986-1.986" transform="translate(-2.299 -1.863)" fill="#f2f7fa"/>
    <path id="Path_16679" data-name="Path 16679" d="M135.585,106.929a2.481,2.481,0,0,1-2.429-1.985h-2.239a2.477,2.477,0,1,1-2.428-2.967h7.1a2.476,2.476,0,1,1,0,4.952m-5.109-2.967H133.6a.492.492,0,0,1,.491.491,1.495,1.495,0,1,0,1.5-1.494h-7.1a1.494,1.494,0,1,0,1.5,1.494.492.492,0,0,1,.491-.491" transform="translate(-2.29 -1.853)" fill="#f9415a"/>
    <path id="Path_16680" data-name="Path 16680" d="M128.528,104.876a.384.384,0,1,1,.384-.384.384.384,0,0,1-.384.384" transform="translate(-2.329 -1.892)" fill="#f9415a"/>
    <path id="Path_16681" data-name="Path 16681" d="M135.754,104.876a.384.384,0,1,1,.384-.384.384.384,0,0,1-.384.384" transform="translate(-2.46 -1.892)" fill="#f9415a"/>
    <rect id="Rectangle_5706" data-name="Rectangle 5706" width="59.761" height="2.938" transform="translate(73.533 97.677)" fill="#f2f7fa"/>
    <path id="Path_16682" data-name="Path 16682" d="M134.647,102.9H74.885a.49.49,0,0,1-.491-.491V99.476a.49.49,0,0,1,.491-.491h59.762a.491.491,0,0,1,.491.491v2.937a.49.49,0,0,1-.491.491m-59.271-.982h58.78V99.966H75.376Z" transform="translate(-1.352 -1.799)" fill="#f9415a"/>
    <path id="Path_16683" data-name="Path 16683" d="M104.674,66.333,69.346,97.142v2.063H140V97.142Z" transform="translate(-1.26 -1.206)" fill="#f2f7fa"/>
    <path id="Path_16684" data-name="Path 16684" d="M139.992,99.687H69.337a.491.491,0,0,1-.491-.491V97.135a.493.493,0,0,1,.168-.37l35.328-30.811a.491.491,0,0,1,.645,0l35.328,30.811a.49.49,0,0,1,.168.37V99.2a.49.49,0,0,1-.491.491m-70.164-.982H139.5V97.357L104.664,66.976,69.828,97.357Z" transform="translate(-1.251 -1.197)" fill="#f9415a"/>
    <path id="Path_16685" data-name="Path 16685" d="M79.909,94.549l24.957-21.765,24.957,21.765Z" transform="translate(-1.452 -1.323)" fill="#ff8596"/>
    <path id="Path_16686" data-name="Path 16686" d="M129.833,95.031H79.9a.491.491,0,0,1-.323-.861L104.534,72.4a.491.491,0,0,1,.645,0l24.883,21.7a.491.491,0,0,1-.23.925M81.21,94.049H128.5L104.856,73.426Z" transform="translate(-1.443 -1.314)" fill="#f9415a"/>
    <g id="Group_13843" data-name="Group 13843" transform="translate(92.491 106.949)" opacity="0.5">
      <g id="Group_13842" data-name="Group 13842">
        <g id="Group_13841" data-name="Group 13841" clip-path="url(#clip-path-4)">
          <path id="Path_16687" data-name="Path 16687" d="M119.975,121.814a12.886,12.886,0,1,1-12.886-12.886,12.886,12.886,0,0,1,12.886,12.886" transform="translate(-94.203 -108.928)" fill="#ffeaed"/>
        </g>
      </g>
    </g>
    <path id="Path_16688" data-name="Path 16688" d="M117.975,119.814a12.886,12.886,0,1,1-12.886-12.886,12.886,12.886,0,0,1,12.886,12.886" transform="translate(-1.676 -1.943)" fill="#ff8596"/>
    <path id="Path_16689" data-name="Path 16689" d="M105.089,107.91a12.877,12.877,0,0,1,12.862,12.4c.006-.164.025-.325.025-.491a12.886,12.886,0,0,0-25.773,0c0,.166.019.327.025.491a12.877,12.877,0,0,1,12.862-12.4" transform="translate(-1.676 -1.943)" fill="#f2f7fa"/>
    <path id="Path_16690" data-name="Path 16690" d="M105.08,133.183a13.377,13.377,0,1,1,13.376-13.377,13.392,13.392,0,0,1-13.376,13.377m0-25.772a12.4,12.4,0,1,0,12.395,12.395,12.409,12.409,0,0,0-12.395-12.395" transform="translate(-1.667 -1.934)" fill="#f9415a"/>
    <path id="Path_16691" data-name="Path 16691" d="M52.215,55.856h-1.8a.491.491,0,1,1,0-.982h1.8a.491.491,0,0,1,0,.982" transform="translate(-0.907 -0.997)" fill="#fff"/>
    <path id="Path_16692" data-name="Path 16692" d="M65.369,55.856H53.914a.491.491,0,1,1,0-.982H65.369a.491.491,0,1,1,0,.982" transform="translate(-0.971 -0.997)" fill="#fff"/>
    <g id="Group_13846" data-name="Group 13846" transform="translate(8.818 8.831)" opacity="0.5">
      <g id="Group_13845" data-name="Group 13845">
        <g id="Group_13844" data-name="Group 13844" clip-path="url(#clip-path-5)">
          <path id="Path_16693" data-name="Path 16693" d="M53.82,31.414A22.419,22.419,0,1,1,31.4,8.994a22.42,22.42,0,0,1,22.42,22.42" transform="translate(-8.981 -8.994)" fill="#ffeaed"/>
        </g>
      </g>
    </g>
    <path id="Path_16694" data-name="Path 16694" d="M51.82,29.414A22.419,22.419,0,1,1,29.4,6.994a22.42,22.42,0,0,1,22.42,22.42" transform="translate(-0.127 -0.127)" fill="#fff"/>
    <path id="Path_16695" data-name="Path 16695" d="M29.391,52.315A22.91,22.91,0,1,1,52.3,29.4a22.937,22.937,0,0,1-22.911,22.91m0-44.839A21.929,21.929,0,1,0,51.32,29.4,21.954,21.954,0,0,0,29.391,7.476" transform="translate(-0.118 -0.118)" fill="#f9415a"/>
    <path id="Path_16696" data-name="Path 16696" d="M21.56,58.463a.48.48,0,0,1-.137-.02c-.8-.232-1.594-.5-2.364-.8a.491.491,0,1,1,.353-.916c.745.289,1.514.549,2.286.773a.491.491,0,0,1-.137.962" transform="translate(-0.341 -1.03)" fill="#f9415a"/>
    <path id="Path_16697" data-name="Path 16697" d="M14.344,54.407a.5.5,0,0,1-.255-.072,29.449,29.449,0,0,1-4.154-3.053.491.491,0,0,1,.649-.737A28.47,28.47,0,0,0,14.6,53.5a.491.491,0,0,1-.255.91M6.762,47.734a.488.488,0,0,1-.384-.185,29.4,29.4,0,0,1-2.851-4.3.491.491,0,1,1,.862-.468,28.59,28.59,0,0,0,2.756,4.151.491.491,0,0,1-.383.8M1.939,38.862a.493.493,0,0,1-.466-.336A29.288,29.288,0,0,1,.289,33.508.489.489,0,0,1,.7,32.952a.484.484,0,0,1,.556.415,28.106,28.106,0,0,0,1.146,4.849.491.491,0,0,1-.311.621.5.5,0,0,1-.155.025M.491,28.867H.476A.491.491,0,0,1,0,28.361a29.493,29.493,0,0,1,.611-5.118.491.491,0,1,1,.961.2,28.4,28.4,0,0,0-.59,4.947.491.491,0,0,1-.491.475m2.078-9.883a.49.49,0,0,1-.455-.675,29.277,29.277,0,0,1,2.349-4.591.491.491,0,0,1,.832.523,28.24,28.24,0,0,0-2.271,4.436.49.49,0,0,1-.455.307M55,16.827a.49.49,0,0,1-.439-.269,28.463,28.463,0,0,0-2.627-4.234.491.491,0,0,1,.784-.589,29.285,29.285,0,0,1,2.719,4.38.491.491,0,0,1-.218.66.485.485,0,0,1-.219.052m-47.06-6.4a.485.485,0,0,1-.329-.128.491.491,0,0,1-.034-.693,29.564,29.564,0,0,1,3.785-3.5.491.491,0,0,1,.6.777,28.563,28.563,0,0,0-3.659,3.383.492.492,0,0,1-.364.161m41-1.685a.49.49,0,0,1-.336-.133,28.524,28.524,0,0,0-3.921-3.073.49.49,0,1,1,.534-.823A29.525,29.525,0,0,1,49.281,7.9a.491.491,0,0,1-.337.849M15.931,4.252a.491.491,0,0,1-.229-.926,29.261,29.261,0,0,1,4.76-1.979.491.491,0,1,1,.3.937,28.24,28.24,0,0,0-4.6,1.913.487.487,0,0,1-.227.056m24.544-1.01a.5.5,0,0,1-.191-.039,28.181,28.181,0,0,0-4.744-1.526A.491.491,0,1,1,35.756.72,29.109,29.109,0,0,1,40.666,2.3a.491.491,0,0,1-.191.944M25.561,1.218A.491.491,0,0,1,25.5.241,30,30,0,0,1,30.648.03a.491.491,0,0,1-.044.982,28.714,28.714,0,0,0-4.981.2.436.436,0,0,1-.062,0" transform="translate(0 0)" fill="#f9415a"/>
    <path id="Path_16698" data-name="Path 16698" d="M58.529,24.355a.49.49,0,0,1-.48-.392c-.161-.784-.357-1.572-.585-2.34a.491.491,0,1,1,.942-.279c.236.8.439,1.61.6,2.422a.485.485,0,0,1-.481.588" transform="translate(-1.044 -0.382)" fill="#f9415a"/>
    <g id="Group_13849" data-name="Group 13849" transform="translate(13.414 13.432)" opacity="0.5">
      <g id="Group_13848" data-name="Group 13848">
        <g id="Group_13847" data-name="Group 13847" clip-path="url(#clip-path-6)">
          <path id="Path_16699" data-name="Path 16699" d="M47.344,32.352V28.694L44.5,28.4a14.008,14.008,0,0,0-.808-3.039L46,23.687l-1.829-3.168-2.6,1.164a14.2,14.2,0,0,0-2.226-2.226l1.165-2.6L37.34,15.023l-1.674,2.312a14.094,14.094,0,0,0-3.039-.808l-.295-2.845H28.674l-.295,2.845a14.094,14.094,0,0,0-3.039.808l-1.674-2.312L20.5,16.852l1.165,2.6a14.2,14.2,0,0,0-2.226,2.226l-2.6-1.164L15,23.687l2.312,1.674a14.007,14.007,0,0,0-.808,3.039l-2.846.295v3.658l2.846.294a14.007,14.007,0,0,0,.808,3.039L15,37.36l1.829,3.167,2.6-1.164a14.2,14.2,0,0,0,2.226,2.226l-1.165,2.6,3.168,1.829,1.674-2.312a14.094,14.094,0,0,0,3.039.808l.295,2.845h3.658l.295-2.845a14.094,14.094,0,0,0,3.039-.808l1.674,2.312,3.168-1.829-1.165-2.6a14.2,14.2,0,0,0,2.226-2.226l2.6,1.164L46,37.36,43.69,35.685a14.007,14.007,0,0,0,.808-3.039ZM30.5,38.905a8.382,8.382,0,1,1,8.383-8.382A8.382,8.382,0,0,1,30.5,38.905" transform="translate(-13.662 -13.681)" fill="#b3cdff"/>
        </g>
      </g>
    </g>
    <path id="Path_16700" data-name="Path 16700" d="M46.344,31.352V27.694L43.5,27.4a14.007,14.007,0,0,0-.808-3.039L45,22.687l-1.829-3.168-2.6,1.164a14.2,14.2,0,0,0-2.226-2.226l1.165-2.6L36.34,14.023l-1.674,2.312a14.094,14.094,0,0,0-3.039-.808l-.295-2.845H27.674l-.295,2.845a14.094,14.094,0,0,0-3.039.808l-1.674-2.312L19.5,15.852l1.165,2.6a14.2,14.2,0,0,0-2.226,2.226l-2.6-1.164L14,22.687l2.312,1.674a14.007,14.007,0,0,0-.808,3.039l-2.846.295v3.658l2.846.294a14.007,14.007,0,0,0,.808,3.039L14,36.36l1.829,3.167,2.6-1.164a14.2,14.2,0,0,0,2.226,2.226l-1.165,2.6,3.168,1.829,1.674-2.312a14.094,14.094,0,0,0,3.039.808l.295,2.845h3.658l.295-2.845a14.094,14.094,0,0,0,3.039-.808l1.674,2.312,3.168-1.829-1.165-2.6a14.2,14.2,0,0,0,2.226-2.226l2.6,1.164L45,36.36,42.69,34.685a14.007,14.007,0,0,0,.808-3.039ZM29.5,37.905a8.382,8.382,0,1,1,8.383-8.382A8.382,8.382,0,0,1,29.5,37.905" transform="translate(-0.23 -0.231)" fill="#ff8596"/>
    <path id="Path_16701" data-name="Path 16701" d="M31.323,46.845H27.665a.49.49,0,0,1-.488-.44l-.256-2.473a14.63,14.63,0,0,1-2.41-.64L23.055,45.3a.49.49,0,0,1-.643.137l-3.167-1.829a.492.492,0,0,1-.2-.626l1.011-2.262a14.7,14.7,0,0,1-1.765-1.766l-2.263,1.012a.492.492,0,0,1-.625-.2L13.57,36.6a.49.49,0,0,1,.136-.642l2.01-1.455a14.643,14.643,0,0,1-.641-2.411L12.6,31.831a.491.491,0,0,1-.441-.489V27.684A.491.491,0,0,1,12.6,27.2l2.472-.255a14.644,14.644,0,0,1,.641-2.411l-2.01-1.455a.491.491,0,0,1-.136-.643L15.4,19.264a.494.494,0,0,1,.625-.2l2.263,1.011a14.768,14.768,0,0,1,1.765-1.765l-1.011-2.263a.491.491,0,0,1,.2-.625l3.167-1.829a.488.488,0,0,1,.643.137l1.454,2.009a14.474,14.474,0,0,1,2.411-.64l.256-2.473a.491.491,0,0,1,.488-.441h3.658a.491.491,0,0,1,.489.441l.255,2.473a14.544,14.544,0,0,1,2.411.64l1.455-2.009a.49.49,0,0,1,.642-.137l3.168,1.829a.49.49,0,0,1,.2.625l-1.011,2.263A14.923,14.923,0,0,1,40.7,20.072l2.262-1.011a.493.493,0,0,1,.625.2l1.83,3.167a.491.491,0,0,1-.137.643l-2.009,1.455a14.589,14.589,0,0,1,.64,2.411l2.472.255a.491.491,0,0,1,.441.488v3.658a.491.491,0,0,1-.441.489l-2.472.255a14.615,14.615,0,0,1-.64,2.411l2.009,1.455a.49.49,0,0,1,.137.642l-1.83,3.168a.491.491,0,0,1-.625.2L40.7,38.954a14.857,14.857,0,0,1-1.766,1.766l1.011,2.262a.492.492,0,0,1-.2.626l-3.168,1.829a.491.491,0,0,1-.642-.137l-1.455-2.009a14.641,14.641,0,0,1-2.411.64l-.255,2.473a.49.49,0,0,1-.489.44m-3.215-.982H30.88l.248-2.405a.492.492,0,0,1,.415-.435,13.581,13.581,0,0,0,2.933-.78.494.494,0,0,1,.577.169l1.415,1.954,2.4-1.386-.984-2.2a.491.491,0,0,1,.141-.584,13.768,13.768,0,0,0,2.149-2.148.492.492,0,0,1,.584-.142l2.2.984,1.386-2.4-1.954-1.415a.49.49,0,0,1-.169-.577A13.608,13.608,0,0,0,43,31.563a.49.49,0,0,1,.435-.414l2.405-.249V28.127l-2.405-.248A.491.491,0,0,1,43,27.463a13.638,13.638,0,0,0-.78-2.933.488.488,0,0,1,.169-.576l1.954-1.415-1.386-2.4-2.2.984a.49.49,0,0,1-.584-.141,13.811,13.811,0,0,0-2.149-2.148.491.491,0,0,1-.141-.584l.984-2.2-2.4-1.386-1.415,1.953a.493.493,0,0,1-.577.169A13.636,13.636,0,0,0,31.544,16a.492.492,0,0,1-.415-.436l-.248-2.405H28.108l-.248,2.405a.492.492,0,0,1-.415.436,13.6,13.6,0,0,0-2.934.78.493.493,0,0,1-.576-.17l-1.415-1.953-2.4,1.386.984,2.2a.491.491,0,0,1-.141.584,13.72,13.72,0,0,0-2.148,2.148.493.493,0,0,1-.584.141l-2.2-.984-1.387,2.4,1.954,1.415a.488.488,0,0,1,.169.576,13.579,13.579,0,0,0-.779,2.933.493.493,0,0,1-.436.415l-2.405.248V30.9l2.405.249a.492.492,0,0,1,.436.414,13.549,13.549,0,0,0,.779,2.933.49.49,0,0,1-.169.577l-1.954,1.415,1.387,2.4,2.2-.984a.492.492,0,0,1,.584.142A13.72,13.72,0,0,0,20.961,40.2a.491.491,0,0,1,.141.584l-.984,2.2,2.4,1.386,1.416-1.954a.489.489,0,0,1,.576-.169,13.581,13.581,0,0,0,2.933.78.492.492,0,0,1,.415.435Zm1.386-7.477a8.873,8.873,0,1,1,8.874-8.873,8.883,8.883,0,0,1-8.874,8.873m0-16.765a7.891,7.891,0,1,0,7.892,7.892,7.9,7.9,0,0,0-7.892-7.892" transform="translate(-0.221 -0.221)" fill="#f9415a"/>
    <path id="Path_16702" data-name="Path 16702" d="M60.4,22.117,58.92,26.41l-2.976-3.43Z" transform="translate(-1.017 -0.402)" fill="#f9415a"/>
    <path id="Path_16703" data-name="Path 16703" d="M61.2,26.555l-1.483,4.293-2.976-3.43Z" transform="translate(-1.031 -0.483)" fill="#f9415a"/>
    <g id="Group_13852" data-name="Group 13852" transform="translate(8.818 92.904)" opacity="0.5">
      <g id="Group_13851" data-name="Group 13851">
        <g id="Group_13850" data-name="Group 13850" clip-path="url(#clip-path-7)">
          <path id="Path_16704" data-name="Path 16704" d="M47.215,121.554H11.926a2.945,2.945,0,0,1-2.945-2.945V97.569a2.945,2.945,0,0,1,2.945-2.945H47.215a2.945,2.945,0,0,1,2.945,2.945v21.04a2.945,2.945,0,0,1-2.945,2.945" transform="translate(-8.981 -94.624)" fill="#ffeaed"/>
        </g>
      </g>
    </g>
    <path id="Path_16705" data-name="Path 16705" d="M45.215,119.554H9.926a2.945,2.945,0,0,1-2.945-2.945V95.569a2.945,2.945,0,0,1,2.945-2.945H45.215a2.945,2.945,0,0,1,2.945,2.945v21.04a2.945,2.945,0,0,1-2.945,2.945" transform="translate(-0.127 -1.683)" fill="#fff"/>
    <path id="Path_16706" data-name="Path 16706" d="M45.215,118H9.926a2.945,2.945,0,0,1-2.945-2.945v1.964a2.945,2.945,0,0,0,2.945,2.945H45.215a2.945,2.945,0,0,0,2.945-2.945v-1.964A2.945,2.945,0,0,1,45.215,118" transform="translate(-0.127 -2.091)" fill="#ffeaed"/>
    <path id="Path_16707" data-name="Path 16707" d="M45.206,120.036H9.917A3.44,3.44,0,0,1,6.481,116.6V95.56a3.44,3.44,0,0,1,3.436-3.436H45.206a3.44,3.44,0,0,1,3.436,3.436V116.6a3.44,3.44,0,0,1-3.436,3.436M9.917,93.106A2.458,2.458,0,0,0,7.463,95.56V116.6a2.457,2.457,0,0,0,2.455,2.455H45.206a2.457,2.457,0,0,0,2.455-2.455V95.56a2.457,2.457,0,0,0-2.455-2.455Z" transform="translate(-0.118 -1.674)" fill="#f9415a"/>
    <path id="Path_16708" data-name="Path 16708" d="M145.295,44.09a.491.491,0,0,1-.348-.838l1.33-1.33a.491.491,0,0,1,.694.694l-1.329,1.331a.493.493,0,0,1-.348.143" transform="translate(-2.632 -0.759)" fill="#f9415a"/>
    <path id="Path_16709" data-name="Path 16709" d="M143.384,44.1a.493.493,0,0,1-.348-.143l-1.33-1.331a.491.491,0,1,1,.694-.694l1.331,1.33a.491.491,0,0,1-.348.838" transform="translate(-2.573 -0.76)" fill="#f9415a"/>
    <path id="Path_16710" data-name="Path 16710" d="M142.068,47.345a.491.491,0,0,1-.348-.838l1.331-1.33a.491.491,0,0,1,.694.694l-1.33,1.331a.493.493,0,0,1-.348.143" transform="translate(-2.573 -0.818)" fill="#f9415a"/>
    <path id="Path_16711" data-name="Path 16711" d="M146.639,47.331a.493.493,0,0,1-.348-.143l-1.33-1.33a.491.491,0,0,1,.694-.694l1.331,1.329a.491.491,0,0,1-.348.838" transform="translate(-2.632 -0.818)" fill="#f9415a"/>
    <path id="Path_16712" data-name="Path 16712" d="M47.661,102.958H6.972a.491.491,0,0,1,0-.982H47.661a.491.491,0,1,1,0,.982" transform="translate(-0.118 -1.853)" fill="#f9415a"/>
    <path id="Path_16713" data-name="Path 16713" d="M17.569,110.606H12.046a.491.491,0,0,1,0-.982h5.523a.491.491,0,0,1,0,.982" transform="translate(-0.21 -1.992)" fill="#f9415a"/>
    <path id="Path_16714" data-name="Path 16714" d="M25.861,110.606H20.338a.491.491,0,0,1,0-.982h5.523a.491.491,0,0,1,0,.982" transform="translate(-0.361 -1.992)" fill="#f9415a"/>
    <path id="Path_16715" data-name="Path 16715" d="M34.152,110.606H28.629a.491.491,0,0,1,0-.982h5.523a.491.491,0,0,1,0,.982" transform="translate(-0.511 -1.992)" fill="#f9415a"/>
    <path id="Path_16716" data-name="Path 16716" d="M42.444,110.606H36.921a.491.491,0,0,1,0-.982h5.523a.491.491,0,0,1,0,.982" transform="translate(-0.662 -1.992)" fill="#f9415a"/>
    <path id="Path_16717" data-name="Path 16717" d="M163.449,55.79a.982.982,0,0,1-.694-1.676,14.141,14.141,0,0,1,20.014-.008.982.982,0,1,1-1.387,1.389,12.179,12.179,0,0,0-17.238.007.979.979,0,0,1-.694.288" transform="translate(-2.953 -0.908)" fill="#fff"/>
    <path id="Path_16718" data-name="Path 16718" d="M165.822,58.18a.981.981,0,0,1-.694-1.675,10.853,10.853,0,0,1,15.362,0,.982.982,0,1,1-1.388,1.39,8.889,8.889,0,0,0-12.585,0,.975.975,0,0,1-.694.288" transform="translate(-2.996 -0.969)" fill="#fff"/>
    <path id="Path_16719" data-name="Path 16719" d="M168.194,60.571a.982.982,0,0,1-.694-1.676,7.563,7.563,0,0,1,10.7,0,.982.982,0,0,1-1.387,1.389,5.6,5.6,0,0,0-7.925,0,.979.979,0,0,1-.694.288" transform="translate(-3.039 -1.03)" fill="#fff"/>
    <path id="Path_16720" data-name="Path 16720" d="M175.585,63.708a2.677,2.677,0,1,1-2.677-2.677,2.678,2.678,0,0,1,2.677,2.677" transform="translate(-3.094 -1.109)" fill="#fff"/>
    <path id="Path_16721" data-name="Path 16721" d="M153.884,158.022h-1.636a.491.491,0,0,1,0-.982h1.636a.491.491,0,0,1,0,.982" transform="translate(-2.758 -2.854)" fill="#fff"/>
    <path id="Path_16722" data-name="Path 16722" d="M163.108,158.022h-7.581a.491.491,0,1,1,0-.982h7.581a.491.491,0,0,1,0,.982" transform="translate(-2.818 -2.854)" fill="#fff"/>
    <path id="Path_16723" data-name="Path 16723" d="M100.9,120.775c.419.652,3.223,5.1,3.875,5.1s4.853-5.977,7.221-9.343c.375-.531-.533-2.431-1.958-.938-1.356,1.42-5.389,6.031-5.389,6.031s-1.893-1.789-2.444-2.278-1.725.776-1.306,1.428" transform="translate(-1.832 -2.091)" fill="#fff"/>
    <path id="Path_16724" data-name="Path 16724" d="M104.765,126.357c-.373,0-.884,0-4.191-5.174l-.1-.15a1.273,1.273,0,0,1,.037-1.32,1.774,1.774,0,0,1,1.386-.975.918.918,0,0,1,.621.234c.4.354,1.5,1.39,2.084,1.938,1-1.142,3.935-4.476,5.067-5.664.963-1.008,2.155-.867,2.681.148a1.4,1.4,0,0,1,.033,1.412c-6.062,8.616-7.008,9.551-7.622,9.551m-2.9-6.652a1.134,1.134,0,0,0-.493.478c-.088.161-.1.283-.074.318l.1.153c2.229,3.485,3.065,4.415,3.359,4.662,1.03-.838,5.023-6.513,6.77-9a.6.6,0,0,0-.111-.579c-.156-.219-.561-.314-1.035.184-1.333,1.4-5.334,5.969-5.375,6.015l-.337.385-.37-.351s-1.884-1.78-2.433-2.268" transform="translate(-1.823 -2.082)" fill="#f9415a"/>
  </g>
</svg>
