<svg xmlns="http://www.w3.org/2000/svg" width="122" height="122" viewBox="0 0 122 122">
  <g id="Group_14439" data-name="Group 14439" transform="translate(-150 -174)">
    <circle id="Ellipse_108" data-name="Ellipse 108" cx="40" cy="40" r="40" transform="translate(171 195)" fill="#cb4e4e"/>
    <circle id="Ellipse_109" data-name="Ellipse 109" cx="50" cy="50" r="50" transform="translate(161 185)" fill="#cb4e4e" opacity="0.5"/>
    <circle id="Ellipse_110" data-name="Ellipse 110" cx="61" cy="61" r="61" transform="translate(150 174)" fill="#cb4e4e" opacity="0.5"/>
    <path id="Icon_awesome-check" data-name="Icon awesome-check" d="M12.227,30.9.527,19.2a1.8,1.8,0,0,1,0-2.546L3.073,14.1a1.8,1.8,0,0,1,2.546,0L13.5,21.986,30.382,5.1a1.8,1.8,0,0,1,2.546,0L35.473,7.65a1.8,1.8,0,0,1,0,2.546l-20.7,20.7A1.8,1.8,0,0,1,12.227,30.9Z" transform="translate(193 217.423)" fill="#fff"/>
  </g>
</svg>
