<svg xmlns="http://www.w3.org/2000/svg" width="44" height="48.991" viewBox="0 0 44 48.991">
  <g id="pdf" transform="translate(-26.077)">
    <g id="Group_12400" data-name="Group 12400" transform="translate(30.153 45.195)">
      <g id="Group_12399" data-name="Group 12399">
        <path id="Path_16150" data-name="Path 16150" d="M68.677,472.334a5.423,5.423,0,0,0,5.143,3.8H99.382a5.423,5.423,0,0,0,5.143-3.8Z" transform="translate(-68.677 -472.334)" fill="#c4c4c4"/>
      </g>
    </g>
    <g id="Group_12402" data-name="Group 12402" transform="translate(57.554 0.897)">
      <g id="Group_12401" data-name="Group 12401">
        <path id="Path_16151" data-name="Path 16151" d="M362.173,16.347l-6.288-6.288a5.481,5.481,0,0,0-.838-.687v7.779a.321.321,0,0,0,.322.321h7.669A5.373,5.373,0,0,0,362.173,16.347Z" transform="translate(-355.047 -9.372)" fill="#c4c4c4"/>
      </g>
    </g>
    <g id="Group_12404" data-name="Group 12404" transform="translate(29.891)">
      <g id="Group_12403" data-name="Group 12403" transform="translate(0)">
        <path id="Path_16152" data-name="Path 16152" d="M102.308,11.867H93.92a3.2,3.2,0,0,1-3.193-3.192V0c-.037,0-.076,0-.113,0H71.34a5.412,5.412,0,0,0-5.405,5.406V20.151h36.373V11.867Z" transform="translate(-65.935)" fill="#c4c4c4"/>
      </g>
    </g>
    <g id="Group_12406" data-name="Group 12406" transform="translate(46.816 29.365)">
      <g id="Group_12405" data-name="Group 12405" transform="translate(0)">
        <path id="Path_16153" data-name="Path 16153" d="M244.131,306.9h-1.313v6.771h1.313q1.328,0,1.328-1.475v-3.82Q245.458,306.9,244.131,306.9Z" transform="translate(-242.818 -306.896)" fill="#f9415a"/>
      </g>
    </g>
    <g id="Group_12408" data-name="Group 12408" transform="translate(38.423 29.365)">
      <g id="Group_12407" data-name="Group 12407" transform="translate(0)">
        <path id="Path_16154" data-name="Path 16154" d="M156.561,306.9H155.1v3.112h1.46q1.328,0,1.328-1.475v-.162Q157.889,306.9,156.561,306.9Z" transform="translate(-155.101 -306.896)" fill="#f9415a"/>
      </g>
    </g>
    <g id="Group_12410" data-name="Group 12410" transform="translate(26.077 23.022)">
      <g id="Group_12409" data-name="Group 12409" transform="translate(0)">
        <path id="Path_16155" data-name="Path 16155" d="M66.45,240.6H29.7a3.631,3.631,0,0,0-3.627,3.627V256.28a3.631,3.631,0,0,0,3.627,3.627H66.45a3.631,3.631,0,0,0,3.627-3.627V244.232A3.631,3.631,0,0,0,66.45,240.6Zm-22.938,7.8h0a3.187,3.187,0,0,1-1,2.589,3.967,3.967,0,0,1-2.633.833h-1.46v3.186a.573.573,0,0,1-.339.524,1.877,1.877,0,0,1-1.623,0,.573.573,0,0,1-.339-.524v-9.382a.628.628,0,0,1,.236-.487.907.907,0,0,1,.62-.206H40.03a3.744,3.744,0,0,1,2.53.819,3.218,3.218,0,0,1,.951,2.574v.074Zm8.246,3.835a3.281,3.281,0,0,1-.988,2.64,3.939,3.939,0,0,1-2.64.841H45.518a1.186,1.186,0,0,1-.723-.206.6.6,0,0,1-.28-.487v-9.4a.6.6,0,0,1,.28-.487,1.188,1.188,0,0,1,.723-.206h2.611a3.939,3.939,0,0,1,2.64.841,3.281,3.281,0,0,1,.988,2.64Zm8.091-5.591a.572.572,0,0,1-.509.3H55.519v2.493h2.227a.587.587,0,0,1,.509.265,1.085,1.085,0,0,1,.184.634,1.065,1.065,0,0,1-.177.6.582.582,0,0,1-.516.265H55.519v3.806a.573.573,0,0,1-.339.524,1.877,1.877,0,0,1-1.623,0,.573.573,0,0,1-.339-.524V245.65a.584.584,0,0,1,.3-.524,1.309,1.309,0,0,1,.708-.184h5.119a.567.567,0,0,1,.516.3,1.323,1.323,0,0,1,.177.693A1.34,1.34,0,0,1,59.848,246.653Z" transform="translate(-26.077 -240.605)" fill="#f9415a"/>
      </g>
    </g>
  </g>
</svg>
