<svg xmlns="http://www.w3.org/2000/svg" xmlns:xlink="http://www.w3.org/1999/xlink" width="40" height="40" viewBox="0 0 40 40">
  <defs>
    <clipPath id="clip-path">
      <rect id="Rectangle_6081" data-name="Rectangle 6081" width="40" height="40" transform="translate(209.893 423.893)" fill="#9e4848"/>
    </clipPath>
  </defs>
  <g id="Refrigerator" transform="translate(-209.893 -423.893)" clip-path="url(#clip-path)">
    <g id="refrigerator-2" data-name="refrigerator" transform="translate(218.448 424)">
      <path id="Path_17255" data-name="Path 17255" d="M29.022,0H12.561A3.224,3.224,0,0,0,9.343,3.218V34.477a3.22,3.22,0,0,0,2.308,3.086v.94a1.284,1.284,0,0,0,1.282,1.282H15.88A1.284,1.284,0,0,0,17.162,38.5v-.808h7.251V38.5A1.284,1.284,0,0,0,25.7,39.785h2.946A1.284,1.284,0,0,0,29.924,38.5v-.94a3.218,3.218,0,0,0,2.308-3.086V3.218A3.212,3.212,0,0,0,29.022,0ZM12.561,1.244H29.014a1.977,1.977,0,0,1,1.974,1.974V14.355h-20.4V3.218a1.977,1.977,0,0,1,1.974-1.974Zm3.365,37.267a.042.042,0,0,1-.039.039H12.942a.042.042,0,0,1-.039-.039v-.816h3.023Zm12.715.039H25.7a.042.042,0,0,1-.039-.039v-.816H28.68V38.5A.039.039,0,0,1,28.641,38.549Zm.381-2.1H12.561a1.977,1.977,0,0,1-1.974-1.974V15.6H31V34.477A1.977,1.977,0,0,1,29.022,36.451Z" transform="translate(-9.343 0)" stroke="#000" stroke-width="0.086"/>
      <path id="Path_17256" data-name="Path 17256" d="M13.27,12.4h1.267a.91.91,0,0,0,.909-.909V4.872a.91.91,0,0,0-.909-.909H13.27a.91.91,0,0,0-.909.909v6.622A.914.914,0,0,0,13.27,12.4Zm.342-7.189H14.2v5.946h-.591Z" transform="translate(-9.632 -0.38)"/>
      <path id="Path_17257" data-name="Path 17257" d="M14.536,19.838H13.27a.91.91,0,0,0-.909.909v8.479a.91.91,0,0,0,.909.909h1.267a.91.91,0,0,0,.909-.909V20.74A.909.909,0,0,0,14.536,19.838ZM14.2,28.885h-.591v-7.8H14.2Z" transform="translate(-9.632 -1.9)"/>
    </g>
  </g>
</svg>
