<svg xmlns="http://www.w3.org/2000/svg" xmlns:xlink="http://www.w3.org/1999/xlink" width="44" height="44" viewBox="0 0 44 44">
  <defs>
    <clipPath id="clip-path">
      <rect id="Rectangle_6081" data-name="Rectangle 6081" width="44" height="44" transform="translate(146 168)" fill="#9e4848"/>
    </clipPath>
  </defs>
  <g id="Security_service" data-name="Security service" transform="translate(-146 -168)" clip-path="url(#clip-path)">
    <g id="policeman" transform="translate(146 168)">
      <g id="Group_14307" data-name="Group 14307">
        <g id="Group_14306" data-name="Group 14306">
          <path id="Path_17214" data-name="Path 17214" d="M37.856,31.027,37.84,31q-.055-.091-.114-.18l-.065-.1-.081-.118q-.053-.076-.108-.15l-.032-.045-.024-.031q-.066-.088-.135-.173l-.048-.06c-.045-.056-.092-.11-.139-.164l-.059-.068c-.039-.044-.079-.087-.12-.131l-.09-.1-.07-.07A7.471,7.471,0,0,0,33.537,27.7a.632.632,0,0,0-.064-.015L27.646,26.6l-.031,0a1.427,1.427,0,0,0-.8.1,1.5,1.5,0,0,1-.336-.907V24.735a9.35,9.35,0,0,0,1.071-.8,7.569,7.569,0,0,0,2.549-5,2,2,0,0,0,1.907-2v-1.5a1.992,1.992,0,0,0-.731-1.545V10.441c2.107-1.038,2.564-2.249,2.564-3.1,0-1.465-1.365-3.3-3.562-4.787a14.7,14.7,0,0,0-16.553,0c-2.2,1.487-3.562,3.322-3.562,4.787,0,.854.458,2.064,2.564,3.1V13.9a1.993,1.993,0,0,0-.731,1.545v1.5a2,2,0,0,0,1.907,2,7.569,7.569,0,0,0,2.549,5,9.35,9.35,0,0,0,1.071.8V25.79a1.5,1.5,0,0,1-.336.907,1.425,1.425,0,0,0-.832-.1l-5.826,1.082a.632.632,0,0,0-.064.015,7.471,7.471,0,0,0-3.22,1.921l-.071.072-.089.1c-.041.044-.081.087-.121.132l-.058.067q-.071.082-.14.165l-.048.059q-.069.086-.135.173l-.024.031-.032.045q-.055.075-.108.15l-.081.118-.064.1q-.058.089-.114.18l-.015.025a7.47,7.47,0,0,0-1.087,3.9v.786a.645.645,0,1,0,1.289,0v-.786a6.241,6.241,0,0,1,.273-1.829,2.109,2.109,0,0,0,1.318.462,2.147,2.147,0,0,0,.231-.012A2.112,2.112,0,0,0,9.6,32.766l.7-.87a2.126,2.126,0,0,0-.07-2.751c.185-.075.375-.143.568-.2l3.718-.691,2.95,4.128a1.518,1.518,0,0,0,1.237.641,1.537,1.537,0,0,0,.6-.123l.2-.083.859,1-1.238,8.9h-8.1V37.483a.645.645,0,1,0-1.289,0v5.228H7.15a.8.8,0,0,1-.8-.8v-3.2a.645.645,0,0,0-1.289,0v3.2A2.1,2.1,0,0,0,7.15,44h29.7a2.1,2.1,0,0,0,2.092-2.092V34.924A7.472,7.472,0,0,0,37.856,31.027Zm-28.561.059-.7.87a.836.836,0,0,1-1.176.126l-.269-.217q.087-.154.181-.3l0,0c.054-.085.111-.168.169-.249l.053-.074q.078-.106.16-.209l.042-.053q.092-.113.19-.222L8,30.689c.064-.07.13-.139.2-.205l.017-.017a6.229,6.229,0,0,1,.809-.669l.141.114a.836.836,0,0,1,.126,1.176Zm25.537-1.176.141-.114a6.223,6.223,0,0,1,.809.669l.017.017c.068.067.133.136.2.205l.058.063q.1.109.19.222l.042.053q.082.1.16.209l.053.074c.058.082.115.165.169.249l0,0q.095.149.181.3l-.269.217a.836.836,0,0,1-1.176-.126l-.7-.87A.837.837,0,0,1,34.832,29.911Zm-7.7-1.891,0,0,.169-.126a.136.136,0,0,1,.105-.024l.676.126-2.6,3.638a.236.236,0,0,1-.285.08L23.284,30.9ZM22,30.247l-3.757-2.808a2.769,2.769,0,0,0,.569-1.649v-.377a8.406,8.406,0,0,0,3.181.647h.014a8.409,8.409,0,0,0,3.181-.647v.377a2.769,2.769,0,0,0,.569,1.649Zm1.255,2.039-.587.683H21.332l-.587-.683L22,31.753ZM12.726,8.971C11.9,8.461,11.451,7.9,11.451,7.338c0-1.162,1.553-2.743,3-3.719a13.411,13.411,0,0,1,15.108,0c1.443.977,3,2.557,3,3.719,0,.558-.446,1.122-1.275,1.633V7.8a1.991,1.991,0,0,0-1.5-1.93A35.165,35.165,0,0,0,21.6,4.726h-.008a28.493,28.493,0,0,0-7.409,1.132,2,2,0,0,0-1.453,1.917Zm2.236,2.264-.027-.017c-.042-.027-.082-.054-.121-.081l-.047-.033-.093-.068-.06-.047-.069-.057-.069-.061-.049-.046c-.025-.024-.049-.049-.072-.073l-.033-.035,0,0H25.142a.645.645,0,1,0,0-1.289H14.015V7.775a.7.7,0,0,1,.512-.676,27.192,27.192,0,0,1,7.06-1.084H21.6a33.851,33.851,0,0,1,7.86,1.1.7.7,0,0,1,.529.68V9.424H28.255a.645.645,0,1,0,0,1.289h1.427l0,0-.033.035c-.023.024-.047.049-.072.073l-.049.046-.069.061-.069.057-.06.047-.093.068-.047.033c-.039.027-.079.054-.121.081l-.027.017a6.363,6.363,0,0,1-.952.482l-.022.011a16.382,16.382,0,0,1-6.064,1,16.382,16.382,0,0,1-6.064-1l-.022-.011A6.363,6.363,0,0,1,14.962,11.235Zm.061,1.5v1.256a3.578,3.578,0,0,0-1.007-.335v-1.5A6.52,6.52,0,0,0,15.023,12.733Zm13.955,0a6.518,6.518,0,0,0,1.007-.577v1.5a3.578,3.578,0,0,0-1.007.336ZM17.293,22.961a6.327,6.327,0,0,1-2.14-4.674.645.645,0,0,0-.645-.631H14a.712.712,0,0,1-.711-.711v-1.5a.708.708,0,0,1,.262-.55,2.34,2.34,0,0,1,1.012.317l.011.007a1.491,1.491,0,0,1,.147.109l.016.014c.023.02.046.04.068.062s.039.037.06.053l.018.014.047.035.019.013c.022.014.044.027.067.039h0c.023.012.047.023.071.033l.02.008.055.019.021.006c.024.007.049.013.074.018h0c.025,0,.051.009.077.011l.021,0,.059,0h.022c.025,0,.051,0,.076,0h0c.026,0,.052-.007.078-.012l.022,0,.058-.014.023-.007c.025-.008.051-.017.076-.027a.887.887,0,0,0,.547-.821V13.224A19.615,19.615,0,0,0,22,14.017a19.615,19.615,0,0,0,5.688-.793v1.542a.887.887,0,0,0,.547.821c.025.01.051.019.076.027l.022.006.059.015.021,0a.875.875,0,0,0,.157.015h.021l.06,0,.02,0a.876.876,0,0,0,.152-.03l.02-.006.056-.02.02-.008c.024-.01.048-.021.071-.033h0c.023-.012.045-.025.067-.039l.019-.013.047-.034.018-.015c.02-.017.04-.034.06-.053s.044-.042.067-.061l.018-.015c.021-.018.043-.035.064-.051l.006,0c.024-.017.048-.034.072-.05l.02-.013.066-.039.01-.006.076-.04.019-.009.069-.032.009,0,.079-.032.014-.005.075-.026h0l.083-.026h0a2.709,2.709,0,0,1,.5-.092.708.708,0,0,1,.262.55v1.5a.712.712,0,0,1-.711.711h-.513a.645.645,0,0,0-.645.631,6.327,6.327,0,0,1-2.14,4.674,7.029,7.029,0,0,1-9.414,0Zm1.506,8.75a.236.236,0,0,1-.285-.08l-2.6-3.638.676-.126a.135.135,0,0,1,.105.024l.169.126,0,0L20.716,30.9Zm1.623,11L21.6,34.258h.8l1.176,8.453Zm16.429,0H34.272V37.483a.645.645,0,0,0-1.289,0v5.228h-8.1l-1.238-8.9.859-1,.2.083a1.536,1.536,0,0,0,.6.123,1.517,1.517,0,0,0,1.237-.641l2.95-4.128,3.718.691c.194.058.383.126.569.2A2.129,2.129,0,0,0,33.7,31.9l.7.87a2.111,2.111,0,0,0,1.428.779,2.149,2.149,0,0,0,.231.012,2.109,2.109,0,0,0,1.318-.462,6.241,6.241,0,0,1,.273,1.829v6.984h0A.8.8,0,0,1,36.85,42.711Z"/>
        </g>
      </g>
      <g id="Group_14309" data-name="Group 14309">
        <g id="Group_14308" data-name="Group 14308">
          <path id="Path_17215" data-name="Path 17215" d="M30.8,36.838h-3.4a1.054,1.054,0,0,0-1.053,1.053V39.7a1.054,1.054,0,0,0,1.053,1.053h3.4A1.054,1.054,0,0,0,31.854,39.7V37.891A1.054,1.054,0,0,0,30.8,36.838Zm-3.159,2.626V38.127h2.923v1.336Z"/>
        </g>
      </g>
      <g id="Group_14311" data-name="Group 14311">
        <g id="Group_14310" data-name="Group 14310">
          <path id="Path_17216" data-name="Path 17216" d="M16.595,36.838H13.2a1.054,1.054,0,0,0-1.053,1.053V39.7A1.054,1.054,0,0,0,13.2,40.753h3.4A1.054,1.054,0,0,0,17.648,39.7V37.891A1.054,1.054,0,0,0,16.595,36.838Zm-.236,2.626H13.436V38.127h2.923Z"/>
        </g>
      </g>
    </g>
  </g>
</svg>
