<svg xmlns="http://www.w3.org/2000/svg" width="17.929" height="24.449" viewBox="0 0 17.929 24.449">
  <g id="terms-and-conditions_1_" data-name="terms-and-conditions (1)" transform="translate(-68.267)">
    <g id="Page-1_99_" transform="translate(68.267)">
      <g id="_x31_00---Terms-And-Conditions">
        <path id="Shape_373_" d="M81.595.119A.407.407,0,0,0,81.306,0H69.489a1.222,1.222,0,0,0-1.222,1.222v22a1.222,1.222,0,0,0,1.222,1.222H84.974A1.222,1.222,0,0,0,86.2,23.227V4.89a.407.407,0,0,0-.119-.288Zm.119,1.272,3.091,3.091H82.121a.407.407,0,0,1-.407-.407Zm3.26,22.243H69.489a.407.407,0,0,1-.407-.407v-22a.407.407,0,0,1,.407-.407H80.9v3.26A1.222,1.222,0,0,0,82.121,5.3h3.26V23.227A.407.407,0,0,1,84.974,23.634Z" transform="translate(-68.267)" fill="#616a78"/>
        <path id="Shape_372_" d="M138.595,409.6H129.63a1.63,1.63,0,1,0,0,3.26h8.965a1.63,1.63,0,0,0,0-3.26Zm0,2.445H129.63a.815.815,0,1,1,0-1.63h8.965a.815.815,0,0,1,0,1.63Z" transform="translate(-125.148 -390.041)" fill="#616a78"/>
        <path id="Shape_371_" d="M132.656,290.219a.408.408,0,0,0-.573.064l-.22.275a1.2,1.2,0,0,0-.2-.02h-2.445A1.223,1.223,0,0,0,128,291.76V293.8a1.222,1.222,0,0,0,1.222,1.222h2.445a1.222,1.222,0,0,0,1.222-1.222V291.76a1.212,1.212,0,0,0-.305-.8l.134-.168a.407.407,0,0,0-.064-.573Zm-.581,1.541V293.8a.407.407,0,0,1-.407.407h-2.445a.407.407,0,0,1-.407-.407V291.76a.407.407,0,0,1,.407-.407h2l-.815,1.019-.086-.086a.407.407,0,0,0-.576.576l.407.407a.4.4,0,0,0,.287.121h.023a.407.407,0,0,0,.3-.152l1.286-1.607A.4.4,0,0,1,132.075,291.76Z" transform="translate(-125.148 -276.275)" fill="#616a78"/>
        <g id="Group_14262" data-name="Group 14262" transform="translate(2.445 2.852)">
          <path id="Path_363_" d="M247.874,316.549h1.63a.407.407,0,0,0,0-.815h-1.63a.407.407,0,0,0,0,.815Z" transform="translate(-241.355 -303.509)" fill="#616a78" fill-rule="evenodd"/>
          <path id="Path_362_" d="M119.874,60.549h3.26a.407.407,0,1,0,0-.815h-3.26a.407.407,0,0,0,0,.815Z" transform="translate(-119.467 -59.734)" fill="#616a78" fill-rule="evenodd"/>
          <path id="Path_361_" d="M253.987,349.867h-6.112a.407.407,0,0,0,0,.815h6.112a.407.407,0,1,0,0-.815Z" transform="translate(-241.355 -336.013)" fill="#616a78" fill-rule="evenodd"/>
          <path id="Path_360_" d="M132.1,256H119.874a.407.407,0,0,0,0,.815H132.1a.407.407,0,1,0,0-.815Z" transform="translate(-119.467 -246.628)" fill="#616a78" fill-rule="evenodd"/>
          <path id="Path_359_" d="M132.1,213.333H119.874a.407.407,0,0,0,0,.815H132.1a.407.407,0,1,0,0-.815Z" transform="translate(-119.467 -205.998)" fill="#616a78" fill-rule="evenodd"/>
          <path id="Path_358_" d="M132.1,170.667H119.874a.407.407,0,0,0,0,.815H132.1a.407.407,0,1,0,0-.815Z" transform="translate(-119.467 -165.37)" fill="#616a78" fill-rule="evenodd"/>
          <path id="Path_357_" d="M132.1,128H119.874a.407.407,0,0,0,0,.815H132.1a.407.407,0,1,0,0-.815Z" transform="translate(-119.467 -124.74)" fill="#616a78" fill-rule="evenodd"/>
        </g>
      </g>
    </g>
  </g>
</svg>
