<svg xmlns="http://www.w3.org/2000/svg" width="26.651" height="23.984" viewBox="0 0 26.651 23.984">
  <g id="Page-1" transform="translate(0 0)">
    <g id="_015---Utility-Room" data-name="015---Utility-Room" transform="translate(0 0)">
      <path id="Shape" d="M1.332,23.984H14.657a1.332,1.332,0,0,0,1.332-1.332V6.662A1.332,1.332,0,0,0,14.657,5.33h-.97a1.272,1.272,0,0,0-.1-1.1,1.325,1.325,0,0,0-.364-2.4A1.328,1.328,0,0,0,11.992,0H3.109a1.332,1.332,0,1,0,0,2.665h.526a1.248,1.248,0,0,0,0,.888H3.553A1.332,1.332,0,0,0,2.221,4.886,1.317,1.317,0,0,0,2.3,5.33h-.97A1.332,1.332,0,0,0,0,6.662V22.652a1.332,1.332,0,0,0,1.332,1.332ZM14.657,23.1H1.332a.444.444,0,0,1-.444-.444V9.771H15.1v12.88A.444.444,0,0,1,14.657,23.1ZM15.1,6.662V8.883H7.551V6.218h7.106A.444.444,0,0,1,15.1,6.662ZM2.665,1.332A.444.444,0,0,1,3.109.888h8.883a.444.444,0,0,1,0,.888H3.109A.444.444,0,0,1,2.665,1.332ZM4.441,3.109a.444.444,0,0,1,.444-.444H12.88a.444.444,0,0,1,0,.888H4.886A.444.444,0,0,1,4.441,3.109ZM3.109,4.886a.444.444,0,0,1,.444-.444h8.883a.444.444,0,1,1,0,.888H3.553A.444.444,0,0,1,3.109,4.886ZM1.332,6.218h5.33V8.883H.888V6.662A.444.444,0,0,1,1.332,6.218Z" transform="translate(0 0)" fill="#616a78"/>
      <circle id="Oval" cx="0.5" cy="0.5" r="0.5" transform="translate(13.323 6.992)" fill="#616a78"/>
      <path id="Shape-2" data-name="Shape" d="M4.444,16.888H7.553a.444.444,0,1,0,0-.888H4.444a.444.444,0,1,0,0,.888Z" transform="translate(-2.223 -8.894)" fill="#616a78"/>
      <path id="Shape-3" data-name="Shape" d="M10.774,24a5.774,5.774,0,1,0,5.774,5.774A5.774,5.774,0,0,0,10.774,24Zm0,.888a4.878,4.878,0,0,1,3.787,1.8,3.637,3.637,0,0,0-1.55,2.851c-.34.222-1.421.685-3.323-.584a3.609,3.609,0,0,0-2.815-.7,2.75,2.75,0,0,0-.839.346A4.891,4.891,0,0,1,10.774,24.888Zm0,9.771a4.888,4.888,0,0,1-4.879-4.752,2.115,2.115,0,0,1,1.184-.779,2.78,2.78,0,0,1,2.116.571,5.094,5.094,0,0,0,2.8,1,2.875,2.875,0,0,0,1.07-.2,3.561,3.561,0,0,0,1.492,2.354A4.878,4.878,0,0,1,10.774,34.66Zm4.282-2.537a2.938,2.938,0,0,1,0-4.7A4.871,4.871,0,0,1,15.056,32.123Z" transform="translate(-2.779 -13.34)" fill="#616a78"/>
      <path id="Shape-4" data-name="Shape" d="M46.439,20H39.332a1.328,1.328,0,0,0-.97,2.239,1.317,1.317,0,0,0-.329.917l.35,9.8A2.213,2.213,0,0,0,40.6,35.1h4.565a2.213,2.213,0,0,0,2.221-2.142l.35-9.8a1.315,1.315,0,0,0-.329-.917A1.328,1.328,0,0,0,46.439,20Zm-7.106.888h7.106a.444.444,0,0,1,0,.888H39.332a.444.444,0,1,1,0-.888ZM46.5,32.928a1.328,1.328,0,0,1-1.332,1.285H40.6a1.327,1.327,0,0,1-1.332-1.285l-.35-9.8a.444.444,0,0,1,.444-.46h7.042a.444.444,0,0,1,.444.46Z" transform="translate(-21.122 -11.117)" fill="#616a78"/>
      <path id="Shape-5" data-name="Shape" d="M50.553,44.777V43.444a.444.444,0,1,0-.888,0v1.332h-.888v-.444a.444.444,0,0,0-.888,0v.444h-.444a.444.444,0,1,0,0,.888h.444a.444.444,0,1,0,.888,0h.888a.7.7,0,1,0,.888-.888Z" transform="translate(-26.125 -23.902)" fill="#616a78"/>
    </g>
  </g>
</svg>
