<svg xmlns="http://www.w3.org/2000/svg" width="54.483" height="57.682" viewBox="0 0 54.483 57.682">
  <g id="washing-dishes_1_" data-name="washing-dishes (1)" transform="translate(1 1)" opacity="0.8">
    <g id="Group_14030" data-name="Group 14030" transform="translate(0)">
      <path id="Path_17020" data-name="Path 17020" d="M84.592,162.334l-.007.125A21.383,21.383,0,0,1,61.2,126.8a3.549,3.549,0,0,0,4.733-.674,7.209,7.209,0,0,0,7.378.508v20.755a2.668,2.668,0,0,0,2.977,2.646,19.217,19.217,0,0,1,2.484-.111v.937a8.8,8.8,0,0,0,2.808,6.45l1.853,1.853A4.01,4.01,0,0,1,84.592,162.334Z" transform="translate(-49.602 -112.999)" fill="none" stroke="#000" stroke-linecap="round" stroke-linejoin="round" stroke-width="2"/>
      <circle id="Ellipse_75" data-name="Ellipse 75" cx="2.576" cy="2.576" r="2.576" transform="translate(0 3.771)" fill="none" stroke="#000" stroke-linecap="round" stroke-linejoin="round" stroke-width="2"/>
      <path id="Path_17021" data-name="Path 17021" d="M131.46,11.333a5,5,0,0,0-3,1,7.209,7.209,0,0,0-12.517,4.88c0,.043,0,.086,0,.129a3.55,3.55,0,1,0,3.094,5.792,7.208,7.208,0,0,0,10.3-2.224,5.022,5.022,0,1,0,2.121-9.574Z" transform="translate(-102.705 -10)" fill="none" stroke="#000" stroke-linecap="round" stroke-linejoin="round" stroke-width="2"/>
      <path id="Path_17022" data-name="Path 17022" d="M135.775,193.534a12.562,12.562,0,0,0,13.259,1.361,8.8,8.8,0,0,1-1.03-4.136v-.937a19.2,19.2,0,0,0-2.484.111,2.668,2.668,0,0,1-2.977-2.646V171.11a12.556,12.556,0,0,0-11.608,12.519,12.688,12.688,0,0,0,.076,1.382" transform="translate(-118.835 -152.893)" fill="none" stroke="#000" stroke-linecap="round" stroke-linejoin="round" stroke-width="2"/>
      <path id="Path_17023" data-name="Path 17023" d="M364.065,210.208l0-9.918v9.918Z" transform="translate(-325.604 -178.773)" fill="none" stroke="#000" stroke-linecap="round" stroke-linejoin="round" stroke-width="2"/>
      <g id="Group_14020" data-name="Group 14020" transform="translate(29.169 15.734)">
        <g id="Group_14018" data-name="Group 14018">
          <path id="Path_17024" data-name="Path 17024" d="M287.391,189.048l.324-6.3a4.009,4.009,0,0,0-1.16-3.166l-1.853-1.853a8.806,8.806,0,0,1-2.808-6.45l0-9.555h.7a3.89,3.89,0,0,1,3.889,3.89v2.959l0-13.645a2.331,2.331,0,0,1,2.33-2.33h.041a2.332,2.332,0,0,1,2.33,2.332V151.48a2.33,2.33,0,1,1,4.661,0l0,3.825a2.332,2.332,0,0,1,2.333-2.329h.018a2.333,2.333,0,0,1,2.33,2.332v2.845a2.329,2.329,0,0,1,2.331-2.329h.02a2.329,2.329,0,0,1,2.329,2.33l0,13.537a8.806,8.806,0,0,1-1.47,4.871l-2.013,3.028a4.012,4.012,0,0,0-.649,2.624l.326,6.833" transform="translate(-281.895 -149.15)" fill="none" stroke="#000" stroke-linecap="round" stroke-linejoin="round" stroke-width="2"/>
        </g>
        <g id="Group_14019" data-name="Group 14019" transform="translate(9.291 5.783)">
          <path id="Path_17025" data-name="Path 17025" d="M364.061,210.21l0-9.918v9.918Z" transform="translate(-364.061 -200.292)" fill="none" stroke="#000" stroke-linecap="round" stroke-linejoin="round" stroke-width="2"/>
          <line id="Line_45" data-name="Line 45" y2="9.544" transform="translate(4.662 0.373)" fill="none" stroke="#000" stroke-linecap="round" stroke-linejoin="round" stroke-width="2"/>
          <path id="Path_17026" data-name="Path 17026" d="M446.665,228.592l0,6.718v-6.7A.141.141,0,0,1,446.665,228.592Z" transform="translate(-437.323 -225.392)" fill="none" stroke="#000" stroke-linecap="round" stroke-linejoin="round" stroke-width="2"/>
        </g>
      </g>
      <g id="Group_14023" data-name="Group 14023" transform="translate(38.461 21.517)">
        <g id="Group_14021" data-name="Group 14021">
          <path id="Path_17027" data-name="Path 17027" d="M364.065,210.208l0-9.918v9.918Z" transform="translate(-364.065 -200.29)" fill="none" stroke="#000" stroke-linecap="round" stroke-linejoin="round" stroke-width="2"/>
          <path id="Path_17028" data-name="Path 17028" d="M446.667,228.59l0,6.718v-6.7A.13.13,0,0,1,446.667,228.59Z" transform="translate(-437.325 -225.39)" fill="none" stroke="#000" stroke-linecap="round" stroke-linejoin="round" stroke-width="2"/>
        </g>
        <g id="Group_14022" data-name="Group 14022">
          <path id="Path_17029" data-name="Path 17029" d="M364.067,200.29v9.918h0Z" transform="translate(-364.065 -200.29)" fill="none" stroke="#000" stroke-linecap="round" stroke-linejoin="round" stroke-width="2"/>
          <line id="Line_46" data-name="Line 46" y2="9.544" transform="translate(4.661 0.373)" fill="none" stroke="#000" stroke-linecap="round" stroke-linejoin="round" stroke-width="2"/>
          <path id="Path_17030" data-name="Path 17030" d="M446.667,228.59l0,6.718v-6.7A.13.13,0,0,1,446.667,228.59Z" transform="translate(-437.325 -225.39)" fill="none" stroke="#000" stroke-linecap="round" stroke-linejoin="round" stroke-width="2"/>
        </g>
      </g>
      <g id="Group_14026" data-name="Group 14026" transform="translate(38.461 21.517)">
        <g id="Group_14024" data-name="Group 14024">
          <path id="Path_17031" data-name="Path 17031" d="M364.065,210.208l0-9.918v9.918Z" transform="translate(-364.065 -200.29)" fill="none" stroke="#000" stroke-linecap="round" stroke-linejoin="round" stroke-width="2"/>
          <path id="Path_17032" data-name="Path 17032" d="M446.667,228.59l0,6.718v-6.7A.13.13,0,0,1,446.667,228.59Z" transform="translate(-437.325 -225.39)" fill="none" stroke="#000" stroke-linecap="round" stroke-linejoin="round" stroke-width="2"/>
        </g>
        <g id="Group_14025" data-name="Group 14025">
          <path id="Path_17033" data-name="Path 17033" d="M364.067,200.29v9.918h0Z" transform="translate(-364.065 -200.29)" fill="none" stroke="#000" stroke-linecap="round" stroke-linejoin="round" stroke-width="2"/>
          <path id="Path_17034" data-name="Path 17034" d="M405.285,203.59v9.544" transform="translate(-400.624 -203.217)" fill="none" stroke="#000" stroke-linecap="round" stroke-linejoin="round" stroke-width="2"/>
          <path id="Path_17035" data-name="Path 17035" d="M446.667,228.59l0,6.718v-6.7A.13.13,0,0,1,446.667,228.59Z" transform="translate(-437.325 -225.39)" fill="none" stroke="#000" stroke-linecap="round" stroke-linejoin="round" stroke-width="2"/>
        </g>
      </g>
      <g id="Group_14029" data-name="Group 14029" transform="translate(38.461 21.517)">
        <g id="Group_14027" data-name="Group 14027">
          <path id="Path_17036" data-name="Path 17036" d="M364.065,210.208l0-9.918v9.918Z" transform="translate(-364.065 -200.29)" fill="none" stroke="#000" stroke-linecap="round" stroke-linejoin="round" stroke-width="2"/>
          <path id="Path_17037" data-name="Path 17037" d="M446.666,205.825a.131.131,0,0,1,0-.02l0,6.718V202.9c0,.026,0,.053,0,.08Z" transform="translate(-437.325 -202.605)" fill="none" stroke="#000" stroke-linecap="round" stroke-linejoin="round" stroke-width="2"/>
        </g>
        <g id="Group_14028" data-name="Group 14028">
          <path id="Path_17038" data-name="Path 17038" d="M364.067,200.29v9.918h0Z" transform="translate(-364.065 -200.29)" fill="none" stroke="#000" stroke-linecap="round" stroke-linejoin="round" stroke-width="2"/>
          <line id="Line_47" data-name="Line 47" y2="9.544" transform="translate(4.661 0.373)" fill="none" stroke="#000" stroke-linecap="round" stroke-linejoin="round" stroke-width="2"/>
          <path id="Path_17039" data-name="Path 17039" d="M446.667,228.59l0,6.718v-6.7A.13.13,0,0,1,446.667,228.59Z" transform="translate(-437.325 -225.39)" fill="none" stroke="#000" stroke-linecap="round" stroke-linejoin="round" stroke-width="2"/>
        </g>
      </g>
      <path id="Path_17040" data-name="Path 17040" d="M364.065,210.208l0-9.918v9.918Z" transform="translate(-325.604 -178.773)" fill="none" stroke="#000" stroke-linecap="round" stroke-linejoin="round" stroke-width="2"/>
      <path id="Path_17041" data-name="Path 17041" d="M364.065,210.208l0-9.918v9.918Z" transform="translate(-325.604 -178.773)" fill="none" stroke="#000" stroke-linecap="round" stroke-linejoin="round" stroke-width="2"/>
      <path id="Path_17042" data-name="Path 17042" d="M253.009,98.737l0-3.825a2.33,2.33,0,1,0-4.661,0v3.452a2.332,2.332,0,0,0-2.33-2.332h-.041a2.331,2.331,0,0,0-2.33,2.33l0,10.685a3.89,3.89,0,0,0-3.889-3.89h-.7l0,8.618a19.215,19.215,0,0,0-2.484.111,2.668,2.668,0,0,1-2.977-2.646V90.487a7.232,7.232,0,0,0,2.926-2.732,5.024,5.024,0,0,0,6.651-2.385A47.174,47.174,0,0,0,259.356,86.4a2.661,2.661,0,0,1,3.013,2.642v12.539a2.329,2.329,0,0,0-2.329-2.328h-.02a2.328,2.328,0,0,0-2.33,2.309l0,6.718V98.74a2.332,2.332,0,0,0-2.33-2.332h-.018a2.332,2.332,0,0,0-2.333,2.329" transform="translate(-209.887 -76.848)" fill="none" stroke="#000" stroke-linecap="round" stroke-linejoin="round" stroke-width="2"/>
      <path id="Path_17043" data-name="Path 17043" d="M488.045,241.176l0-12.4v12.432A.194.194,0,0,0,488.045,241.176Z" transform="translate(-435.566 -204.042)" fill="none" stroke="#000" stroke-linecap="round" stroke-linejoin="round" stroke-width="2"/>
      <path id="Path_17044" data-name="Path 17044" d="M233.815,26.814a5.022,5.022,0,0,1,5.022-5.022" transform="translate(-210.082 -20.459)" fill="none" stroke="#000" stroke-linecap="round" stroke-linejoin="round" stroke-width="2"/>
      <line id="Line_48" data-name="Line 48" transform="translate(13.724 36.916)" fill="none" stroke="#000" stroke-linecap="round" stroke-linejoin="round" stroke-width="2"/>
    </g>
  </g>
</svg>
