<svg xmlns="http://www.w3.org/2000/svg" xmlns:xlink="http://www.w3.org/1999/xlink" width="36" height="36" viewBox="0 0 36 36">
  <defs>
    <clipPath id="clip-path">
      <rect id="Rectangle_6081" data-name="Rectangle 6081" width="36" height="36" transform="translate(210 168)" fill="#9e4848"/>
    </clipPath>
  </defs>
  <g id="Washer_Washing_Machine" data-name="Washer / Washing Machine" transform="translate(-210 -168)" clip-path="url(#clip-path)">
    <g id="washer" transform="translate(212.652 168)">
      <g id="Group_14313" data-name="Group 14313" transform="translate(9.562 2.54)">
        <g id="Group_14312" data-name="Group 14312">
          <path id="Path_17217" data-name="Path 17217" d="M17.161,3.1a2.233,2.233,0,1,0,2.233,2.233A2.235,2.235,0,0,0,17.161,3.1Zm0,3.41a1.178,1.178,0,1,1,1.178-1.178A1.179,1.179,0,0,1,17.161,6.515Z" transform="translate(-14.929 -3.105)"/>
        </g>
      </g>
      <g id="Group_14315" data-name="Group 14315" transform="translate(3.523 2.54)">
        <g id="Group_14314" data-name="Group 14314">
          <path id="Path_17218" data-name="Path 17218" d="M9.78,3.1a2.233,2.233,0,1,0,2.233,2.233A2.235,2.235,0,0,0,9.78,3.1Zm0,3.41a1.178,1.178,0,1,1,1.178-1.178A1.179,1.179,0,0,1,9.78,6.515Z" transform="translate(-7.547 -3.105)"/>
        </g>
      </g>
      <g id="Group_14317" data-name="Group 14317" transform="translate(17.849 2.54)">
        <g id="Group_14316" data-name="Group 14316">
          <path id="Path_17219" data-name="Path 17219" d="M32.325,3.1H26.26a1.2,1.2,0,0,0-1.2,1.2V6.368a1.2,1.2,0,0,0,1.2,1.2h6.066a1.2,1.2,0,0,0,1.2-1.2V4.307A1.2,1.2,0,0,0,32.325,3.1Zm.148,3.263a.148.148,0,0,1-.148.148H26.26a.148.148,0,0,1-.148-.148V4.307a.148.148,0,0,1,.148-.148h6.066a.148.148,0,0,1,.148.148Z" transform="translate(-25.057 -3.105)"/>
        </g>
      </g>
      <g id="Group_14319" data-name="Group 14319" transform="translate(5.654 10.803)">
        <g id="Group_14318" data-name="Group 14318">
          <path id="Path_17220" data-name="Path 17220" d="M19.846,13.2a9.6,9.6,0,0,0-5.919,2.017.527.527,0,0,0,.645.835,8.555,8.555,0,0,1,5.274-1.8,8.639,8.639,0,1,1-6.7,3.185.527.527,0,0,0-.818-.666A9.693,9.693,0,1,0,19.846,13.2Z" transform="translate(-10.153 -13.203)"/>
        </g>
      </g>
      <g id="Group_14321" data-name="Group 14321" transform="translate(0)">
        <g id="Group_14320" data-name="Group 14320">
          <path id="Path_17221" data-name="Path 17221" d="M33.936,31.906V4.053A4.057,4.057,0,0,0,29.884,0H7.294A4.057,4.057,0,0,0,3.242,4.053V31.948A4.057,4.057,0,0,0,7.294,36h22.59a4.056,4.056,0,0,0,4.051-3.992C33.937,31.988,33.938,31.92,33.936,31.906Zm-1.055-.486H28.516a.527.527,0,1,0,0,1.055h4.319a3,3,0,0,1-2.951,2.47H7.294a3,3,0,0,1-2.951-2.47H26.407a.527.527,0,1,0,0-1.055H4.3V9.545H32.882Zm0-22.93H4.3V4.053a3,3,0,0,1,3-3h22.59a3,3,0,0,1,3,3Z" transform="translate(-3.242)"/>
        </g>
      </g>
      <g id="Group_14323" data-name="Group 14323" transform="translate(8.106 13.254)">
        <g id="Group_14322" data-name="Group 14322">
          <path id="Path_17222" data-name="Path 17222" d="M20.39,16.2a7.245,7.245,0,0,0-7.167,8.286h0a7.242,7.242,0,0,0,14.333,0h0A7.245,7.245,0,0,0,20.39,16.2Zm4.067,11.9a6.188,6.188,0,0,1-10.135-3.449l.325-.221a1.635,1.635,0,0,1,1.822,0,2.7,2.7,0,0,0,3.009,0,1.638,1.638,0,0,1,1.822,0,2.7,2.7,0,0,0,3.009,0,1.632,1.632,0,0,1,1.822,0l.325.221A6.185,6.185,0,0,1,24.457,28.1Zm2.12-4.637-.011-.006a2.759,2.759,0,0,0-.914-.327,2.625,2.625,0,0,0-1.218.083,2.677,2.677,0,0,0-.717.346,1.636,1.636,0,0,1-1.822,0,2.673,2.673,0,0,0-3.009,0,1.633,1.633,0,0,1-1.822,0,2.671,2.671,0,0,0-2.849-.1l-.011.006c0-.009,0-.017,0-.026a6.187,6.187,0,0,1,12.374,0C26.577,23.45,26.577,23.458,26.577,23.467Z" transform="translate(-13.149 -16.199)"/>
        </g>
      </g>
    </g>
  </g>
</svg>
